999
FreeCAD v0.19 14555 (Git shallow)
  0
SECTION
  2
HEADER
  9
$ACADVER
  1
AC1014
  9
$ACADMAINTVER
 70
     9
  9
$DWGCODEPAGE
  3
ANSI_1252
  9
$TEXTSTYLE
  7
STANDARD
  9
$DIMSTYLE
  2
STANDARD
  9
$DIMTXSTY
  7
STANDARD
  9
$CMLSTYLE
  2
STANDARD
  9
$PEXTMAX
 10
50
 20
50
 30
50
  9
$PEXTMIN
 10
0
 20
0
 30
0
  9
$HANDSEED
  5
FFFF
  0
ENDSEC
  0
SECTION
  2
CLASSES
  0
CLASS
  1
ACDBDICTIONARYWDFLT
  2
AcDbDictionaryWithDefault
  3
ObjectDBX Classes
 90
        0
280
     0
281
     0
  0
CLASS
  1
XRECORD
  2
AcDbXrecord
  3
ObjectDBX Classes
 90
        0
280
     0
281
     0
  0
CLASS
  1
LWPOLYLINE
  2
AcDbPolyline
  3
ObjectDBX Classes
 90
        0
280
     0
281
     1
  0
ENDSEC
  0
SECTION
  2
TABLES
  0
TABLE
  2
VPORT
  5
20
330
0
100
AcDbSymbolTable
 70
     1
  0
VPORT
  5
21
330
20
100
AcDbSymbolTableRecord
100
AcDbViewportTableRecord
  2
*ACTIVE
 70
     0
  0
ENDTAB
  0
TABLE
  2
LTYPE
  5
22
330
0
100
AcDbSymbolTable
 70
     1
  0
LTYPE
  5
23
330
21
100
AcDbSymbolTableRecord
100
AcDbLinetypeTableRecord
  2
BYBLOCK
 70
     0
  3

 72
    65
 73
     0
 40
0.0
  0
LTYPE
  5
24
330
21
100
AcDbSymbolTableRecord
100
AcDbLinetypeTableRecord
  2
BYLAYER
 70
     0
  3

 72
    65
 73
     0
 40
0.0
  0
LTYPE
  5
25
330
21
100
AcDbSymbolTableRecord
100
AcDbLinetypeTableRecord
  2
CONTINUOUS
 70
     0
  3
Solid line
 72
    65
 73
     0
 40
0.0
  0
ENDTAB
  0
TABLE
  2
LAYER
  5
AAA
330
0
100
AcDbSymbolTable
 70
3
  0
LAYER
  5
AAB
330
AAA
100
AcDbSymbolTableRecord
100
AcDbLayerTableRecord
  2
0
 70
   0
 62
   7
  6
CONTINUOUS
  0
LAYER
  5
AAC
330
AAA
100
AcDbSymbolTableRecord
100
AcDbLayerTableRecord
  2
none
 70
    0
 62
    7
  6
CONTINUOUS
  0
LAYER
  5
AAD
330
AAA
100
AcDbSymbolTableRecord
100
AcDbLayerTableRecord
  2
Solid
 70
    0
 62
    7
  6
CONTINUOUS
  0
ENDTAB
  0
TABLE
  2
STYLE
  5
70
330
0
100
AcDbSymbolTable
 70
     2
  0
STYLE
  5
71
330
70
100
AcDbSymbolTableRecord
100
AcDbTextStyleTableRecord
  2
STANDARD
 70
     0
 40
0.0
 41
1.0
 50
0.0
 71
     0
 42
2.5
  3
arial.ttf
  4

  0
STYLE
  5
72
330
70
100
AcDbSymbolTableRecord
100
AcDbTextStyleTableRecord
  2
ANNOTATIVE
 70
     0
 40
0.0
 41
1.0
 50
0.0
 71
     0
 42
2.5
  3
arial.ttf
  4

  0
ENDTAB
  0
TABLE
  2
VIEW
  5
73
330
0
100
AcDbSymbolTable
 70
     0
  0
ENDTAB
  0
TABLE
  2
UCS
  5
74
330
0
100
AcDbSymbolTable
 70
     0
  0
ENDTAB
  0
TABLE
  2
APPID
  5
75
330
0
100
AcDbSymbolTable
 70
     2
  0
APPID
  5
76
330
75
100
AcDbSymbolTableRecord
100
AcDbRegAppTableRecord
  2
ACAD
 70
     0
  0
APPID
  5
77
330
75
100
AcDbSymbolTableRecord
100
AcDbRegAppTableRecord
  2
ACADANNOTATIVE
 70
     0
  0
ENDTAB
  0
TABLE
  2
DIMSTYLE
  5
78
330
0
100
AcDbSymbolTable
 70
     2
  0
DIMSTYLE
105
79
330
78
100
AcDbSymbolTableRecord
100
AcDbDimStyleTableRecord
  2
STANDARD
 70
     0
  3

  4

  5

  6

  7

 40
0.0
 41
2.5
 42
0.625
 43
3.75
 44
1.25
 45
0.0
 46
0.0
 47
0.0
 48
0.0
140
2.5
141
2.5
142
0.0
143
0.03937007874016
144
1.0
145
0.0
146
1.0
147
0.625
 71
     0
 72
     0
 73
     0
 74
     0
 75
     0
 76
     0
 77
     1
 78
     8
170
     0
171
     3
172
     1
173
     0
174
     0
175
     0
176
     0
177
     0
178
     0
270
     2
271
     2
272
     2
273
     2
274
     3
340
71
275
     0
280
     0
281
     0
282
     0
283
     0
284
     8
285
     0
286
     0
287
     3
288
     0
  0
ENDTAB
  0
TABLE
  2
BLOCK_RECORD
  5
A01
330
0
100
AcDbSymbolTable
  70
5
  0
BLOCK_RECORD
  5
A02
330
A01
100
AcDbSymbolTableRecord
100
AcDbBlockTableRecord
  2
*MODEL_SPACE
  0
BLOCK_RECORD
  5
A03
330
A01
100
AcDbSymbolTableRecord
100
AcDbBlockTableRecord
  2
*PAPER_SPACE
  0
ENDTAB
  0
ENDSEC
  0
SECTION
  2
BLOCKS
  0
BLOCK
  5
A04
330
A02
100
AcDbEntity
  8
0
100
AcDbBlockBegin
  2
*MODEL_SPACE
 70
   0
 10
0
 20
0
 30
0
  3
*MODEL_SPACE
  1
 
  0
ENDBLK
  5
A05
330
A02
100
AcDbEntity
  8
0
100
AcDbBlockEnd
  0
BLOCK
  5
A06
330
A03
100
AcDbEntity
 67
1
  8
0
100
AcDbBlockBegin
  2
*PAPER_SPACE
 70
   0
 10
0
 20
0
 30
0
  3
*PAPER_SPACE
  1
 
  0
ENDBLK
  5
A07
330
A03
100
AcDbEntity
 67
    1
  8
0
100
AcDbBlockEnd
  0
ENDSEC
  0
SECTION
  2
ENTITIES
  0
LINE
  5
A08
330
A02
100
AcDbEntity
  8
Solid
100
AcDbLine
 10
112.283
 20
-56.2531
 30
0
 11
112.283
 21
-56.2531
 31
1.6
  0
LINE
  5
A09
330
A02
100
AcDbEntity
  8
Solid
100
AcDbLine
 10
112.283
 20
-56.2531
 30
1.6
 11
99.5609
 21
-78.2889
 31
1.6
  0
LINE
  5
A0A
330
A02
100
AcDbEntity
  8
Solid
100
AcDbLine
 10
99.5609
 20
-78.2889
 30
0
 11
99.5609
 21
-78.2889
 31
1.6
  0
LINE
  5
A0B
330
A02
100
AcDbEntity
  8
Solid
100
AcDbLine
 10
112.283
 20
-56.2531
 30
0
 11
99.5609
 21
-78.2889
 31
0
  0
ARC
  5
A0C
330
A02
100
AcDbEntity
  8
Solid
100
AcDbCircle
 10
97.2559
 20
-48.7989
 30
0
 40
16.7745
100
AcDbArc
 50
-26.3833
 51
-0.443968
  0
LINE
  5
A0D
330
A02
100
AcDbEntity
  8
Solid
100
AcDbLine
 10
114.03
 20
-48.9289
 30
0
 11
114.03
 21
-48.9289
 31
1.6
  0
ARC
  5
A0E
330
A02
100
AcDbEntity
  8
Solid
100
AcDbCircle
 10
97.2559
 20
-48.7989
 30
1.6
 40
16.7745
100
AcDbArc
 50
-26.3833
 51
-0.443968
  0
LINE
  5
A0F
330
A02
100
AcDbEntity
  8
Solid
100
AcDbLine
 10
112.283
 20
-56.2531
 30
0
 11
112.283
 21
-56.2531
 31
1.6
  0
ARC
  5
A10
330
A02
100
AcDbEntity
  8
Solid
100
AcDbCircle
 10
98.6949
 20
-77.7888
 30
0
 40
1
100
AcDbArc
 50
-119.999
 51
-29.9999
  0
LINE
  5
A11
330
A02
100
AcDbEntity
  8
Solid
100
AcDbLine
 10
99.5609
 20
-78.2889
 30
0
 11
99.5609
 21
-78.2889
 31
1.6
  0
ARC
  5
A12
330
A02
100
AcDbEntity
  8
Solid
100
AcDbCircle
 10
98.6949
 20
-77.7888
 30
1.6
 40
1
100
AcDbArc
 50
-119.999
 51
-29.9999
  0
LINE
  5
A13
330
A02
100
AcDbEntity
  8
Solid
100
AcDbLine
 10
98.1949
 20
-78.6549
 30
0
 11
98.1949
 21
-78.6549
 31
1.6
  0
LINE
  5
A14
330
A02
100
AcDbEntity
  8
Solid
100
AcDbLine
 10
112.283
 20
-56.2531
 30
0
 11
99.5609
 21
-78.2889
 31
0
  0
ARC
  5
A15
330
A02
100
AcDbEntity
  8
Solid
100
AcDbCircle
 10
98.6949
 20
-77.7888
 30
0
 40
1
100
AcDbArc
 50
-119.999
 51
-29.9999
  0
LINE
  5
A16
330
A02
100
AcDbEntity
  8
Solid
100
AcDbLine
 10
98.1949
 20
-78.6549
 30
0
 11
90.8122
 21
-74.3925
 31
0
  0
ARC
  5
A17
330
A02
100
AcDbEntity
  8
Solid
100
AcDbCircle
 10
54.6367
 20
-137.054
 30
0
 40
72.3542
100
AcDbArc
 50
60.0014
 51
90
  0
LINE
  5
A18
330
A02
100
AcDbEntity
  8
Solid
100
AcDbLine
 10
54.6367
 20
-64.6997
 30
0
 11
28.5748
 21
-64.7001
 31
0
  0
ARC
  5
A19
330
A02
100
AcDbEntity
  8
Solid
100
AcDbCircle
 10
28.575
 20
-9.5766
 30
0
 40
55.1235
100
AcDbArc
 50
-120.65
 51
-90.0002
  0
ARC
  5
A1A
330
A02
100
AcDbEntity
  8
Solid
100
AcDbCircle
 10
0.99858
 20
-56.1497
 30
0
 40
0.998696
100
AcDbArc
 50
-179.998
 51
-121.734
  0
LINE
  5
A1B
330
A02
100
AcDbEntity
  8
Solid
100
AcDbLine
 10
-0.000115627
 20
-56.1497
 30
0
 11
-9.9e-05
 21
-0.749847
 31
0
  0
ARC
  5
A1C
330
A02
100
AcDbEntity
  8
Solid
100
AcDbCircle
 10
0.99971
 20
-0.74982
 30
0
 40
0.99981
100
AcDbArc
 50
132.543
 51
-179.998
  0
ARC
  5
A1D
330
A02
100
AcDbEntity
  8
Solid
100
AcDbCircle
 10
49.6242
 20
-54.4186
 30
0
 40
73.42
100
AcDbArc
 50
90
 51
132.182
  0
ARC
  5
A1E
330
A02
100
AcDbEntity
  8
Solid
100
AcDbCircle
 10
49.6236
 20
-87.0465
 30
0
 40
106.048
100
AcDbArc
 50
64.8614
 51
89.9997
  0
ARC
  5
A1F
330
A02
100
AcDbEntity
  8
Solid
100
AcDbCircle
 10
94.2485
 20
8.05122
 30
0
 40
1.00043
100
AcDbArc
 50
0.00114543
 51
64.8507
  0
LINE
  5
A20
330
A02
100
AcDbEntity
  8
Solid
100
AcDbLine
 10
95.249
 20
8.05124
 30
0
 11
95.249
 21
-6.14463
 31
0
  0
ARC
  5
A21
330
A02
100
AcDbEntity
  8
Solid
100
AcDbCircle
 10
95.7489
 20
-6.14464
 30
0
 40
0.49999
100
AcDbArc
 50
179.999
 51
-89.9989
  0
LINE
  5
A22
330
A02
100
AcDbEntity
  8
Solid
100
AcDbLine
 10
95.749
 20
-6.64463
 30
0
 11
97.9989
 21
-6.64445
 31
0
  0
ARC
  5
A23
330
A02
100
AcDbEntity
  8
Solid
100
AcDbCircle
 10
97.9989
 20
-8.89443
 30
0
 40
2.24998
100
AcDbArc
 50
-0.0040744
 51
89.9999
  0
LINE
  5
A24
330
A02
100
AcDbEntity
  8
Solid
100
AcDbLine
 10
100.249
 20
-8.89459
 30
0
 11
100.249
 21
-10.3945
 31
0
  0
ARC
  5
A25
330
A02
100
AcDbEntity
  8
Solid
100
AcDbCircle
 10
100.749
 20
-10.3945
 30
0
 40
0.50001
100
AcDbArc
 50
-179.999
 51
-90.0011
  0
LINE
  5
A26
330
A02
100
AcDbEntity
  8
Solid
100
AcDbLine
 10
100.749
 20
-10.8945
 30
0
 11
113.03
 21
-10.8943
 31
0
  0
ARC
  5
A27
330
A02
100
AcDbEntity
  8
Solid
100
AcDbCircle
 10
113.03
 20
-11.8943
 30
0
 40
1.00001
100
AcDbArc
 50
0.000572952
 51
89.9993
  0
LINE
  5
A28
330
A02
100
AcDbEntity
  8
Solid
100
AcDbLine
 10
114.03
 20
-11.8943
 30
0
 11
114.03
 21
-48.9289
 31
0
  0
ARC
  5
A29
330
A02
100
AcDbEntity
  8
Solid
100
AcDbCircle
 10
97.2559
 20
-48.7989
 30
0
 40
16.7745
100
AcDbArc
 50
-26.3833
 51
-0.443968
  0
CIRCLE
  5
A2A
330
A02
100
AcDbEntity
  8
Solid
100
AcDbCircle
 10
86.4662
 20
-60.2069
 40
1.1
  0
CIRCLE
  5
A2B
330
A02
100
AcDbEntity
  8
Solid
100
AcDbCircle
 10
57.149
 20
-41.924
 40
1.1
  0
CIRCLE
  5
A2C
330
A02
100
AcDbEntity
  8
Solid
100
AcDbCircle
 10
19.0495
 20
-45.1496
 40
1.1
  0
CIRCLE
  5
A2D
330
A02
100
AcDbEntity
  8
Solid
100
AcDbCircle
 10
76.1995
 20
-7.5491
 40
1.1
  0
CIRCLE
  5
A2E
330
A02
100
AcDbEntity
  8
Solid
100
AcDbCircle
 10
19.0495
 20
-7.0496
 40
1.1
  0
LINE
  5
A2F
330
A02
100
AcDbEntity
  8
Solid
100
AcDbLine
 10
112.283
 20
-56.2531
 30
1.6
 11
99.5609
 21
-78.2889
 31
1.6
  0
ARC
  5
A30
330
A02
100
AcDbEntity
  8
Solid
100
AcDbCircle
 10
98.6949
 20
-77.7888
 30
1.6
 40
1
100
AcDbArc
 50
-119.999
 51
-29.9999
  0
LINE
  5
A31
330
A02
100
AcDbEntity
  8
Solid
100
AcDbLine
 10
98.1949
 20
-78.6549
 30
1.6
 11
90.8122
 21
-74.3925
 31
1.6
  0
ARC
  5
A32
330
A02
100
AcDbEntity
  8
Solid
100
AcDbCircle
 10
54.6367
 20
-137.054
 30
1.6
 40
72.3542
100
AcDbArc
 50
60.0014
 51
90
  0
LINE
  5
A33
330
A02
100
AcDbEntity
  8
Solid
100
AcDbLine
 10
54.6367
 20
-64.6997
 30
1.6
 11
28.5748
 21
-64.7001
 31
1.6
  0
ARC
  5
A34
330
A02
100
AcDbEntity
  8
Solid
100
AcDbCircle
 10
28.575
 20
-9.5766
 30
1.6
 40
55.1235
100
AcDbArc
 50
-120.65
 51
-90.0002
  0
ARC
  5
A35
330
A02
100
AcDbEntity
  8
Solid
100
AcDbCircle
 10
0.99858
 20
-56.1497
 30
1.6
 40
0.998696
100
AcDbArc
 50
-179.998
 51
-121.734
  0
LINE
  5
A36
330
A02
100
AcDbEntity
  8
Solid
100
AcDbLine
 10
-0.000115627
 20
-56.1497
 30
1.6
 11
-9.9e-05
 21
-0.749847
 31
1.6
  0
ARC
  5
A37
330
A02
100
AcDbEntity
  8
Solid
100
AcDbCircle
 10
0.99971
 20
-0.74982
 30
1.6
 40
0.99981
100
AcDbArc
 50
132.543
 51
-179.998
  0
ARC
  5
A38
330
A02
100
AcDbEntity
  8
Solid
100
AcDbCircle
 10
49.6242
 20
-54.4186
 30
1.6
 40
73.42
100
AcDbArc
 50
90
 51
132.182
  0
ARC
  5
A39
330
A02
100
AcDbEntity
  8
Solid
100
AcDbCircle
 10
49.6236
 20
-87.0465
 30
1.6
 40
106.048
100
AcDbArc
 50
64.8614
 51
89.9997
  0
ARC
  5
A3A
330
A02
100
AcDbEntity
  8
Solid
100
AcDbCircle
 10
94.2485
 20
8.05122
 30
1.6
 40
1.00043
100
AcDbArc
 50
0.00114543
 51
64.8507
  0
LINE
  5
A3B
330
A02
100
AcDbEntity
  8
Solid
100
AcDbLine
 10
95.249
 20
8.05124
 30
1.6
 11
95.249
 21
-6.14463
 31
1.6
  0
ARC
  5
A3C
330
A02
100
AcDbEntity
  8
Solid
100
AcDbCircle
 10
95.7489
 20
-6.14464
 30
1.6
 40
0.49999
100
AcDbArc
 50
179.999
 51
-89.9989
  0
LINE
  5
A3D
330
A02
100
AcDbEntity
  8
Solid
100
AcDbLine
 10
95.749
 20
-6.64463
 30
1.6
 11
97.9989
 21
-6.64445
 31
1.6
  0
ARC
  5
A3E
330
A02
100
AcDbEntity
  8
Solid
100
AcDbCircle
 10
97.9989
 20
-8.89443
 30
1.6
 40
2.24998
100
AcDbArc
 50
-0.0040744
 51
89.9999
  0
LINE
  5
A3F
330
A02
100
AcDbEntity
  8
Solid
100
AcDbLine
 10
100.249
 20
-8.89459
 30
1.6
 11
100.249
 21
-10.3945
 31
1.6
  0
ARC
  5
A40
330
A02
100
AcDbEntity
  8
Solid
100
AcDbCircle
 10
100.749
 20
-10.3945
 30
1.6
 40
0.50001
100
AcDbArc
 50
-179.999
 51
-90.0011
  0
LINE
  5
A41
330
A02
100
AcDbEntity
  8
Solid
100
AcDbLine
 10
100.749
 20
-10.8945
 30
1.6
 11
113.03
 21
-10.8943
 31
1.6
  0
ARC
  5
A42
330
A02
100
AcDbEntity
  8
Solid
100
AcDbCircle
 10
113.03
 20
-11.8943
 30
1.6
 40
1.00001
100
AcDbArc
 50
0.000572952
 51
89.9993
  0
LINE
  5
A43
330
A02
100
AcDbEntity
  8
Solid
100
AcDbLine
 10
114.03
 20
-11.8943
 30
1.6
 11
114.03
 21
-48.9289
 31
1.6
  0
ARC
  5
A44
330
A02
100
AcDbEntity
  8
Solid
100
AcDbCircle
 10
97.2559
 20
-48.7989
 30
1.6
 40
16.7745
100
AcDbArc
 50
-26.3833
 51
-0.443968
  0
CIRCLE
  5
A45
330
A02
100
AcDbEntity
  8
Solid
100
AcDbCircle
 10
86.4662
 20
-60.2069
 40
1.1
  0
CIRCLE
  5
A46
330
A02
100
AcDbEntity
  8
Solid
100
AcDbCircle
 10
57.149
 20
-41.924
 40
1.1
  0
CIRCLE
  5
A47
330
A02
100
AcDbEntity
  8
Solid
100
AcDbCircle
 10
19.0495
 20
-45.1496
 40
1.1
  0
CIRCLE
  5
A48
330
A02
100
AcDbEntity
  8
Solid
100
AcDbCircle
 10
76.1995
 20
-7.5491
 40
1.1
  0
CIRCLE
  5
A49
330
A02
100
AcDbEntity
  8
Solid
100
AcDbCircle
 10
19.0495
 20
-7.0496
 40
1.1
  0
LINE
  5
A4A
330
A02
100
AcDbEntity
  8
Solid
100
AcDbLine
 10
114.03
 20
-11.8943
 30
0
 11
114.03
 21
-11.8943
 31
1.6
  0
LINE
  5
A4B
330
A02
100
AcDbEntity
  8
Solid
100
AcDbLine
 10
114.03
 20
-11.8943
 30
1.6
 11
114.03
 21
-48.9289
 31
1.6
  0
LINE
  5
A4C
330
A02
100
AcDbEntity
  8
Solid
100
AcDbLine
 10
114.03
 20
-48.9289
 30
0
 11
114.03
 21
-48.9289
 31
1.6
  0
LINE
  5
A4D
330
A02
100
AcDbEntity
  8
Solid
100
AcDbLine
 10
114.03
 20
-11.8943
 30
0
 11
114.03
 21
-48.9289
 31
0
  0
LINE
  5
A4E
330
A02
100
AcDbEntity
  8
Solid
100
AcDbLine
 10
98.1949
 20
-78.6549
 30
0
 11
98.1949
 21
-78.6549
 31
1.6
  0
LINE
  5
A4F
330
A02
100
AcDbEntity
  8
Solid
100
AcDbLine
 10
98.1949
 20
-78.6549
 30
1.6
 11
90.8122
 21
-74.3925
 31
1.6
  0
LINE
  5
A50
330
A02
100
AcDbEntity
  8
Solid
100
AcDbLine
 10
90.8122
 20
-74.3925
 30
0
 11
90.8122
 21
-74.3925
 31
1.6
  0
LINE
  5
A51
330
A02
100
AcDbEntity
  8
Solid
100
AcDbLine
 10
98.1949
 20
-78.6549
 30
0
 11
90.8122
 21
-74.3925
 31
0
  0
ARC
  5
A52
330
A02
100
AcDbEntity
  8
Solid
100
AcDbCircle
 10
113.03
 20
-11.8943
 30
0
 40
1.00001
100
AcDbArc
 50
0.000572952
 51
89.9993
  0
LINE
  5
A53
330
A02
100
AcDbEntity
  8
Solid
100
AcDbLine
 10
113.03
 20
-10.8943
 30
0
 11
113.03
 21
-10.8943
 31
1.6
  0
ARC
  5
A54
330
A02
100
AcDbEntity
  8
Solid
100
AcDbCircle
 10
113.03
 20
-11.8943
 30
1.6
 40
1.00001
100
AcDbArc
 50
0.000572952
 51
89.9993
  0
LINE
  5
A55
330
A02
100
AcDbEntity
  8
Solid
100
AcDbLine
 10
114.03
 20
-11.8943
 30
0
 11
114.03
 21
-11.8943
 31
1.6
  0
ARC
  5
A56
330
A02
100
AcDbEntity
  8
Solid
100
AcDbCircle
 10
54.6367
 20
-137.054
 30
0
 40
72.3542
100
AcDbArc
 50
60.0014
 51
90
  0
LINE
  5
A57
330
A02
100
AcDbEntity
  8
Solid
100
AcDbLine
 10
54.6367
 20
-64.6997
 30
0
 11
54.6367
 21
-64.6997
 31
1.6
  0
ARC
  5
A58
330
A02
100
AcDbEntity
  8
Solid
100
AcDbCircle
 10
54.6367
 20
-137.054
 30
1.6
 40
72.3542
100
AcDbArc
 50
60.0014
 51
90
  0
LINE
  5
A59
330
A02
100
AcDbEntity
  8
Solid
100
AcDbLine
 10
90.8122
 20
-74.3925
 30
0
 11
90.8122
 21
-74.3925
 31
1.6
  0
LINE
  5
A5A
330
A02
100
AcDbEntity
  8
Solid
100
AcDbLine
 10
100.749
 20
-10.8945
 30
0
 11
100.749
 21
-10.8945
 31
1.6
  0
LINE
  5
A5B
330
A02
100
AcDbEntity
  8
Solid
100
AcDbLine
 10
100.749
 20
-10.8945
 30
1.6
 11
113.03
 21
-10.8943
 31
1.6
  0
LINE
  5
A5C
330
A02
100
AcDbEntity
  8
Solid
100
AcDbLine
 10
113.03
 20
-10.8943
 30
0
 11
113.03
 21
-10.8943
 31
1.6
  0
LINE
  5
A5D
330
A02
100
AcDbEntity
  8
Solid
100
AcDbLine
 10
100.749
 20
-10.8945
 30
0
 11
113.03
 21
-10.8943
 31
0
  0
LINE
  5
A5E
330
A02
100
AcDbEntity
  8
Solid
100
AcDbLine
 10
54.6367
 20
-64.6997
 30
0
 11
54.6367
 21
-64.6997
 31
1.6
  0
LINE
  5
A5F
330
A02
100
AcDbEntity
  8
Solid
100
AcDbLine
 10
54.6367
 20
-64.6997
 30
1.6
 11
28.5748
 21
-64.7001
 31
1.6
  0
LINE
  5
A60
330
A02
100
AcDbEntity
  8
Solid
100
AcDbLine
 10
28.5748
 20
-64.7001
 30
0
 11
28.5748
 21
-64.7001
 31
1.6
  0
LINE
  5
A61
330
A02
100
AcDbEntity
  8
Solid
100
AcDbLine
 10
54.6367
 20
-64.6997
 30
0
 11
28.5748
 21
-64.7001
 31
0
  0
ARC
  5
A62
330
A02
100
AcDbEntity
  8
Solid
100
AcDbCircle
 10
100.749
 20
-10.3945
 30
0
 40
0.50001
100
AcDbArc
 50
-179.999
 51
-90.0011
  0
LINE
  5
A63
330
A02
100
AcDbEntity
  8
Solid
100
AcDbLine
 10
100.749
 20
-10.8945
 30
0
 11
100.749
 21
-10.8945
 31
1.6
  0
ARC
  5
A64
330
A02
100
AcDbEntity
  8
Solid
100
AcDbCircle
 10
100.749
 20
-10.3945
 30
1.6
 40
0.50001
100
AcDbArc
 50
-179.999
 51
-90.0011
  0
LINE
  5
A65
330
A02
100
AcDbEntity
  8
Solid
100
AcDbLine
 10
100.249
 20
-10.3945
 30
0
 11
100.249
 21
-10.3945
 31
1.6
  0
ARC
  5
A66
330
A02
100
AcDbEntity
  8
Solid
100
AcDbCircle
 10
28.575
 20
-9.5766
 30
0
 40
55.1235
100
AcDbArc
 50
-120.65
 51
-90.0002
  0
LINE
  5
A67
330
A02
100
AcDbEntity
  8
Solid
100
AcDbLine
 10
28.5748
 20
-64.7001
 30
0
 11
28.5748
 21
-64.7001
 31
1.6
  0
ARC
  5
A68
330
A02
100
AcDbEntity
  8
Solid
100
AcDbCircle
 10
28.575
 20
-9.5766
 30
1.6
 40
55.1235
100
AcDbArc
 50
-120.65
 51
-90.0002
  0
LINE
  5
A69
330
A02
100
AcDbEntity
  8
Solid
100
AcDbLine
 10
0.47329
 20
-56.9991
 30
0
 11
0.47329
 21
-56.9991
 31
1.6
  0
LINE
  5
A6A
330
A02
100
AcDbEntity
  8
Solid
100
AcDbLine
 10
100.249
 20
-8.89459
 30
0
 11
100.249
 21
-8.89459
 31
1.6
  0
LINE
  5
A6B
330
A02
100
AcDbEntity
  8
Solid
100
AcDbLine
 10
100.249
 20
-8.89459
 30
1.6
 11
100.249
 21
-10.3945
 31
1.6
  0
LINE
  5
A6C
330
A02
100
AcDbEntity
  8
Solid
100
AcDbLine
 10
100.249
 20
-10.3945
 30
0
 11
100.249
 21
-10.3945
 31
1.6
  0
LINE
  5
A6D
330
A02
100
AcDbEntity
  8
Solid
100
AcDbLine
 10
100.249
 20
-8.89459
 30
0
 11
100.249
 21
-10.3945
 31
0
  0
ARC
  5
A6E
330
A02
100
AcDbEntity
  8
Solid
100
AcDbCircle
 10
0.99858
 20
-56.1497
 30
0
 40
0.998696
100
AcDbArc
 50
-179.998
 51
-121.734
  0
LINE
  5
A6F
330
A02
100
AcDbEntity
  8
Solid
100
AcDbLine
 10
0.47329
 20
-56.9991
 30
0
 11
0.47329
 21
-56.9991
 31
1.6
  0
ARC
  5
A70
330
A02
100
AcDbEntity
  8
Solid
100
AcDbCircle
 10
0.99858
 20
-56.1497
 30
1.6
 40
0.998696
100
AcDbArc
 50
-179.998
 51
-121.734
  0
LINE
  5
A71
330
A02
100
AcDbEntity
  8
Solid
100
AcDbLine
 10
-0.000115627
 20
-56.1497
 30
0
 11
-0.000115627
 21
-56.1497
 31
1.6
  0
ARC
  5
A72
330
A02
100
AcDbEntity
  8
Solid
100
AcDbCircle
 10
97.9989
 20
-8.89443
 30
0
 40
2.24998
100
AcDbArc
 50
-0.0040744
 51
89.9999
  0
LINE
  5
A73
330
A02
100
AcDbEntity
  8
Solid
100
AcDbLine
 10
97.9989
 20
-6.64445
 30
0
 11
97.9989
 21
-6.64445
 31
1.6
  0
ARC
  5
A74
330
A02
100
AcDbEntity
  8
Solid
100
AcDbCircle
 10
97.9989
 20
-8.89443
 30
1.6
 40
2.24998
100
AcDbArc
 50
-0.0040744
 51
89.9999
  0
LINE
  5
A75
330
A02
100
AcDbEntity
  8
Solid
100
AcDbLine
 10
100.249
 20
-8.89459
 30
0
 11
100.249
 21
-8.89459
 31
1.6
  0
LINE
  5
A76
330
A02
100
AcDbEntity
  8
Solid
100
AcDbLine
 10
-0.000115627
 20
-56.1497
 30
0
 11
-0.000115627
 21
-56.1497
 31
1.6
  0
LINE
  5
A77
330
A02
100
AcDbEntity
  8
Solid
100
AcDbLine
 10
-0.000115627
 20
-56.1497
 30
1.6
 11
-9.9e-05
 21
-0.749847
 31
1.6
  0
LINE
  5
A78
330
A02
100
AcDbEntity
  8
Solid
100
AcDbLine
 10
-9.9e-05
 20
-0.749847
 30
0
 11
-9.9e-05
 21
-0.749847
 31
1.6
  0
LINE
  5
A79
330
A02
100
AcDbEntity
  8
Solid
100
AcDbLine
 10
-0.000115627
 20
-56.1497
 30
0
 11
-9.9e-05
 21
-0.749847
 31
0
  0
LINE
  5
A7A
330
A02
100
AcDbEntity
  8
Solid
100
AcDbLine
 10
95.749
 20
-6.64463
 30
0
 11
95.749
 21
-6.64463
 31
1.6
  0
LINE
  5
A7B
330
A02
100
AcDbEntity
  8
Solid
100
AcDbLine
 10
95.749
 20
-6.64463
 30
1.6
 11
97.9989
 21
-6.64445
 31
1.6
  0
LINE
  5
A7C
330
A02
100
AcDbEntity
  8
Solid
100
AcDbLine
 10
97.9989
 20
-6.64445
 30
0
 11
97.9989
 21
-6.64445
 31
1.6
  0
LINE
  5
A7D
330
A02
100
AcDbEntity
  8
Solid
100
AcDbLine
 10
95.749
 20
-6.64463
 30
0
 11
97.9989
 21
-6.64445
 31
0
  0
ARC
  5
A7E
330
A02
100
AcDbEntity
  8
Solid
100
AcDbCircle
 10
0.99971
 20
-0.74982
 30
0
 40
0.99981
100
AcDbArc
 50
132.543
 51
-179.998
  0
LINE
  5
A7F
330
A02
100
AcDbEntity
  8
Solid
100
AcDbLine
 10
-9.9e-05
 20
-0.749847
 30
0
 11
-9.9e-05
 21
-0.749847
 31
1.6
  0
ARC
  5
A80
330
A02
100
AcDbEntity
  8
Solid
100
AcDbCircle
 10
0.99971
 20
-0.74982
 30
1.6
 40
0.99981
100
AcDbArc
 50
132.543
 51
-179.998
  0
LINE
  5
A81
330
A02
100
AcDbEntity
  8
Solid
100
AcDbLine
 10
0.323698
 20
-0.0131875
 30
0
 11
0.323698
 21
-0.0131875
 31
1.6
  0
ARC
  5
A82
330
A02
100
AcDbEntity
  8
Solid
100
AcDbCircle
 10
95.7489
 20
-6.14464
 30
0
 40
0.49999
100
AcDbArc
 50
179.999
 51
-89.9989
  0
LINE
  5
A83
330
A02
100
AcDbEntity
  8
Solid
100
AcDbLine
 10
95.749
 20
-6.64463
 30
0
 11
95.749
 21
-6.64463
 31
1.6
  0
ARC
  5
A84
330
A02
100
AcDbEntity
  8
Solid
100
AcDbCircle
 10
95.7489
 20
-6.14464
 30
1.6
 40
0.49999
100
AcDbArc
 50
179.999
 51
-89.9989
  0
LINE
  5
A85
330
A02
100
AcDbEntity
  8
Solid
100
AcDbLine
 10
95.249
 20
-6.14463
 30
0
 11
95.249
 21
-6.14463
 31
1.6
  0
ARC
  5
A86
330
A02
100
AcDbEntity
  8
Solid
100
AcDbCircle
 10
49.6242
 20
-54.4186
 30
0
 40
73.42
100
AcDbArc
 50
90
 51
132.182
  0
LINE
  5
A87
330
A02
100
AcDbEntity
  8
Solid
100
AcDbLine
 10
0.323698
 20
-0.0131875
 30
0
 11
0.323698
 21
-0.0131875
 31
1.6
  0
ARC
  5
A88
330
A02
100
AcDbEntity
  8
Solid
100
AcDbCircle
 10
49.6242
 20
-54.4186
 30
1.6
 40
73.42
100
AcDbArc
 50
90
 51
132.182
  0
LINE
  5
A89
330
A02
100
AcDbEntity
  8
Solid
100
AcDbLine
 10
49.6242
 20
19.0013
 30
0
 11
49.6242
 21
19.0013
 31
1.6
  0
LINE
  5
A8A
330
A02
100
AcDbEntity
  8
Solid
100
AcDbLine
 10
95.249
 20
8.05124
 30
0
 11
95.249
 21
8.05124
 31
1.6
  0
LINE
  5
A8B
330
A02
100
AcDbEntity
  8
Solid
100
AcDbLine
 10
95.249
 20
8.05124
 30
1.6
 11
95.249
 21
-6.14463
 31
1.6
  0
LINE
  5
A8C
330
A02
100
AcDbEntity
  8
Solid
100
AcDbLine
 10
95.249
 20
-6.14463
 30
0
 11
95.249
 21
-6.14463
 31
1.6
  0
LINE
  5
A8D
330
A02
100
AcDbEntity
  8
Solid
100
AcDbLine
 10
95.249
 20
8.05124
 30
0
 11
95.249
 21
-6.14463
 31
0
  0
ARC
  5
A8E
330
A02
100
AcDbEntity
  8
Solid
100
AcDbCircle
 10
49.6236
 20
-87.0465
 30
0
 40
106.048
100
AcDbArc
 50
64.8614
 51
89.9997
  0
LINE
  5
A8F
330
A02
100
AcDbEntity
  8
Solid
100
AcDbLine
 10
49.6242
 20
19.0013
 30
0
 11
49.6242
 21
19.0013
 31
1.6
  0
ARC
  5
A90
330
A02
100
AcDbEntity
  8
Solid
100
AcDbCircle
 10
49.6236
 20
-87.0465
 30
1.6
 40
106.048
100
AcDbArc
 50
64.8614
 51
89.9997
  0
LINE
  5
A91
330
A02
100
AcDbEntity
  8
Solid
100
AcDbLine
 10
94.6737
 20
8.95681
 30
0
 11
94.6737
 21
8.95681
 31
1.6
  0
ARC
  5
A92
330
A02
100
AcDbEntity
  8
Solid
100
AcDbCircle
 10
94.2485
 20
8.05122
 30
0
 40
1.00043
100
AcDbArc
 50
0.00114543
 51
64.8507
  0
LINE
  5
A93
330
A02
100
AcDbEntity
  8
Solid
100
AcDbLine
 10
94.6737
 20
8.95681
 30
0
 11
94.6737
 21
8.95681
 31
1.6
  0
ARC
  5
A94
330
A02
100
AcDbEntity
  8
Solid
100
AcDbCircle
 10
94.2485
 20
8.05122
 30
1.6
 40
1.00043
100
AcDbArc
 50
0.00114543
 51
64.8507
  0
LINE
  5
A95
330
A02
100
AcDbEntity
  8
Solid
100
AcDbLine
 10
95.249
 20
8.05124
 30
0
 11
95.249
 21
8.05124
 31
1.6
  0
CIRCLE
  5
A96
330
A02
100
AcDbEntity
  8
Solid
100
AcDbCircle
 10
86.4662
 20
-60.2069
 40
1.1
  0
LINE
  5
A97
330
A02
100
AcDbEntity
  8
Solid
100
AcDbLine
 10
87.5662
 20
-60.2069
 30
0
 11
87.5662
 21
-60.2069
 31
1.6
  0
CIRCLE
  5
A98
330
A02
100
AcDbEntity
  8
Solid
100
AcDbCircle
 10
86.4662
 20
-60.2069
 40
1.1
  0
LINE
  5
A99
330
A02
100
AcDbEntity
  8
Solid
100
AcDbLine
 10
87.5662
 20
-60.2069
 30
0
 11
87.5662
 21
-60.2069
 31
1.6
  0
CIRCLE
  5
A9A
330
A02
100
AcDbEntity
  8
Solid
100
AcDbCircle
 10
57.149
 20
-41.924
 40
1.1
  0
LINE
  5
A9B
330
A02
100
AcDbEntity
  8
Solid
100
AcDbLine
 10
58.249
 20
-41.924
 30
0
 11
58.249
 21
-41.924
 31
1.6
  0
CIRCLE
  5
A9C
330
A02
100
AcDbEntity
  8
Solid
100
AcDbCircle
 10
57.149
 20
-41.924
 40
1.1
  0
LINE
  5
A9D
330
A02
100
AcDbEntity
  8
Solid
100
AcDbLine
 10
58.249
 20
-41.924
 30
0
 11
58.249
 21
-41.924
 31
1.6
  0
CIRCLE
  5
A9E
330
A02
100
AcDbEntity
  8
Solid
100
AcDbCircle
 10
19.0495
 20
-45.1496
 40
1.1
  0
LINE
  5
A9F
330
A02
100
AcDbEntity
  8
Solid
100
AcDbLine
 10
20.1495
 20
-45.1496
 30
0
 11
20.1495
 21
-45.1496
 31
1.6
  0
CIRCLE
  5
AA0
330
A02
100
AcDbEntity
  8
Solid
100
AcDbCircle
 10
19.0495
 20
-45.1496
 40
1.1
  0
LINE
  5
AA1
330
A02
100
AcDbEntity
  8
Solid
100
AcDbLine
 10
20.1495
 20
-45.1496
 30
0
 11
20.1495
 21
-45.1496
 31
1.6
  0
CIRCLE
  5
AA2
330
A02
100
AcDbEntity
  8
Solid
100
AcDbCircle
 10
76.1995
 20
-7.5491
 40
1.1
  0
LINE
  5
AA3
330
A02
100
AcDbEntity
  8
Solid
100
AcDbLine
 10
77.2995
 20
-7.5491
 30
0
 11
77.2995
 21
-7.5491
 31
1.6
  0
CIRCLE
  5
AA4
330
A02
100
AcDbEntity
  8
Solid
100
AcDbCircle
 10
76.1995
 20
-7.5491
 40
1.1
  0
LINE
  5
AA5
330
A02
100
AcDbEntity
  8
Solid
100
AcDbLine
 10
77.2995
 20
-7.5491
 30
0
 11
77.2995
 21
-7.5491
 31
1.6
  0
CIRCLE
  5
AA6
330
A02
100
AcDbEntity
  8
Solid
100
AcDbCircle
 10
19.0495
 20
-7.0496
 40
1.1
  0
LINE
  5
AA7
330
A02
100
AcDbEntity
  8
Solid
100
AcDbLine
 10
20.1495
 20
-7.0496
 30
0
 11
20.1495
 21
-7.0496
 31
1.6
  0
CIRCLE
  5
AA8
330
A02
100
AcDbEntity
  8
Solid
100
AcDbCircle
 10
19.0495
 20
-7.0496
 40
1.1
  0
LINE
  5
AA9
330
A02
100
AcDbEntity
  8
Solid
100
AcDbLine
 10
20.1495
 20
-7.0496
 30
0
 11
20.1495
 21
-7.0496
 31
1.6
  0
ENDSEC
  0
SECTION
  2
OBJECTS
  0
DICTIONARY
  5
F000
330
0
100
AcDbDictionary
  3
ACAD_GROUP
350
F001
  0
DICTIONARY
  5
F001
330
F000
100
AcDbDictionary
  0
ENDSEC
  0
EOF