G04 #@! TF.GenerationSoftware,KiCad,Pcbnew,7.0.2-0*
G04 #@! TF.CreationDate,2023-05-28T19:55:49+02:00*
G04 #@! TF.ProjectId,arkenswoop,61726b65-6e73-4776-9f6f-702e6b696361,0.4.2*
G04 #@! TF.SameCoordinates,Original*
G04 #@! TF.FileFunction,Profile,NP*
%FSLAX46Y46*%
G04 Gerber Fmt 4.6, Leading zero omitted, Abs format (unit mm)*
G04 Created by KiCad (PCBNEW 7.0.2-0) date 2023-05-28 19:55:49*
%MOMM*%
%LPD*%
G01*
G04 APERTURE LIST*
G04 #@! TA.AperFunction,Profile*
%ADD10C,0.050000*%
G04 #@! TD*
G04 #@! TA.AperFunction,Profile*
%ADD11C,0.100000*%
G04 #@! TD*
G04 APERTURE END LIST*
D10*
X63279167Y-81044010D02*
X63269824Y-127424999D01*
X151150000Y-78125000D02*
X151150000Y-72125000D01*
X171385630Y-81989604D02*
X171385883Y-121456747D01*
X171385638Y-81989604D02*
G75*
G03*
X169385641Y-79989462I-2000138J4D01*
G01*
X131950000Y-67825000D02*
X117800000Y-67825000D01*
X116054889Y-63057298D02*
X116054889Y-66030865D01*
X114309778Y-61263163D02*
X101025000Y-61275000D01*
X133200000Y-69075000D02*
G75*
G03*
X131950000Y-67825000I-1250000J0D01*
G01*
X133200000Y-69075000D02*
G75*
G03*
X134450000Y-70325000I1250000J0D01*
G01*
X80677686Y-69000074D02*
X80673519Y-77531064D01*
X101025000Y-61274978D02*
G75*
G03*
X99230866Y-63020111I0J-1794822D01*
G01*
X166885323Y-83739429D02*
G75*
G03*
X167385329Y-83239378I-23J500029D01*
G01*
X115235769Y-136194832D02*
X103554156Y-136294630D01*
X78875000Y-79288834D02*
X65083651Y-79288834D01*
X167385329Y-83239378D02*
X167385505Y-81989453D01*
X82096860Y-129229483D02*
X65025000Y-129229483D01*
X156698895Y-149616311D02*
X149229607Y-145303912D01*
X116054924Y-63057298D02*
G75*
G03*
X114309778Y-61263164I-1794824J-2D01*
G01*
X152887029Y-80012186D02*
X154604315Y-79989915D01*
X156604285Y-81990048D02*
G75*
G03*
X154604315Y-79989915I-2000085J48D01*
G01*
X151150022Y-72125000D02*
G75*
G03*
X149404889Y-70330866I-1794822J0D01*
G01*
X169275518Y-129333217D02*
G75*
G03*
X171385883Y-121456747I-13641718J7876017D01*
G01*
X149404889Y-70330865D02*
X134450000Y-70325000D01*
X78875000Y-79288891D02*
G75*
G03*
X80673519Y-77531064I-8700J1807891D01*
G01*
X149229606Y-145303913D02*
G75*
G03*
X115235769Y-136194832I-33993836J-58875617D01*
G01*
X156604299Y-81990048D02*
X156604480Y-83239980D01*
X156698897Y-149616307D02*
G75*
G03*
X157723413Y-149341792I375003J649507D01*
G01*
X156604517Y-83239980D02*
G75*
G03*
X157104479Y-83739983I499983J-20D01*
G01*
X65083651Y-79288875D02*
G75*
G03*
X63279167Y-81044010I-51J-1805125D01*
G01*
X169385641Y-79989405D02*
G75*
G03*
X167385505Y-81989453I-41J-2000095D01*
G01*
X97441349Y-67244772D02*
G75*
G03*
X99235483Y-65499713I51J1794772D01*
G01*
X99230865Y-63020111D02*
X99235484Y-65499713D01*
X157723414Y-149341792D02*
X169275507Y-129333211D01*
X116054912Y-66030865D02*
G75*
G03*
X117800000Y-67825000I1794788J-35D01*
G01*
X97441349Y-67244824D02*
X82482170Y-67244898D01*
X151150047Y-78125003D02*
G75*
G03*
X152887029Y-80012185I1786553J-98597D01*
G01*
X63269825Y-127424999D02*
G75*
G03*
X65025000Y-129229482I1805175J-1D01*
G01*
X157104479Y-83739983D02*
X166885323Y-83739379D01*
X103554156Y-136294630D02*
G75*
G03*
X82096860Y-129229483I-21829156J-30180370D01*
G01*
X82482170Y-67244893D02*
G75*
G03*
X80677686Y-69000074I30J-1805207D01*
G01*
D11*
X72929541Y-83899973D02*
X72929541Y-80899973D01*
X71929541Y-83899973D02*
X70529541Y-83899973D01*
X71929541Y-80899973D02*
X70529541Y-80899973D01*
X69529541Y-80899973D02*
X69529541Y-83899973D01*
X71929541Y-83899973D02*
G75*
G03*
X72929541Y-83899973I500000J0D01*
G01*
X72929541Y-80899973D02*
G75*
G03*
X71929541Y-80899973I-500000J0D01*
G01*
X69529541Y-83899973D02*
G75*
G03*
X70529541Y-83899973I500000J0D01*
G01*
X70529541Y-80899973D02*
G75*
G03*
X69529541Y-80899973I-500000J0D01*
G01*
D10*
X107987509Y-119620094D02*
X107987509Y-117820094D01*
X108283509Y-119920094D02*
X122383509Y-119920094D01*
X122383509Y-117520094D02*
X108287509Y-117520094D01*
X122683509Y-119620094D02*
X122683509Y-117820094D01*
X108287509Y-117520094D02*
G75*
G03*
X107987509Y-117820094I0J-300000D01*
G01*
X107987509Y-119620094D02*
G75*
G03*
X108287509Y-119920094I300000J0D01*
G01*
X122683509Y-117820094D02*
G75*
G03*
X122383509Y-117520094I-300000J0D01*
G01*
X122383509Y-119920094D02*
G75*
G03*
X122683509Y-119620094I0J300000D01*
G01*
D11*
X144929547Y-74899469D02*
X144929547Y-71899469D01*
X143929547Y-74899469D02*
X142529547Y-74899469D01*
X143929547Y-71899469D02*
X142529547Y-71899469D01*
X141529547Y-71899469D02*
X141529547Y-74899469D01*
X143929547Y-74899469D02*
G75*
G03*
X144929547Y-74899469I500000J0D01*
G01*
X144929547Y-71899469D02*
G75*
G03*
X143929547Y-71899469I-500000J0D01*
G01*
X141529547Y-74899469D02*
G75*
G03*
X142529547Y-74899469I500000J0D01*
G01*
X142529547Y-71899469D02*
G75*
G03*
X141529547Y-71899469I-500000J0D01*
G01*
X90929543Y-71899972D02*
X90929543Y-68899972D01*
X89929543Y-71899972D02*
X88529543Y-71899972D01*
X89929543Y-68899972D02*
X88529543Y-68899972D01*
X87529543Y-68899972D02*
X87529543Y-71899972D01*
X89929543Y-71899972D02*
G75*
G03*
X90929543Y-71899972I500000J0D01*
G01*
X90929543Y-68899972D02*
G75*
G03*
X89929543Y-68899972I-500000J0D01*
G01*
X87529543Y-71899972D02*
G75*
G03*
X88529543Y-71899972I500000J0D01*
G01*
X88529543Y-68899972D02*
G75*
G03*
X87529543Y-68899972I-500000J0D01*
G01*
X108929547Y-99899471D02*
X108929547Y-96899471D01*
X107929547Y-99899471D02*
X106529547Y-99899471D01*
X107929547Y-96899471D02*
X106529547Y-96899471D01*
X105529547Y-96899471D02*
X105529547Y-99899471D01*
X107929547Y-99899471D02*
G75*
G03*
X108929547Y-99899471I500000J0D01*
G01*
X108929547Y-96899471D02*
G75*
G03*
X107929547Y-96899471I-500000J0D01*
G01*
X105529547Y-99899471D02*
G75*
G03*
X106529547Y-99899471I500000J0D01*
G01*
X106529547Y-96899471D02*
G75*
G03*
X105529547Y-96899471I-500000J0D01*
G01*
X108929543Y-65899473D02*
X108929543Y-62899473D01*
X107929543Y-65899473D02*
X106529543Y-65899473D01*
X107929543Y-62899473D02*
X106529543Y-62899473D01*
X105529543Y-62899473D02*
X105529543Y-65899473D01*
X107929543Y-65899473D02*
G75*
G03*
X108929543Y-65899473I500000J0D01*
G01*
X108929543Y-62899473D02*
G75*
G03*
X107929543Y-62899473I-500000J0D01*
G01*
X105529543Y-65899473D02*
G75*
G03*
X106529543Y-65899473I500000J0D01*
G01*
X106529543Y-62899473D02*
G75*
G03*
X105529543Y-62899473I-500000J0D01*
G01*
X144929547Y-91899475D02*
X144929547Y-88899475D01*
X143929547Y-91899475D02*
X142529547Y-91899475D01*
X143929547Y-88899475D02*
X142529547Y-88899475D01*
X141529547Y-88899475D02*
X141529547Y-91899475D01*
X143929547Y-91899475D02*
G75*
G03*
X144929547Y-91899475I500000J0D01*
G01*
X144929547Y-88899475D02*
G75*
G03*
X143929547Y-88899475I-500000J0D01*
G01*
X141529547Y-91899475D02*
G75*
G03*
X142529547Y-91899475I500000J0D01*
G01*
X142529547Y-88899475D02*
G75*
G03*
X141529547Y-88899475I-500000J0D01*
G01*
X156808753Y-135575567D02*
X158308753Y-132977490D01*
X155942728Y-135075567D02*
X154730292Y-134375567D01*
X157442728Y-132477490D02*
X156230292Y-131777490D01*
X155364267Y-131277490D02*
X153864267Y-133875567D01*
X155942727Y-135075567D02*
G75*
G03*
X156808753Y-135575567I433013J-250000D01*
G01*
X158308752Y-132977489D02*
G75*
G03*
X157442728Y-132477490I-433012J249999D01*
G01*
X153864268Y-133875568D02*
G75*
G03*
X154730292Y-134375567I433012J-249999D01*
G01*
X156230293Y-131777490D02*
G75*
G03*
X155364267Y-131277490I-433013J250000D01*
G01*
X108929545Y-82899469D02*
X108929545Y-79899469D01*
X107929545Y-82899469D02*
X106529545Y-82899469D01*
X107929545Y-79899469D02*
X106529545Y-79899469D01*
X105529545Y-79899469D02*
X105529545Y-82899469D01*
X107929545Y-82899469D02*
G75*
G03*
X108929545Y-82899469I500000J0D01*
G01*
X108929545Y-79899469D02*
G75*
G03*
X107929545Y-79899469I-500000J0D01*
G01*
X105529545Y-82899469D02*
G75*
G03*
X106529545Y-82899469I500000J0D01*
G01*
X106529545Y-79899469D02*
G75*
G03*
X105529545Y-79899469I-500000J0D01*
G01*
X72929545Y-117899972D02*
X72929545Y-114899972D01*
X71929545Y-117899972D02*
X70529545Y-117899972D01*
X71929545Y-114899972D02*
X70529545Y-114899972D01*
X69529545Y-114899972D02*
X69529545Y-117899972D01*
X71929545Y-117899972D02*
G75*
G03*
X72929545Y-117899972I500000J0D01*
G01*
X72929545Y-114899972D02*
G75*
G03*
X71929545Y-114899972I-500000J0D01*
G01*
X69529545Y-117899972D02*
G75*
G03*
X70529545Y-117899972I500000J0D01*
G01*
X70529545Y-114899972D02*
G75*
G03*
X69529545Y-114899972I-500000J0D01*
G01*
X137635116Y-127152973D02*
X138411573Y-124255195D01*
X136669190Y-126894153D02*
X135316894Y-126531807D01*
X137445647Y-123996376D02*
X136093351Y-123634029D01*
X135127425Y-123375210D02*
X134350968Y-126272988D01*
X136669190Y-126894153D02*
G75*
G03*
X137635116Y-127152973I482963J-129410D01*
G01*
X138411572Y-124255195D02*
G75*
G03*
X137445648Y-123996376I-482962J129410D01*
G01*
X134350968Y-126272988D02*
G75*
G03*
X135316894Y-126531807I482963J-129409D01*
G01*
X136093351Y-123634029D02*
G75*
G03*
X135127425Y-123375210I-482963J129409D01*
G01*
X126928545Y-106399471D02*
X126928545Y-103399471D01*
X125928545Y-106399471D02*
X124528545Y-106399471D01*
X125928545Y-103399471D02*
X124528545Y-103399471D01*
X123528545Y-103399471D02*
X123528545Y-106399471D01*
X125928545Y-106399471D02*
G75*
G03*
X126928545Y-106399471I500000J0D01*
G01*
X126928545Y-103399471D02*
G75*
G03*
X125928545Y-103399471I-500000J0D01*
G01*
X123528545Y-106399471D02*
G75*
G03*
X124528545Y-106399471I500000J0D01*
G01*
X124528545Y-103399471D02*
G75*
G03*
X123528545Y-103399471I-500000J0D01*
G01*
X144929550Y-108899470D02*
X144929550Y-105899470D01*
X143929550Y-108899470D02*
X142529550Y-108899470D01*
X143929550Y-105899470D02*
X142529550Y-105899470D01*
X141529550Y-105899470D02*
X141529550Y-108899470D01*
X143929550Y-108899470D02*
G75*
G03*
X144929550Y-108899470I500000J0D01*
G01*
X144929550Y-105899470D02*
G75*
G03*
X143929550Y-105899470I-500000J0D01*
G01*
X141529550Y-108899470D02*
G75*
G03*
X142529550Y-108899470I500000J0D01*
G01*
X142529550Y-105899470D02*
G75*
G03*
X141529550Y-105899470I-500000J0D01*
G01*
X126928546Y-89399470D02*
X126928546Y-86399470D01*
X125928546Y-89399470D02*
X124528546Y-89399470D01*
X125928546Y-86399470D02*
X124528546Y-86399470D01*
X123528546Y-86399470D02*
X123528546Y-89399470D01*
X125928546Y-89399470D02*
G75*
G03*
X126928546Y-89399470I500000J0D01*
G01*
X126928546Y-86399470D02*
G75*
G03*
X125928546Y-86399470I-500000J0D01*
G01*
X123528546Y-89399470D02*
G75*
G03*
X124528546Y-89399470I500000J0D01*
G01*
X124528546Y-86399470D02*
G75*
G03*
X123528546Y-86399470I-500000J0D01*
G01*
X126928546Y-72399475D02*
X126928546Y-69399475D01*
X125928546Y-72399475D02*
X124528546Y-72399475D01*
X125928546Y-69399475D02*
X124528546Y-69399475D01*
X123528546Y-69399475D02*
X123528546Y-72399475D01*
X125928546Y-72399475D02*
G75*
G03*
X126928546Y-72399475I500000J0D01*
G01*
X126928546Y-69399475D02*
G75*
G03*
X125928546Y-69399475I-500000J0D01*
G01*
X123528546Y-72399475D02*
G75*
G03*
X124528546Y-72399475I500000J0D01*
G01*
X124528546Y-69399475D02*
G75*
G03*
X123528546Y-69399475I-500000J0D01*
G01*
X90929546Y-88899968D02*
X90929546Y-85899968D01*
X89929546Y-88899968D02*
X88529546Y-88899968D01*
X89929546Y-85899968D02*
X88529546Y-85899968D01*
X87529546Y-85899968D02*
X87529546Y-88899968D01*
X89929546Y-88899968D02*
G75*
G03*
X90929546Y-88899968I500000J0D01*
G01*
X90929546Y-85899968D02*
G75*
G03*
X89929546Y-85899968I-500000J0D01*
G01*
X87529546Y-88899968D02*
G75*
G03*
X88529546Y-88899968I500000J0D01*
G01*
X88529546Y-85899968D02*
G75*
G03*
X87529546Y-85899968I-500000J0D01*
G01*
X72929543Y-100899967D02*
X72929543Y-97899967D01*
X71929543Y-100899967D02*
X70529543Y-100899967D01*
X71929543Y-97899967D02*
X70529543Y-97899967D01*
X69529543Y-97899967D02*
X69529543Y-100899967D01*
X71929543Y-100899967D02*
G75*
G03*
X72929543Y-100899967I500000J0D01*
G01*
X72929543Y-97899967D02*
G75*
G03*
X71929543Y-97899967I-500000J0D01*
G01*
X69529543Y-100899967D02*
G75*
G03*
X70529543Y-100899967I500000J0D01*
G01*
X70529543Y-97899967D02*
G75*
G03*
X69529543Y-97899967I-500000J0D01*
G01*
X90929549Y-105899974D02*
X90929549Y-102899974D01*
X89929549Y-105899974D02*
X88529549Y-105899974D01*
X89929549Y-102899974D02*
X88529549Y-102899974D01*
X87529549Y-102899974D02*
X87529549Y-105899974D01*
X89929549Y-105899974D02*
G75*
G03*
X90929549Y-105899974I500000J0D01*
G01*
X90929549Y-102899974D02*
G75*
G03*
X89929549Y-102899974I-500000J0D01*
G01*
X87529549Y-105899974D02*
G75*
G03*
X88529549Y-105899974I500000J0D01*
G01*
X88529549Y-102899974D02*
G75*
G03*
X87529549Y-102899974I-500000J0D01*
G01*
M02*
