G04 #@! TF.GenerationSoftware,KiCad,Pcbnew,7.0.2-0*
G04 #@! TF.CreationDate,2023-05-28T19:55:49+02:00*
G04 #@! TF.ProjectId,arkenswoop,61726b65-6e73-4776-9f6f-702e6b696361,0.4.2*
G04 #@! TF.SameCoordinates,Original*
G04 #@! TF.FileFunction,Legend,Top*
G04 #@! TF.FilePolarity,Positive*
%FSLAX46Y46*%
G04 Gerber Fmt 4.6, Leading zero omitted, Abs format (unit mm)*
G04 Created by KiCad (PCBNEW 7.0.2-0) date 2023-05-28 19:55:49*
%MOMM*%
%LPD*%
G01*
G04 APERTURE LIST*
%ADD10C,0.100000*%
%ADD11C,0.080000*%
%ADD12C,0.150000*%
%ADD13C,0.120000*%
G04 APERTURE END LIST*
D10*
X162681850Y-113861558D02*
X162681850Y-113480605D01*
X162910422Y-113937748D02*
X162110422Y-113671081D01*
X162110422Y-113671081D02*
X162910422Y-113404415D01*
X162910422Y-113137748D02*
X162377088Y-113137748D01*
X162529469Y-113137748D02*
X162453279Y-113099653D01*
X162453279Y-113099653D02*
X162415184Y-113061558D01*
X162415184Y-113061558D02*
X162377088Y-112985367D01*
X162377088Y-112985367D02*
X162377088Y-112909177D01*
X162910422Y-112642510D02*
X162110422Y-112642510D01*
X162605660Y-112566320D02*
X162910422Y-112337748D01*
X162377088Y-112337748D02*
X162681850Y-112642510D01*
X162872327Y-111690129D02*
X162910422Y-111766320D01*
X162910422Y-111766320D02*
X162910422Y-111918701D01*
X162910422Y-111918701D02*
X162872327Y-111994891D01*
X162872327Y-111994891D02*
X162796136Y-112032987D01*
X162796136Y-112032987D02*
X162491374Y-112032987D01*
X162491374Y-112032987D02*
X162415184Y-111994891D01*
X162415184Y-111994891D02*
X162377088Y-111918701D01*
X162377088Y-111918701D02*
X162377088Y-111766320D01*
X162377088Y-111766320D02*
X162415184Y-111690129D01*
X162415184Y-111690129D02*
X162491374Y-111652034D01*
X162491374Y-111652034D02*
X162567565Y-111652034D01*
X162567565Y-111652034D02*
X162643755Y-112032987D01*
X162377088Y-111309177D02*
X162910422Y-111309177D01*
X162453279Y-111309177D02*
X162415184Y-111271082D01*
X162415184Y-111271082D02*
X162377088Y-111194892D01*
X162377088Y-111194892D02*
X162377088Y-111080606D01*
X162377088Y-111080606D02*
X162415184Y-111004415D01*
X162415184Y-111004415D02*
X162491374Y-110966320D01*
X162491374Y-110966320D02*
X162910422Y-110966320D01*
X162872327Y-110623463D02*
X162910422Y-110547272D01*
X162910422Y-110547272D02*
X162910422Y-110394891D01*
X162910422Y-110394891D02*
X162872327Y-110318701D01*
X162872327Y-110318701D02*
X162796136Y-110280605D01*
X162796136Y-110280605D02*
X162758041Y-110280605D01*
X162758041Y-110280605D02*
X162681850Y-110318701D01*
X162681850Y-110318701D02*
X162643755Y-110394891D01*
X162643755Y-110394891D02*
X162643755Y-110509177D01*
X162643755Y-110509177D02*
X162605660Y-110585367D01*
X162605660Y-110585367D02*
X162529469Y-110623463D01*
X162529469Y-110623463D02*
X162491374Y-110623463D01*
X162491374Y-110623463D02*
X162415184Y-110585367D01*
X162415184Y-110585367D02*
X162377088Y-110509177D01*
X162377088Y-110509177D02*
X162377088Y-110394891D01*
X162377088Y-110394891D02*
X162415184Y-110318701D01*
X162377088Y-110013939D02*
X162910422Y-109861558D01*
X162910422Y-109861558D02*
X162529469Y-109709177D01*
X162529469Y-109709177D02*
X162910422Y-109556796D01*
X162910422Y-109556796D02*
X162377088Y-109404415D01*
X162910422Y-108985368D02*
X162872327Y-109061558D01*
X162872327Y-109061558D02*
X162834231Y-109099653D01*
X162834231Y-109099653D02*
X162758041Y-109137749D01*
X162758041Y-109137749D02*
X162529469Y-109137749D01*
X162529469Y-109137749D02*
X162453279Y-109099653D01*
X162453279Y-109099653D02*
X162415184Y-109061558D01*
X162415184Y-109061558D02*
X162377088Y-108985368D01*
X162377088Y-108985368D02*
X162377088Y-108871082D01*
X162377088Y-108871082D02*
X162415184Y-108794891D01*
X162415184Y-108794891D02*
X162453279Y-108756796D01*
X162453279Y-108756796D02*
X162529469Y-108718701D01*
X162529469Y-108718701D02*
X162758041Y-108718701D01*
X162758041Y-108718701D02*
X162834231Y-108756796D01*
X162834231Y-108756796D02*
X162872327Y-108794891D01*
X162872327Y-108794891D02*
X162910422Y-108871082D01*
X162910422Y-108871082D02*
X162910422Y-108985368D01*
X162910422Y-108261558D02*
X162872327Y-108337748D01*
X162872327Y-108337748D02*
X162834231Y-108375843D01*
X162834231Y-108375843D02*
X162758041Y-108413939D01*
X162758041Y-108413939D02*
X162529469Y-108413939D01*
X162529469Y-108413939D02*
X162453279Y-108375843D01*
X162453279Y-108375843D02*
X162415184Y-108337748D01*
X162415184Y-108337748D02*
X162377088Y-108261558D01*
X162377088Y-108261558D02*
X162377088Y-108147272D01*
X162377088Y-108147272D02*
X162415184Y-108071081D01*
X162415184Y-108071081D02*
X162453279Y-108032986D01*
X162453279Y-108032986D02*
X162529469Y-107994891D01*
X162529469Y-107994891D02*
X162758041Y-107994891D01*
X162758041Y-107994891D02*
X162834231Y-108032986D01*
X162834231Y-108032986D02*
X162872327Y-108071081D01*
X162872327Y-108071081D02*
X162910422Y-108147272D01*
X162910422Y-108147272D02*
X162910422Y-108261558D01*
X162377088Y-107652033D02*
X163177088Y-107652033D01*
X162415184Y-107652033D02*
X162377088Y-107575843D01*
X162377088Y-107575843D02*
X162377088Y-107423462D01*
X162377088Y-107423462D02*
X162415184Y-107347271D01*
X162415184Y-107347271D02*
X162453279Y-107309176D01*
X162453279Y-107309176D02*
X162529469Y-107271081D01*
X162529469Y-107271081D02*
X162758041Y-107271081D01*
X162758041Y-107271081D02*
X162834231Y-107309176D01*
X162834231Y-107309176D02*
X162872327Y-107347271D01*
X162872327Y-107347271D02*
X162910422Y-107423462D01*
X162910422Y-107423462D02*
X162910422Y-107575843D01*
X162910422Y-107575843D02*
X162872327Y-107652033D01*
X162377088Y-106394890D02*
X162910422Y-106204414D01*
X162910422Y-106204414D02*
X162377088Y-106013937D01*
X162110422Y-105556794D02*
X162110422Y-105480604D01*
X162110422Y-105480604D02*
X162148517Y-105404413D01*
X162148517Y-105404413D02*
X162186612Y-105366318D01*
X162186612Y-105366318D02*
X162262803Y-105328223D01*
X162262803Y-105328223D02*
X162415184Y-105290128D01*
X162415184Y-105290128D02*
X162605660Y-105290128D01*
X162605660Y-105290128D02*
X162758041Y-105328223D01*
X162758041Y-105328223D02*
X162834231Y-105366318D01*
X162834231Y-105366318D02*
X162872327Y-105404413D01*
X162872327Y-105404413D02*
X162910422Y-105480604D01*
X162910422Y-105480604D02*
X162910422Y-105556794D01*
X162910422Y-105556794D02*
X162872327Y-105632985D01*
X162872327Y-105632985D02*
X162834231Y-105671080D01*
X162834231Y-105671080D02*
X162758041Y-105709175D01*
X162758041Y-105709175D02*
X162605660Y-105747271D01*
X162605660Y-105747271D02*
X162415184Y-105747271D01*
X162415184Y-105747271D02*
X162262803Y-105709175D01*
X162262803Y-105709175D02*
X162186612Y-105671080D01*
X162186612Y-105671080D02*
X162148517Y-105632985D01*
X162148517Y-105632985D02*
X162110422Y-105556794D01*
X162834231Y-104947270D02*
X162872327Y-104909175D01*
X162872327Y-104909175D02*
X162910422Y-104947270D01*
X162910422Y-104947270D02*
X162872327Y-104985366D01*
X162872327Y-104985366D02*
X162834231Y-104947270D01*
X162834231Y-104947270D02*
X162910422Y-104947270D01*
X162377088Y-104223461D02*
X162910422Y-104223461D01*
X162072327Y-104413937D02*
X162643755Y-104604414D01*
X162643755Y-104604414D02*
X162643755Y-104109175D01*
X162834231Y-103804413D02*
X162872327Y-103766318D01*
X162872327Y-103766318D02*
X162910422Y-103804413D01*
X162910422Y-103804413D02*
X162872327Y-103842509D01*
X162872327Y-103842509D02*
X162834231Y-103804413D01*
X162834231Y-103804413D02*
X162910422Y-103804413D01*
X162186612Y-103461557D02*
X162148517Y-103423461D01*
X162148517Y-103423461D02*
X162110422Y-103347271D01*
X162110422Y-103347271D02*
X162110422Y-103156795D01*
X162110422Y-103156795D02*
X162148517Y-103080604D01*
X162148517Y-103080604D02*
X162186612Y-103042509D01*
X162186612Y-103042509D02*
X162262803Y-103004414D01*
X162262803Y-103004414D02*
X162338993Y-103004414D01*
X162338993Y-103004414D02*
X162453279Y-103042509D01*
X162453279Y-103042509D02*
X162910422Y-103499652D01*
X162910422Y-103499652D02*
X162910422Y-103004414D01*
X164206422Y-113823462D02*
X163406422Y-113823462D01*
X164206422Y-113480605D02*
X163787374Y-113480605D01*
X163787374Y-113480605D02*
X163711184Y-113518700D01*
X163711184Y-113518700D02*
X163673088Y-113594891D01*
X163673088Y-113594891D02*
X163673088Y-113709177D01*
X163673088Y-113709177D02*
X163711184Y-113785367D01*
X163711184Y-113785367D02*
X163749279Y-113823462D01*
X163673088Y-113213938D02*
X163673088Y-112909176D01*
X163406422Y-113099652D02*
X164092136Y-113099652D01*
X164092136Y-113099652D02*
X164168327Y-113061557D01*
X164168327Y-113061557D02*
X164206422Y-112985367D01*
X164206422Y-112985367D02*
X164206422Y-112909176D01*
X163673088Y-112756795D02*
X163673088Y-112452033D01*
X163406422Y-112642509D02*
X164092136Y-112642509D01*
X164092136Y-112642509D02*
X164168327Y-112604414D01*
X164168327Y-112604414D02*
X164206422Y-112528224D01*
X164206422Y-112528224D02*
X164206422Y-112452033D01*
X163673088Y-112185366D02*
X164473088Y-112185366D01*
X163711184Y-112185366D02*
X163673088Y-112109176D01*
X163673088Y-112109176D02*
X163673088Y-111956795D01*
X163673088Y-111956795D02*
X163711184Y-111880604D01*
X163711184Y-111880604D02*
X163749279Y-111842509D01*
X163749279Y-111842509D02*
X163825469Y-111804414D01*
X163825469Y-111804414D02*
X164054041Y-111804414D01*
X164054041Y-111804414D02*
X164130231Y-111842509D01*
X164130231Y-111842509D02*
X164168327Y-111880604D01*
X164168327Y-111880604D02*
X164206422Y-111956795D01*
X164206422Y-111956795D02*
X164206422Y-112109176D01*
X164206422Y-112109176D02*
X164168327Y-112185366D01*
X164168327Y-111499652D02*
X164206422Y-111423461D01*
X164206422Y-111423461D02*
X164206422Y-111271080D01*
X164206422Y-111271080D02*
X164168327Y-111194890D01*
X164168327Y-111194890D02*
X164092136Y-111156794D01*
X164092136Y-111156794D02*
X164054041Y-111156794D01*
X164054041Y-111156794D02*
X163977850Y-111194890D01*
X163977850Y-111194890D02*
X163939755Y-111271080D01*
X163939755Y-111271080D02*
X163939755Y-111385366D01*
X163939755Y-111385366D02*
X163901660Y-111461556D01*
X163901660Y-111461556D02*
X163825469Y-111499652D01*
X163825469Y-111499652D02*
X163787374Y-111499652D01*
X163787374Y-111499652D02*
X163711184Y-111461556D01*
X163711184Y-111461556D02*
X163673088Y-111385366D01*
X163673088Y-111385366D02*
X163673088Y-111271080D01*
X163673088Y-111271080D02*
X163711184Y-111194890D01*
X164130231Y-110813937D02*
X164168327Y-110775842D01*
X164168327Y-110775842D02*
X164206422Y-110813937D01*
X164206422Y-110813937D02*
X164168327Y-110852033D01*
X164168327Y-110852033D02*
X164130231Y-110813937D01*
X164130231Y-110813937D02*
X164206422Y-110813937D01*
X163711184Y-110813937D02*
X163749279Y-110775842D01*
X163749279Y-110775842D02*
X163787374Y-110813937D01*
X163787374Y-110813937D02*
X163749279Y-110852033D01*
X163749279Y-110852033D02*
X163711184Y-110813937D01*
X163711184Y-110813937D02*
X163787374Y-110813937D01*
X163368327Y-109861557D02*
X164396898Y-110547271D01*
X163368327Y-109023462D02*
X164396898Y-109709176D01*
X163673088Y-108413938D02*
X164320707Y-108413938D01*
X164320707Y-108413938D02*
X164396898Y-108452033D01*
X164396898Y-108452033D02*
X164434993Y-108490129D01*
X164434993Y-108490129D02*
X164473088Y-108566319D01*
X164473088Y-108566319D02*
X164473088Y-108680605D01*
X164473088Y-108680605D02*
X164434993Y-108756795D01*
X164168327Y-108413938D02*
X164206422Y-108490129D01*
X164206422Y-108490129D02*
X164206422Y-108642510D01*
X164206422Y-108642510D02*
X164168327Y-108718700D01*
X164168327Y-108718700D02*
X164130231Y-108756795D01*
X164130231Y-108756795D02*
X164054041Y-108794891D01*
X164054041Y-108794891D02*
X163825469Y-108794891D01*
X163825469Y-108794891D02*
X163749279Y-108756795D01*
X163749279Y-108756795D02*
X163711184Y-108718700D01*
X163711184Y-108718700D02*
X163673088Y-108642510D01*
X163673088Y-108642510D02*
X163673088Y-108490129D01*
X163673088Y-108490129D02*
X163711184Y-108413938D01*
X164206422Y-108032985D02*
X163673088Y-108032985D01*
X163406422Y-108032985D02*
X163444517Y-108071081D01*
X163444517Y-108071081D02*
X163482612Y-108032985D01*
X163482612Y-108032985D02*
X163444517Y-107994890D01*
X163444517Y-107994890D02*
X163406422Y-108032985D01*
X163406422Y-108032985D02*
X163482612Y-108032985D01*
X163673088Y-107766319D02*
X163673088Y-107461557D01*
X163406422Y-107652033D02*
X164092136Y-107652033D01*
X164092136Y-107652033D02*
X164168327Y-107613938D01*
X164168327Y-107613938D02*
X164206422Y-107537748D01*
X164206422Y-107537748D02*
X164206422Y-107461557D01*
X164206422Y-107194890D02*
X163406422Y-107194890D01*
X164206422Y-106852033D02*
X163787374Y-106852033D01*
X163787374Y-106852033D02*
X163711184Y-106890128D01*
X163711184Y-106890128D02*
X163673088Y-106966319D01*
X163673088Y-106966319D02*
X163673088Y-107080605D01*
X163673088Y-107080605D02*
X163711184Y-107156795D01*
X163711184Y-107156795D02*
X163749279Y-107194890D01*
X163673088Y-106128223D02*
X164206422Y-106128223D01*
X163673088Y-106471080D02*
X164092136Y-106471080D01*
X164092136Y-106471080D02*
X164168327Y-106432985D01*
X164168327Y-106432985D02*
X164206422Y-106356795D01*
X164206422Y-106356795D02*
X164206422Y-106242509D01*
X164206422Y-106242509D02*
X164168327Y-106166318D01*
X164168327Y-106166318D02*
X164130231Y-106128223D01*
X164206422Y-105747270D02*
X163406422Y-105747270D01*
X163711184Y-105747270D02*
X163673088Y-105671080D01*
X163673088Y-105671080D02*
X163673088Y-105518699D01*
X163673088Y-105518699D02*
X163711184Y-105442508D01*
X163711184Y-105442508D02*
X163749279Y-105404413D01*
X163749279Y-105404413D02*
X163825469Y-105366318D01*
X163825469Y-105366318D02*
X164054041Y-105366318D01*
X164054041Y-105366318D02*
X164130231Y-105404413D01*
X164130231Y-105404413D02*
X164168327Y-105442508D01*
X164168327Y-105442508D02*
X164206422Y-105518699D01*
X164206422Y-105518699D02*
X164206422Y-105671080D01*
X164206422Y-105671080D02*
X164168327Y-105747270D01*
X164130231Y-105023460D02*
X164168327Y-104985365D01*
X164168327Y-104985365D02*
X164206422Y-105023460D01*
X164206422Y-105023460D02*
X164168327Y-105061556D01*
X164168327Y-105061556D02*
X164130231Y-105023460D01*
X164130231Y-105023460D02*
X164206422Y-105023460D01*
X164168327Y-104299651D02*
X164206422Y-104375842D01*
X164206422Y-104375842D02*
X164206422Y-104528223D01*
X164206422Y-104528223D02*
X164168327Y-104604413D01*
X164168327Y-104604413D02*
X164130231Y-104642508D01*
X164130231Y-104642508D02*
X164054041Y-104680604D01*
X164054041Y-104680604D02*
X163825469Y-104680604D01*
X163825469Y-104680604D02*
X163749279Y-104642508D01*
X163749279Y-104642508D02*
X163711184Y-104604413D01*
X163711184Y-104604413D02*
X163673088Y-104528223D01*
X163673088Y-104528223D02*
X163673088Y-104375842D01*
X163673088Y-104375842D02*
X163711184Y-104299651D01*
X164206422Y-103842509D02*
X164168327Y-103918699D01*
X164168327Y-103918699D02*
X164130231Y-103956794D01*
X164130231Y-103956794D02*
X164054041Y-103994890D01*
X164054041Y-103994890D02*
X163825469Y-103994890D01*
X163825469Y-103994890D02*
X163749279Y-103956794D01*
X163749279Y-103956794D02*
X163711184Y-103918699D01*
X163711184Y-103918699D02*
X163673088Y-103842509D01*
X163673088Y-103842509D02*
X163673088Y-103728223D01*
X163673088Y-103728223D02*
X163711184Y-103652032D01*
X163711184Y-103652032D02*
X163749279Y-103613937D01*
X163749279Y-103613937D02*
X163825469Y-103575842D01*
X163825469Y-103575842D02*
X164054041Y-103575842D01*
X164054041Y-103575842D02*
X164130231Y-103613937D01*
X164130231Y-103613937D02*
X164168327Y-103652032D01*
X164168327Y-103652032D02*
X164206422Y-103728223D01*
X164206422Y-103728223D02*
X164206422Y-103842509D01*
X164206422Y-103232984D02*
X163673088Y-103232984D01*
X163749279Y-103232984D02*
X163711184Y-103194889D01*
X163711184Y-103194889D02*
X163673088Y-103118699D01*
X163673088Y-103118699D02*
X163673088Y-103004413D01*
X163673088Y-103004413D02*
X163711184Y-102928222D01*
X163711184Y-102928222D02*
X163787374Y-102890127D01*
X163787374Y-102890127D02*
X164206422Y-102890127D01*
X163787374Y-102890127D02*
X163711184Y-102852032D01*
X163711184Y-102852032D02*
X163673088Y-102775841D01*
X163673088Y-102775841D02*
X163673088Y-102661556D01*
X163673088Y-102661556D02*
X163711184Y-102585365D01*
X163711184Y-102585365D02*
X163787374Y-102547270D01*
X163787374Y-102547270D02*
X164206422Y-102547270D01*
X163368327Y-101594889D02*
X164396898Y-102280603D01*
X164168327Y-101366318D02*
X164206422Y-101252032D01*
X164206422Y-101252032D02*
X164206422Y-101061556D01*
X164206422Y-101061556D02*
X164168327Y-100985365D01*
X164168327Y-100985365D02*
X164130231Y-100947270D01*
X164130231Y-100947270D02*
X164054041Y-100909175D01*
X164054041Y-100909175D02*
X163977850Y-100909175D01*
X163977850Y-100909175D02*
X163901660Y-100947270D01*
X163901660Y-100947270D02*
X163863565Y-100985365D01*
X163863565Y-100985365D02*
X163825469Y-101061556D01*
X163825469Y-101061556D02*
X163787374Y-101213937D01*
X163787374Y-101213937D02*
X163749279Y-101290127D01*
X163749279Y-101290127D02*
X163711184Y-101328222D01*
X163711184Y-101328222D02*
X163634993Y-101366318D01*
X163634993Y-101366318D02*
X163558803Y-101366318D01*
X163558803Y-101366318D02*
X163482612Y-101328222D01*
X163482612Y-101328222D02*
X163444517Y-101290127D01*
X163444517Y-101290127D02*
X163406422Y-101213937D01*
X163406422Y-101213937D02*
X163406422Y-101023460D01*
X163406422Y-101023460D02*
X163444517Y-100909175D01*
X163673088Y-100223460D02*
X164206422Y-100223460D01*
X163673088Y-100566317D02*
X164092136Y-100566317D01*
X164092136Y-100566317D02*
X164168327Y-100528222D01*
X164168327Y-100528222D02*
X164206422Y-100452032D01*
X164206422Y-100452032D02*
X164206422Y-100337746D01*
X164206422Y-100337746D02*
X164168327Y-100261555D01*
X164168327Y-100261555D02*
X164130231Y-100223460D01*
X163673088Y-99842507D02*
X164473088Y-99842507D01*
X163711184Y-99842507D02*
X163673088Y-99766317D01*
X163673088Y-99766317D02*
X163673088Y-99613936D01*
X163673088Y-99613936D02*
X163711184Y-99537745D01*
X163711184Y-99537745D02*
X163749279Y-99499650D01*
X163749279Y-99499650D02*
X163825469Y-99461555D01*
X163825469Y-99461555D02*
X164054041Y-99461555D01*
X164054041Y-99461555D02*
X164130231Y-99499650D01*
X164130231Y-99499650D02*
X164168327Y-99537745D01*
X164168327Y-99537745D02*
X164206422Y-99613936D01*
X164206422Y-99613936D02*
X164206422Y-99766317D01*
X164206422Y-99766317D02*
X164168327Y-99842507D01*
X164168327Y-98813935D02*
X164206422Y-98890126D01*
X164206422Y-98890126D02*
X164206422Y-99042507D01*
X164206422Y-99042507D02*
X164168327Y-99118697D01*
X164168327Y-99118697D02*
X164092136Y-99156793D01*
X164092136Y-99156793D02*
X163787374Y-99156793D01*
X163787374Y-99156793D02*
X163711184Y-99118697D01*
X163711184Y-99118697D02*
X163673088Y-99042507D01*
X163673088Y-99042507D02*
X163673088Y-98890126D01*
X163673088Y-98890126D02*
X163711184Y-98813935D01*
X163711184Y-98813935D02*
X163787374Y-98775840D01*
X163787374Y-98775840D02*
X163863565Y-98775840D01*
X163863565Y-98775840D02*
X163939755Y-99156793D01*
X164206422Y-98432983D02*
X163673088Y-98432983D01*
X163825469Y-98432983D02*
X163749279Y-98394888D01*
X163749279Y-98394888D02*
X163711184Y-98356793D01*
X163711184Y-98356793D02*
X163673088Y-98280602D01*
X163673088Y-98280602D02*
X163673088Y-98204412D01*
X163787374Y-97671079D02*
X163787374Y-97937745D01*
X164206422Y-97937745D02*
X163406422Y-97937745D01*
X163406422Y-97937745D02*
X163406422Y-97556793D01*
X164206422Y-97137746D02*
X164168327Y-97213936D01*
X164168327Y-97213936D02*
X164130231Y-97252031D01*
X164130231Y-97252031D02*
X164054041Y-97290127D01*
X164054041Y-97290127D02*
X163825469Y-97290127D01*
X163825469Y-97290127D02*
X163749279Y-97252031D01*
X163749279Y-97252031D02*
X163711184Y-97213936D01*
X163711184Y-97213936D02*
X163673088Y-97137746D01*
X163673088Y-97137746D02*
X163673088Y-97023460D01*
X163673088Y-97023460D02*
X163711184Y-96947269D01*
X163711184Y-96947269D02*
X163749279Y-96909174D01*
X163749279Y-96909174D02*
X163825469Y-96871079D01*
X163825469Y-96871079D02*
X164054041Y-96871079D01*
X164054041Y-96871079D02*
X164130231Y-96909174D01*
X164130231Y-96909174D02*
X164168327Y-96947269D01*
X164168327Y-96947269D02*
X164206422Y-97023460D01*
X164206422Y-97023460D02*
X164206422Y-97137746D01*
X164206422Y-96413936D02*
X164168327Y-96490126D01*
X164168327Y-96490126D02*
X164092136Y-96528221D01*
X164092136Y-96528221D02*
X163406422Y-96528221D01*
X164206422Y-95766316D02*
X163787374Y-95766316D01*
X163787374Y-95766316D02*
X163711184Y-95804411D01*
X163711184Y-95804411D02*
X163673088Y-95880602D01*
X163673088Y-95880602D02*
X163673088Y-96032983D01*
X163673088Y-96032983D02*
X163711184Y-96109173D01*
X164168327Y-95766316D02*
X164206422Y-95842507D01*
X164206422Y-95842507D02*
X164206422Y-96032983D01*
X164206422Y-96032983D02*
X164168327Y-96109173D01*
X164168327Y-96109173D02*
X164092136Y-96147269D01*
X164092136Y-96147269D02*
X164015946Y-96147269D01*
X164015946Y-96147269D02*
X163939755Y-96109173D01*
X163939755Y-96109173D02*
X163901660Y-96032983D01*
X163901660Y-96032983D02*
X163901660Y-95842507D01*
X163901660Y-95842507D02*
X163863565Y-95766316D01*
X163368327Y-94813935D02*
X164396898Y-95499649D01*
X164206422Y-94204411D02*
X163787374Y-94204411D01*
X163787374Y-94204411D02*
X163711184Y-94242506D01*
X163711184Y-94242506D02*
X163673088Y-94318697D01*
X163673088Y-94318697D02*
X163673088Y-94471078D01*
X163673088Y-94471078D02*
X163711184Y-94547268D01*
X164168327Y-94204411D02*
X164206422Y-94280602D01*
X164206422Y-94280602D02*
X164206422Y-94471078D01*
X164206422Y-94471078D02*
X164168327Y-94547268D01*
X164168327Y-94547268D02*
X164092136Y-94585364D01*
X164092136Y-94585364D02*
X164015946Y-94585364D01*
X164015946Y-94585364D02*
X163939755Y-94547268D01*
X163939755Y-94547268D02*
X163901660Y-94471078D01*
X163901660Y-94471078D02*
X163901660Y-94280602D01*
X163901660Y-94280602D02*
X163863565Y-94204411D01*
X164206422Y-93823458D02*
X163673088Y-93823458D01*
X163825469Y-93823458D02*
X163749279Y-93785363D01*
X163749279Y-93785363D02*
X163711184Y-93747268D01*
X163711184Y-93747268D02*
X163673088Y-93671077D01*
X163673088Y-93671077D02*
X163673088Y-93594887D01*
X164206422Y-93328220D02*
X163406422Y-93328220D01*
X163901660Y-93252030D02*
X164206422Y-93023458D01*
X163673088Y-93023458D02*
X163977850Y-93328220D01*
X164168327Y-92375839D02*
X164206422Y-92452030D01*
X164206422Y-92452030D02*
X164206422Y-92604411D01*
X164206422Y-92604411D02*
X164168327Y-92680601D01*
X164168327Y-92680601D02*
X164092136Y-92718697D01*
X164092136Y-92718697D02*
X163787374Y-92718697D01*
X163787374Y-92718697D02*
X163711184Y-92680601D01*
X163711184Y-92680601D02*
X163673088Y-92604411D01*
X163673088Y-92604411D02*
X163673088Y-92452030D01*
X163673088Y-92452030D02*
X163711184Y-92375839D01*
X163711184Y-92375839D02*
X163787374Y-92337744D01*
X163787374Y-92337744D02*
X163863565Y-92337744D01*
X163863565Y-92337744D02*
X163939755Y-92718697D01*
X163673088Y-91994887D02*
X164206422Y-91994887D01*
X163749279Y-91994887D02*
X163711184Y-91956792D01*
X163711184Y-91956792D02*
X163673088Y-91880602D01*
X163673088Y-91880602D02*
X163673088Y-91766316D01*
X163673088Y-91766316D02*
X163711184Y-91690125D01*
X163711184Y-91690125D02*
X163787374Y-91652030D01*
X163787374Y-91652030D02*
X164206422Y-91652030D01*
X164168327Y-91309173D02*
X164206422Y-91232982D01*
X164206422Y-91232982D02*
X164206422Y-91080601D01*
X164206422Y-91080601D02*
X164168327Y-91004411D01*
X164168327Y-91004411D02*
X164092136Y-90966315D01*
X164092136Y-90966315D02*
X164054041Y-90966315D01*
X164054041Y-90966315D02*
X163977850Y-91004411D01*
X163977850Y-91004411D02*
X163939755Y-91080601D01*
X163939755Y-91080601D02*
X163939755Y-91194887D01*
X163939755Y-91194887D02*
X163901660Y-91271077D01*
X163901660Y-91271077D02*
X163825469Y-91309173D01*
X163825469Y-91309173D02*
X163787374Y-91309173D01*
X163787374Y-91309173D02*
X163711184Y-91271077D01*
X163711184Y-91271077D02*
X163673088Y-91194887D01*
X163673088Y-91194887D02*
X163673088Y-91080601D01*
X163673088Y-91080601D02*
X163711184Y-91004411D01*
X163673088Y-90699649D02*
X164206422Y-90547268D01*
X164206422Y-90547268D02*
X163825469Y-90394887D01*
X163825469Y-90394887D02*
X164206422Y-90242506D01*
X164206422Y-90242506D02*
X163673088Y-90090125D01*
X164206422Y-89671078D02*
X164168327Y-89747268D01*
X164168327Y-89747268D02*
X164130231Y-89785363D01*
X164130231Y-89785363D02*
X164054041Y-89823459D01*
X164054041Y-89823459D02*
X163825469Y-89823459D01*
X163825469Y-89823459D02*
X163749279Y-89785363D01*
X163749279Y-89785363D02*
X163711184Y-89747268D01*
X163711184Y-89747268D02*
X163673088Y-89671078D01*
X163673088Y-89671078D02*
X163673088Y-89556792D01*
X163673088Y-89556792D02*
X163711184Y-89480601D01*
X163711184Y-89480601D02*
X163749279Y-89442506D01*
X163749279Y-89442506D02*
X163825469Y-89404411D01*
X163825469Y-89404411D02*
X164054041Y-89404411D01*
X164054041Y-89404411D02*
X164130231Y-89442506D01*
X164130231Y-89442506D02*
X164168327Y-89480601D01*
X164168327Y-89480601D02*
X164206422Y-89556792D01*
X164206422Y-89556792D02*
X164206422Y-89671078D01*
X164206422Y-88947268D02*
X164168327Y-89023458D01*
X164168327Y-89023458D02*
X164130231Y-89061553D01*
X164130231Y-89061553D02*
X164054041Y-89099649D01*
X164054041Y-89099649D02*
X163825469Y-89099649D01*
X163825469Y-89099649D02*
X163749279Y-89061553D01*
X163749279Y-89061553D02*
X163711184Y-89023458D01*
X163711184Y-89023458D02*
X163673088Y-88947268D01*
X163673088Y-88947268D02*
X163673088Y-88832982D01*
X163673088Y-88832982D02*
X163711184Y-88756791D01*
X163711184Y-88756791D02*
X163749279Y-88718696D01*
X163749279Y-88718696D02*
X163825469Y-88680601D01*
X163825469Y-88680601D02*
X164054041Y-88680601D01*
X164054041Y-88680601D02*
X164130231Y-88718696D01*
X164130231Y-88718696D02*
X164168327Y-88756791D01*
X164168327Y-88756791D02*
X164206422Y-88832982D01*
X164206422Y-88832982D02*
X164206422Y-88947268D01*
X163673088Y-88337743D02*
X164473088Y-88337743D01*
X163711184Y-88337743D02*
X163673088Y-88261553D01*
X163673088Y-88261553D02*
X163673088Y-88109172D01*
X163673088Y-88109172D02*
X163711184Y-88032981D01*
X163711184Y-88032981D02*
X163749279Y-87994886D01*
X163749279Y-87994886D02*
X163825469Y-87956791D01*
X163825469Y-87956791D02*
X164054041Y-87956791D01*
X164054041Y-87956791D02*
X164130231Y-87994886D01*
X164130231Y-87994886D02*
X164168327Y-88032981D01*
X164168327Y-88032981D02*
X164206422Y-88109172D01*
X164206422Y-88109172D02*
X164206422Y-88261553D01*
X164206422Y-88261553D02*
X164168327Y-88337743D01*
D11*
X168741492Y-120520305D02*
X168541492Y-120234591D01*
X168398635Y-120520305D02*
X168398635Y-119920305D01*
X168398635Y-119920305D02*
X168627206Y-119920305D01*
X168627206Y-119920305D02*
X168684349Y-119948876D01*
X168684349Y-119948876D02*
X168712920Y-119977448D01*
X168712920Y-119977448D02*
X168741492Y-120034591D01*
X168741492Y-120034591D02*
X168741492Y-120120305D01*
X168741492Y-120120305D02*
X168712920Y-120177448D01*
X168712920Y-120177448D02*
X168684349Y-120206019D01*
X168684349Y-120206019D02*
X168627206Y-120234591D01*
X168627206Y-120234591D02*
X168398635Y-120234591D01*
X169227206Y-120491734D02*
X169170063Y-120520305D01*
X169170063Y-120520305D02*
X169055778Y-120520305D01*
X169055778Y-120520305D02*
X168998635Y-120491734D01*
X168998635Y-120491734D02*
X168970063Y-120434591D01*
X168970063Y-120434591D02*
X168970063Y-120206019D01*
X168970063Y-120206019D02*
X168998635Y-120148876D01*
X168998635Y-120148876D02*
X169055778Y-120120305D01*
X169055778Y-120120305D02*
X169170063Y-120120305D01*
X169170063Y-120120305D02*
X169227206Y-120148876D01*
X169227206Y-120148876D02*
X169255778Y-120206019D01*
X169255778Y-120206019D02*
X169255778Y-120263162D01*
X169255778Y-120263162D02*
X168970063Y-120320305D01*
X169484349Y-120491734D02*
X169541492Y-120520305D01*
X169541492Y-120520305D02*
X169655778Y-120520305D01*
X169655778Y-120520305D02*
X169712921Y-120491734D01*
X169712921Y-120491734D02*
X169741492Y-120434591D01*
X169741492Y-120434591D02*
X169741492Y-120406019D01*
X169741492Y-120406019D02*
X169712921Y-120348876D01*
X169712921Y-120348876D02*
X169655778Y-120320305D01*
X169655778Y-120320305D02*
X169570064Y-120320305D01*
X169570064Y-120320305D02*
X169512921Y-120291734D01*
X169512921Y-120291734D02*
X169484349Y-120234591D01*
X169484349Y-120234591D02*
X169484349Y-120206019D01*
X169484349Y-120206019D02*
X169512921Y-120148876D01*
X169512921Y-120148876D02*
X169570064Y-120120305D01*
X169570064Y-120120305D02*
X169655778Y-120120305D01*
X169655778Y-120120305D02*
X169712921Y-120148876D01*
X170227206Y-120491734D02*
X170170063Y-120520305D01*
X170170063Y-120520305D02*
X170055778Y-120520305D01*
X170055778Y-120520305D02*
X169998635Y-120491734D01*
X169998635Y-120491734D02*
X169970063Y-120434591D01*
X169970063Y-120434591D02*
X169970063Y-120206019D01*
X169970063Y-120206019D02*
X169998635Y-120148876D01*
X169998635Y-120148876D02*
X170055778Y-120120305D01*
X170055778Y-120120305D02*
X170170063Y-120120305D01*
X170170063Y-120120305D02*
X170227206Y-120148876D01*
X170227206Y-120148876D02*
X170255778Y-120206019D01*
X170255778Y-120206019D02*
X170255778Y-120263162D01*
X170255778Y-120263162D02*
X169970063Y-120320305D01*
X170427206Y-120120305D02*
X170655778Y-120120305D01*
X170512921Y-119920305D02*
X170512921Y-120434591D01*
X170512921Y-120434591D02*
X170541492Y-120491734D01*
X170541492Y-120491734D02*
X170598635Y-120520305D01*
X170598635Y-120520305D02*
X170655778Y-120520305D01*
X165752964Y-116039781D02*
X165781536Y-115954067D01*
X165781536Y-115954067D02*
X165810107Y-115925496D01*
X165810107Y-115925496D02*
X165867250Y-115896924D01*
X165867250Y-115896924D02*
X165952964Y-115896924D01*
X165952964Y-115896924D02*
X166010107Y-115925496D01*
X166010107Y-115925496D02*
X166038679Y-115954067D01*
X166038679Y-115954067D02*
X166067250Y-116011210D01*
X166067250Y-116011210D02*
X166067250Y-116239781D01*
X166067250Y-116239781D02*
X165467250Y-116239781D01*
X165467250Y-116239781D02*
X165467250Y-116039781D01*
X165467250Y-116039781D02*
X165495821Y-115982639D01*
X165495821Y-115982639D02*
X165524393Y-115954067D01*
X165524393Y-115954067D02*
X165581536Y-115925496D01*
X165581536Y-115925496D02*
X165638679Y-115925496D01*
X165638679Y-115925496D02*
X165695821Y-115954067D01*
X165695821Y-115954067D02*
X165724393Y-115982639D01*
X165724393Y-115982639D02*
X165752964Y-116039781D01*
X165752964Y-116039781D02*
X165752964Y-116239781D01*
X165467250Y-115354067D02*
X165467250Y-115639781D01*
X165467250Y-115639781D02*
X165752964Y-115668353D01*
X165752964Y-115668353D02*
X165724393Y-115639781D01*
X165724393Y-115639781D02*
X165695821Y-115582639D01*
X165695821Y-115582639D02*
X165695821Y-115439781D01*
X165695821Y-115439781D02*
X165724393Y-115382639D01*
X165724393Y-115382639D02*
X165752964Y-115354067D01*
X165752964Y-115354067D02*
X165810107Y-115325496D01*
X165810107Y-115325496D02*
X165952964Y-115325496D01*
X165952964Y-115325496D02*
X166010107Y-115354067D01*
X166010107Y-115354067D02*
X166038679Y-115382639D01*
X166038679Y-115382639D02*
X166067250Y-115439781D01*
X166067250Y-115439781D02*
X166067250Y-115582639D01*
X166067250Y-115582639D02*
X166038679Y-115639781D01*
X166038679Y-115639781D02*
X166010107Y-115668353D01*
X158446145Y-93291708D02*
X158160431Y-93491708D01*
X158446145Y-93634565D02*
X157846145Y-93634565D01*
X157846145Y-93634565D02*
X157846145Y-93405994D01*
X157846145Y-93405994D02*
X157874716Y-93348851D01*
X157874716Y-93348851D02*
X157903288Y-93320280D01*
X157903288Y-93320280D02*
X157960431Y-93291708D01*
X157960431Y-93291708D02*
X158046145Y-93291708D01*
X158046145Y-93291708D02*
X158103288Y-93320280D01*
X158103288Y-93320280D02*
X158131859Y-93348851D01*
X158131859Y-93348851D02*
X158160431Y-93405994D01*
X158160431Y-93405994D02*
X158160431Y-93634565D01*
X158417574Y-93063137D02*
X158446145Y-92977423D01*
X158446145Y-92977423D02*
X158446145Y-92834565D01*
X158446145Y-92834565D02*
X158417574Y-92777423D01*
X158417574Y-92777423D02*
X158389002Y-92748851D01*
X158389002Y-92748851D02*
X158331859Y-92720280D01*
X158331859Y-92720280D02*
X158274716Y-92720280D01*
X158274716Y-92720280D02*
X158217574Y-92748851D01*
X158217574Y-92748851D02*
X158189002Y-92777423D01*
X158189002Y-92777423D02*
X158160431Y-92834565D01*
X158160431Y-92834565D02*
X158131859Y-92948851D01*
X158131859Y-92948851D02*
X158103288Y-93005994D01*
X158103288Y-93005994D02*
X158074716Y-93034565D01*
X158074716Y-93034565D02*
X158017574Y-93063137D01*
X158017574Y-93063137D02*
X157960431Y-93063137D01*
X157960431Y-93063137D02*
X157903288Y-93034565D01*
X157903288Y-93034565D02*
X157874716Y-93005994D01*
X157874716Y-93005994D02*
X157846145Y-92948851D01*
X157846145Y-92948851D02*
X157846145Y-92805994D01*
X157846145Y-92805994D02*
X157874716Y-92720280D01*
X157846145Y-92548851D02*
X157846145Y-92205994D01*
X158446145Y-92377422D02*
X157846145Y-92377422D01*
X157819196Y-96284515D02*
X158419196Y-96084515D01*
X158419196Y-96084515D02*
X157819196Y-95884515D01*
X158362053Y-95341657D02*
X158390625Y-95370229D01*
X158390625Y-95370229D02*
X158419196Y-95455943D01*
X158419196Y-95455943D02*
X158419196Y-95513086D01*
X158419196Y-95513086D02*
X158390625Y-95598800D01*
X158390625Y-95598800D02*
X158333482Y-95655943D01*
X158333482Y-95655943D02*
X158276339Y-95684514D01*
X158276339Y-95684514D02*
X158162053Y-95713086D01*
X158162053Y-95713086D02*
X158076339Y-95713086D01*
X158076339Y-95713086D02*
X157962053Y-95684514D01*
X157962053Y-95684514D02*
X157904910Y-95655943D01*
X157904910Y-95655943D02*
X157847767Y-95598800D01*
X157847767Y-95598800D02*
X157819196Y-95513086D01*
X157819196Y-95513086D02*
X157819196Y-95455943D01*
X157819196Y-95455943D02*
X157847767Y-95370229D01*
X157847767Y-95370229D02*
X157876339Y-95341657D01*
X158362053Y-94741657D02*
X158390625Y-94770229D01*
X158390625Y-94770229D02*
X158419196Y-94855943D01*
X158419196Y-94855943D02*
X158419196Y-94913086D01*
X158419196Y-94913086D02*
X158390625Y-94998800D01*
X158390625Y-94998800D02*
X158333482Y-95055943D01*
X158333482Y-95055943D02*
X158276339Y-95084514D01*
X158276339Y-95084514D02*
X158162053Y-95113086D01*
X158162053Y-95113086D02*
X158076339Y-95113086D01*
X158076339Y-95113086D02*
X157962053Y-95084514D01*
X157962053Y-95084514D02*
X157904910Y-95055943D01*
X157904910Y-95055943D02*
X157847767Y-94998800D01*
X157847767Y-94998800D02*
X157819196Y-94913086D01*
X157819196Y-94913086D02*
X157819196Y-94855943D01*
X157819196Y-94855943D02*
X157847767Y-94770229D01*
X157847767Y-94770229D02*
X157876339Y-94741657D01*
X165752964Y-113499781D02*
X165781536Y-113414067D01*
X165781536Y-113414067D02*
X165810107Y-113385496D01*
X165810107Y-113385496D02*
X165867250Y-113356924D01*
X165867250Y-113356924D02*
X165952964Y-113356924D01*
X165952964Y-113356924D02*
X166010107Y-113385496D01*
X166010107Y-113385496D02*
X166038679Y-113414067D01*
X166038679Y-113414067D02*
X166067250Y-113471210D01*
X166067250Y-113471210D02*
X166067250Y-113699781D01*
X166067250Y-113699781D02*
X165467250Y-113699781D01*
X165467250Y-113699781D02*
X165467250Y-113499781D01*
X165467250Y-113499781D02*
X165495821Y-113442639D01*
X165495821Y-113442639D02*
X165524393Y-113414067D01*
X165524393Y-113414067D02*
X165581536Y-113385496D01*
X165581536Y-113385496D02*
X165638679Y-113385496D01*
X165638679Y-113385496D02*
X165695821Y-113414067D01*
X165695821Y-113414067D02*
X165724393Y-113442639D01*
X165724393Y-113442639D02*
X165752964Y-113499781D01*
X165752964Y-113499781D02*
X165752964Y-113699781D01*
X165667250Y-112842639D02*
X166067250Y-112842639D01*
X165438679Y-112985496D02*
X165867250Y-113128353D01*
X165867250Y-113128353D02*
X165867250Y-112756924D01*
X158100923Y-110963359D02*
X158129495Y-110877645D01*
X158129495Y-110877645D02*
X158158066Y-110849074D01*
X158158066Y-110849074D02*
X158215209Y-110820502D01*
X158215209Y-110820502D02*
X158300923Y-110820502D01*
X158300923Y-110820502D02*
X158358066Y-110849074D01*
X158358066Y-110849074D02*
X158386638Y-110877645D01*
X158386638Y-110877645D02*
X158415209Y-110934788D01*
X158415209Y-110934788D02*
X158415209Y-111163359D01*
X158415209Y-111163359D02*
X157815209Y-111163359D01*
X157815209Y-111163359D02*
X157815209Y-110963359D01*
X157815209Y-110963359D02*
X157843780Y-110906217D01*
X157843780Y-110906217D02*
X157872352Y-110877645D01*
X157872352Y-110877645D02*
X157929495Y-110849074D01*
X157929495Y-110849074D02*
X157986638Y-110849074D01*
X157986638Y-110849074D02*
X158043780Y-110877645D01*
X158043780Y-110877645D02*
X158072352Y-110906217D01*
X158072352Y-110906217D02*
X158100923Y-110963359D01*
X158100923Y-110963359D02*
X158100923Y-111163359D01*
X157815209Y-110620502D02*
X157815209Y-110249074D01*
X157815209Y-110249074D02*
X158043780Y-110449074D01*
X158043780Y-110449074D02*
X158043780Y-110363359D01*
X158043780Y-110363359D02*
X158072352Y-110306217D01*
X158072352Y-110306217D02*
X158100923Y-110277645D01*
X158100923Y-110277645D02*
X158158066Y-110249074D01*
X158158066Y-110249074D02*
X158300923Y-110249074D01*
X158300923Y-110249074D02*
X158358066Y-110277645D01*
X158358066Y-110277645D02*
X158386638Y-110306217D01*
X158386638Y-110306217D02*
X158415209Y-110363359D01*
X158415209Y-110363359D02*
X158415209Y-110534788D01*
X158415209Y-110534788D02*
X158386638Y-110591931D01*
X158386638Y-110591931D02*
X158358066Y-110620502D01*
X158119116Y-105849984D02*
X158119116Y-106049984D01*
X158433402Y-106049984D02*
X157833402Y-106049984D01*
X157833402Y-106049984D02*
X157833402Y-105764270D01*
X157833402Y-105592841D02*
X157833402Y-105192841D01*
X157833402Y-105192841D02*
X158433402Y-105449984D01*
X158446145Y-88997422D02*
X158160431Y-89197422D01*
X158446145Y-89340279D02*
X157846145Y-89340279D01*
X157846145Y-89340279D02*
X157846145Y-89111708D01*
X157846145Y-89111708D02*
X157874716Y-89054565D01*
X157874716Y-89054565D02*
X157903288Y-89025994D01*
X157903288Y-89025994D02*
X157960431Y-88997422D01*
X157960431Y-88997422D02*
X158046145Y-88997422D01*
X158046145Y-88997422D02*
X158103288Y-89025994D01*
X158103288Y-89025994D02*
X158131859Y-89054565D01*
X158131859Y-89054565D02*
X158160431Y-89111708D01*
X158160431Y-89111708D02*
X158160431Y-89340279D01*
X158274716Y-88768851D02*
X158274716Y-88483137D01*
X158446145Y-88825994D02*
X157846145Y-88625994D01*
X157846145Y-88625994D02*
X158446145Y-88425994D01*
X157846145Y-88283136D02*
X158446145Y-88140279D01*
X158446145Y-88140279D02*
X158017574Y-88025993D01*
X158017574Y-88025993D02*
X158446145Y-87911708D01*
X158446145Y-87911708D02*
X157846145Y-87768851D01*
X166049460Y-98754613D02*
X166078031Y-98668899D01*
X166078031Y-98668899D02*
X166078031Y-98526041D01*
X166078031Y-98526041D02*
X166049460Y-98468899D01*
X166049460Y-98468899D02*
X166020888Y-98440327D01*
X166020888Y-98440327D02*
X165963745Y-98411756D01*
X165963745Y-98411756D02*
X165906602Y-98411756D01*
X165906602Y-98411756D02*
X165849460Y-98440327D01*
X165849460Y-98440327D02*
X165820888Y-98468899D01*
X165820888Y-98468899D02*
X165792317Y-98526041D01*
X165792317Y-98526041D02*
X165763745Y-98640327D01*
X165763745Y-98640327D02*
X165735174Y-98697470D01*
X165735174Y-98697470D02*
X165706602Y-98726041D01*
X165706602Y-98726041D02*
X165649460Y-98754613D01*
X165649460Y-98754613D02*
X165592317Y-98754613D01*
X165592317Y-98754613D02*
X165535174Y-98726041D01*
X165535174Y-98726041D02*
X165506602Y-98697470D01*
X165506602Y-98697470D02*
X165478031Y-98640327D01*
X165478031Y-98640327D02*
X165478031Y-98497470D01*
X165478031Y-98497470D02*
X165506602Y-98411756D01*
X166078031Y-98154612D02*
X165478031Y-98154612D01*
X165478031Y-98154612D02*
X165478031Y-98011755D01*
X165478031Y-98011755D02*
X165506602Y-97926041D01*
X165506602Y-97926041D02*
X165563745Y-97868898D01*
X165563745Y-97868898D02*
X165620888Y-97840327D01*
X165620888Y-97840327D02*
X165735174Y-97811755D01*
X165735174Y-97811755D02*
X165820888Y-97811755D01*
X165820888Y-97811755D02*
X165935174Y-97840327D01*
X165935174Y-97840327D02*
X165992317Y-97868898D01*
X165992317Y-97868898D02*
X166049460Y-97926041D01*
X166049460Y-97926041D02*
X166078031Y-98011755D01*
X166078031Y-98011755D02*
X166078031Y-98154612D01*
X165906602Y-97583184D02*
X165906602Y-97297470D01*
X166078031Y-97640327D02*
X165478031Y-97440327D01*
X165478031Y-97440327D02*
X166078031Y-97240327D01*
X166071237Y-103543793D02*
X165471237Y-103543793D01*
X165471237Y-103543793D02*
X165471237Y-103400936D01*
X165471237Y-103400936D02*
X165499808Y-103315222D01*
X165499808Y-103315222D02*
X165556951Y-103258079D01*
X165556951Y-103258079D02*
X165614094Y-103229508D01*
X165614094Y-103229508D02*
X165728380Y-103200936D01*
X165728380Y-103200936D02*
X165814094Y-103200936D01*
X165814094Y-103200936D02*
X165928380Y-103229508D01*
X165928380Y-103229508D02*
X165985523Y-103258079D01*
X165985523Y-103258079D02*
X166042666Y-103315222D01*
X166042666Y-103315222D02*
X166071237Y-103400936D01*
X166071237Y-103400936D02*
X166071237Y-103543793D01*
X165671237Y-102686651D02*
X166071237Y-102686651D01*
X165442666Y-102829508D02*
X165871237Y-102972365D01*
X165871237Y-102972365D02*
X165871237Y-102600936D01*
X158104910Y-98224514D02*
X158104910Y-98424514D01*
X158419196Y-98424514D02*
X157819196Y-98424514D01*
X157819196Y-98424514D02*
X157819196Y-98138800D01*
X158019196Y-97653086D02*
X158419196Y-97653086D01*
X157790625Y-97795943D02*
X158219196Y-97938800D01*
X158219196Y-97938800D02*
X158219196Y-97567371D01*
X166035094Y-105751511D02*
X166063666Y-105780083D01*
X166063666Y-105780083D02*
X166092237Y-105865797D01*
X166092237Y-105865797D02*
X166092237Y-105922940D01*
X166092237Y-105922940D02*
X166063666Y-106008654D01*
X166063666Y-106008654D02*
X166006523Y-106065797D01*
X166006523Y-106065797D02*
X165949380Y-106094368D01*
X165949380Y-106094368D02*
X165835094Y-106122940D01*
X165835094Y-106122940D02*
X165749380Y-106122940D01*
X165749380Y-106122940D02*
X165635094Y-106094368D01*
X165635094Y-106094368D02*
X165577951Y-106065797D01*
X165577951Y-106065797D02*
X165520808Y-106008654D01*
X165520808Y-106008654D02*
X165492237Y-105922940D01*
X165492237Y-105922940D02*
X165492237Y-105865797D01*
X165492237Y-105865797D02*
X165520808Y-105780083D01*
X165520808Y-105780083D02*
X165549380Y-105751511D01*
X165492237Y-105237226D02*
X165492237Y-105351511D01*
X165492237Y-105351511D02*
X165520808Y-105408654D01*
X165520808Y-105408654D02*
X165549380Y-105437226D01*
X165549380Y-105437226D02*
X165635094Y-105494368D01*
X165635094Y-105494368D02*
X165749380Y-105522940D01*
X165749380Y-105522940D02*
X165977951Y-105522940D01*
X165977951Y-105522940D02*
X166035094Y-105494368D01*
X166035094Y-105494368D02*
X166063666Y-105465797D01*
X166063666Y-105465797D02*
X166092237Y-105408654D01*
X166092237Y-105408654D02*
X166092237Y-105294368D01*
X166092237Y-105294368D02*
X166063666Y-105237226D01*
X166063666Y-105237226D02*
X166035094Y-105208654D01*
X166035094Y-105208654D02*
X165977951Y-105180083D01*
X165977951Y-105180083D02*
X165835094Y-105180083D01*
X165835094Y-105180083D02*
X165777951Y-105208654D01*
X165777951Y-105208654D02*
X165749380Y-105237226D01*
X165749380Y-105237226D02*
X165720808Y-105294368D01*
X165720808Y-105294368D02*
X165720808Y-105408654D01*
X165720808Y-105408654D02*
X165749380Y-105465797D01*
X165749380Y-105465797D02*
X165777951Y-105494368D01*
X165777951Y-105494368D02*
X165835094Y-105522940D01*
X165533551Y-93421806D02*
X165504980Y-93478949D01*
X165504980Y-93478949D02*
X165504980Y-93564663D01*
X165504980Y-93564663D02*
X165533551Y-93650377D01*
X165533551Y-93650377D02*
X165590694Y-93707520D01*
X165590694Y-93707520D02*
X165647837Y-93736091D01*
X165647837Y-93736091D02*
X165762123Y-93764663D01*
X165762123Y-93764663D02*
X165847837Y-93764663D01*
X165847837Y-93764663D02*
X165962123Y-93736091D01*
X165962123Y-93736091D02*
X166019266Y-93707520D01*
X166019266Y-93707520D02*
X166076409Y-93650377D01*
X166076409Y-93650377D02*
X166104980Y-93564663D01*
X166104980Y-93564663D02*
X166104980Y-93507520D01*
X166104980Y-93507520D02*
X166076409Y-93421806D01*
X166076409Y-93421806D02*
X166047837Y-93393234D01*
X166047837Y-93393234D02*
X165847837Y-93393234D01*
X165847837Y-93393234D02*
X165847837Y-93507520D01*
X166104980Y-93136091D02*
X165504980Y-93136091D01*
X165504980Y-93136091D02*
X166104980Y-92793234D01*
X166104980Y-92793234D02*
X165504980Y-92793234D01*
X166104980Y-92507520D02*
X165504980Y-92507520D01*
X165504980Y-92507520D02*
X165504980Y-92364663D01*
X165504980Y-92364663D02*
X165533551Y-92278949D01*
X165533551Y-92278949D02*
X165590694Y-92221806D01*
X165590694Y-92221806D02*
X165647837Y-92193235D01*
X165647837Y-92193235D02*
X165762123Y-92164663D01*
X165762123Y-92164663D02*
X165847837Y-92164663D01*
X165847837Y-92164663D02*
X165962123Y-92193235D01*
X165962123Y-92193235D02*
X166019266Y-92221806D01*
X166019266Y-92221806D02*
X166076409Y-92278949D01*
X166076409Y-92278949D02*
X166104980Y-92364663D01*
X166104980Y-92364663D02*
X166104980Y-92507520D01*
X166104980Y-90774663D02*
X165819266Y-90974663D01*
X166104980Y-91117520D02*
X165504980Y-91117520D01*
X165504980Y-91117520D02*
X165504980Y-90888949D01*
X165504980Y-90888949D02*
X165533551Y-90831806D01*
X165533551Y-90831806D02*
X165562123Y-90803235D01*
X165562123Y-90803235D02*
X165619266Y-90774663D01*
X165619266Y-90774663D02*
X165704980Y-90774663D01*
X165704980Y-90774663D02*
X165762123Y-90803235D01*
X165762123Y-90803235D02*
X165790694Y-90831806D01*
X165790694Y-90831806D02*
X165819266Y-90888949D01*
X165819266Y-90888949D02*
X165819266Y-91117520D01*
X165504980Y-90574663D02*
X166104980Y-90174663D01*
X165504980Y-90174663D02*
X166104980Y-90574663D01*
X158094129Y-116038254D02*
X158122701Y-115952540D01*
X158122701Y-115952540D02*
X158151272Y-115923969D01*
X158151272Y-115923969D02*
X158208415Y-115895397D01*
X158208415Y-115895397D02*
X158294129Y-115895397D01*
X158294129Y-115895397D02*
X158351272Y-115923969D01*
X158351272Y-115923969D02*
X158379844Y-115952540D01*
X158379844Y-115952540D02*
X158408415Y-116009683D01*
X158408415Y-116009683D02*
X158408415Y-116238254D01*
X158408415Y-116238254D02*
X157808415Y-116238254D01*
X157808415Y-116238254D02*
X157808415Y-116038254D01*
X157808415Y-116038254D02*
X157836986Y-115981112D01*
X157836986Y-115981112D02*
X157865558Y-115952540D01*
X157865558Y-115952540D02*
X157922701Y-115923969D01*
X157922701Y-115923969D02*
X157979844Y-115923969D01*
X157979844Y-115923969D02*
X158036986Y-115952540D01*
X158036986Y-115952540D02*
X158065558Y-115981112D01*
X158065558Y-115981112D02*
X158094129Y-116038254D01*
X158094129Y-116038254D02*
X158094129Y-116238254D01*
X157808415Y-115381112D02*
X157808415Y-115495397D01*
X157808415Y-115495397D02*
X157836986Y-115552540D01*
X157836986Y-115552540D02*
X157865558Y-115581112D01*
X157865558Y-115581112D02*
X157951272Y-115638254D01*
X157951272Y-115638254D02*
X158065558Y-115666826D01*
X158065558Y-115666826D02*
X158294129Y-115666826D01*
X158294129Y-115666826D02*
X158351272Y-115638254D01*
X158351272Y-115638254D02*
X158379844Y-115609683D01*
X158379844Y-115609683D02*
X158408415Y-115552540D01*
X158408415Y-115552540D02*
X158408415Y-115438254D01*
X158408415Y-115438254D02*
X158379844Y-115381112D01*
X158379844Y-115381112D02*
X158351272Y-115352540D01*
X158351272Y-115352540D02*
X158294129Y-115323969D01*
X158294129Y-115323969D02*
X158151272Y-115323969D01*
X158151272Y-115323969D02*
X158094129Y-115352540D01*
X158094129Y-115352540D02*
X158065558Y-115381112D01*
X158065558Y-115381112D02*
X158036986Y-115438254D01*
X158036986Y-115438254D02*
X158036986Y-115552540D01*
X158036986Y-115552540D02*
X158065558Y-115609683D01*
X158065558Y-115609683D02*
X158094129Y-115638254D01*
X158094129Y-115638254D02*
X158151272Y-115666826D01*
X157874716Y-91130279D02*
X157846145Y-91187422D01*
X157846145Y-91187422D02*
X157846145Y-91273136D01*
X157846145Y-91273136D02*
X157874716Y-91358850D01*
X157874716Y-91358850D02*
X157931859Y-91415993D01*
X157931859Y-91415993D02*
X157989002Y-91444564D01*
X157989002Y-91444564D02*
X158103288Y-91473136D01*
X158103288Y-91473136D02*
X158189002Y-91473136D01*
X158189002Y-91473136D02*
X158303288Y-91444564D01*
X158303288Y-91444564D02*
X158360431Y-91415993D01*
X158360431Y-91415993D02*
X158417574Y-91358850D01*
X158417574Y-91358850D02*
X158446145Y-91273136D01*
X158446145Y-91273136D02*
X158446145Y-91215993D01*
X158446145Y-91215993D02*
X158417574Y-91130279D01*
X158417574Y-91130279D02*
X158389002Y-91101707D01*
X158389002Y-91101707D02*
X158189002Y-91101707D01*
X158189002Y-91101707D02*
X158189002Y-91215993D01*
X158446145Y-90844564D02*
X157846145Y-90844564D01*
X157846145Y-90844564D02*
X158446145Y-90501707D01*
X158446145Y-90501707D02*
X157846145Y-90501707D01*
X158446145Y-90215993D02*
X157846145Y-90215993D01*
X157846145Y-90215993D02*
X157846145Y-90073136D01*
X157846145Y-90073136D02*
X157874716Y-89987422D01*
X157874716Y-89987422D02*
X157931859Y-89930279D01*
X157931859Y-89930279D02*
X157989002Y-89901708D01*
X157989002Y-89901708D02*
X158103288Y-89873136D01*
X158103288Y-89873136D02*
X158189002Y-89873136D01*
X158189002Y-89873136D02*
X158303288Y-89901708D01*
X158303288Y-89901708D02*
X158360431Y-89930279D01*
X158360431Y-89930279D02*
X158417574Y-89987422D01*
X158417574Y-89987422D02*
X158446145Y-90073136D01*
X158446145Y-90073136D02*
X158446145Y-90215993D01*
X165506602Y-95943184D02*
X165478031Y-96000327D01*
X165478031Y-96000327D02*
X165478031Y-96086041D01*
X165478031Y-96086041D02*
X165506602Y-96171755D01*
X165506602Y-96171755D02*
X165563745Y-96228898D01*
X165563745Y-96228898D02*
X165620888Y-96257469D01*
X165620888Y-96257469D02*
X165735174Y-96286041D01*
X165735174Y-96286041D02*
X165820888Y-96286041D01*
X165820888Y-96286041D02*
X165935174Y-96257469D01*
X165935174Y-96257469D02*
X165992317Y-96228898D01*
X165992317Y-96228898D02*
X166049460Y-96171755D01*
X166049460Y-96171755D02*
X166078031Y-96086041D01*
X166078031Y-96086041D02*
X166078031Y-96028898D01*
X166078031Y-96028898D02*
X166049460Y-95943184D01*
X166049460Y-95943184D02*
X166020888Y-95914612D01*
X166020888Y-95914612D02*
X165820888Y-95914612D01*
X165820888Y-95914612D02*
X165820888Y-96028898D01*
X166078031Y-95657469D02*
X165478031Y-95657469D01*
X165478031Y-95657469D02*
X166078031Y-95314612D01*
X166078031Y-95314612D02*
X165478031Y-95314612D01*
X166078031Y-95028898D02*
X165478031Y-95028898D01*
X165478031Y-95028898D02*
X165478031Y-94886041D01*
X165478031Y-94886041D02*
X165506602Y-94800327D01*
X165506602Y-94800327D02*
X165563745Y-94743184D01*
X165563745Y-94743184D02*
X165620888Y-94714613D01*
X165620888Y-94714613D02*
X165735174Y-94686041D01*
X165735174Y-94686041D02*
X165820888Y-94686041D01*
X165820888Y-94686041D02*
X165935174Y-94714613D01*
X165935174Y-94714613D02*
X165992317Y-94743184D01*
X165992317Y-94743184D02*
X166049460Y-94800327D01*
X166049460Y-94800327D02*
X166078031Y-94886041D01*
X166078031Y-94886041D02*
X166078031Y-95028898D01*
X158098116Y-100759409D02*
X158098116Y-100959409D01*
X158412402Y-100959409D02*
X157812402Y-100959409D01*
X157812402Y-100959409D02*
X157812402Y-100673695D01*
X157812402Y-100159409D02*
X157812402Y-100445123D01*
X157812402Y-100445123D02*
X158098116Y-100473695D01*
X158098116Y-100473695D02*
X158069545Y-100445123D01*
X158069545Y-100445123D02*
X158040973Y-100387981D01*
X158040973Y-100387981D02*
X158040973Y-100245123D01*
X158040973Y-100245123D02*
X158069545Y-100187981D01*
X158069545Y-100187981D02*
X158098116Y-100159409D01*
X158098116Y-100159409D02*
X158155259Y-100130838D01*
X158155259Y-100130838D02*
X158298116Y-100130838D01*
X158298116Y-100130838D02*
X158355259Y-100159409D01*
X158355259Y-100159409D02*
X158383831Y-100187981D01*
X158383831Y-100187981D02*
X158412402Y-100245123D01*
X158412402Y-100245123D02*
X158412402Y-100387981D01*
X158412402Y-100387981D02*
X158383831Y-100445123D01*
X158383831Y-100445123D02*
X158355259Y-100473695D01*
X166074044Y-108624886D02*
X165474044Y-108624886D01*
X165474044Y-108624886D02*
X165474044Y-108482029D01*
X165474044Y-108482029D02*
X165502615Y-108396315D01*
X165502615Y-108396315D02*
X165559758Y-108339172D01*
X165559758Y-108339172D02*
X165616901Y-108310601D01*
X165616901Y-108310601D02*
X165731187Y-108282029D01*
X165731187Y-108282029D02*
X165816901Y-108282029D01*
X165816901Y-108282029D02*
X165931187Y-108310601D01*
X165931187Y-108310601D02*
X165988330Y-108339172D01*
X165988330Y-108339172D02*
X166045473Y-108396315D01*
X166045473Y-108396315D02*
X166074044Y-108482029D01*
X166074044Y-108482029D02*
X166074044Y-108624886D01*
X165474044Y-108082029D02*
X165474044Y-107682029D01*
X165474044Y-107682029D02*
X166074044Y-107939172D01*
X158098116Y-103299409D02*
X158098116Y-103499409D01*
X158412402Y-103499409D02*
X157812402Y-103499409D01*
X157812402Y-103499409D02*
X157812402Y-103213695D01*
X157812402Y-102727981D02*
X157812402Y-102842266D01*
X157812402Y-102842266D02*
X157840973Y-102899409D01*
X157840973Y-102899409D02*
X157869545Y-102927981D01*
X157869545Y-102927981D02*
X157955259Y-102985123D01*
X157955259Y-102985123D02*
X158069545Y-103013695D01*
X158069545Y-103013695D02*
X158298116Y-103013695D01*
X158298116Y-103013695D02*
X158355259Y-102985123D01*
X158355259Y-102985123D02*
X158383831Y-102956552D01*
X158383831Y-102956552D02*
X158412402Y-102899409D01*
X158412402Y-102899409D02*
X158412402Y-102785123D01*
X158412402Y-102785123D02*
X158383831Y-102727981D01*
X158383831Y-102727981D02*
X158355259Y-102699409D01*
X158355259Y-102699409D02*
X158298116Y-102670838D01*
X158298116Y-102670838D02*
X158155259Y-102670838D01*
X158155259Y-102670838D02*
X158098116Y-102699409D01*
X158098116Y-102699409D02*
X158069545Y-102727981D01*
X158069545Y-102727981D02*
X158040973Y-102785123D01*
X158040973Y-102785123D02*
X158040973Y-102899409D01*
X158040973Y-102899409D02*
X158069545Y-102956552D01*
X158069545Y-102956552D02*
X158098116Y-102985123D01*
X158098116Y-102985123D02*
X158155259Y-103013695D01*
X158100923Y-108423359D02*
X158129495Y-108337645D01*
X158129495Y-108337645D02*
X158158066Y-108309074D01*
X158158066Y-108309074D02*
X158215209Y-108280502D01*
X158215209Y-108280502D02*
X158300923Y-108280502D01*
X158300923Y-108280502D02*
X158358066Y-108309074D01*
X158358066Y-108309074D02*
X158386638Y-108337645D01*
X158386638Y-108337645D02*
X158415209Y-108394788D01*
X158415209Y-108394788D02*
X158415209Y-108623359D01*
X158415209Y-108623359D02*
X157815209Y-108623359D01*
X157815209Y-108623359D02*
X157815209Y-108423359D01*
X157815209Y-108423359D02*
X157843780Y-108366217D01*
X157843780Y-108366217D02*
X157872352Y-108337645D01*
X157872352Y-108337645D02*
X157929495Y-108309074D01*
X157929495Y-108309074D02*
X157986638Y-108309074D01*
X157986638Y-108309074D02*
X158043780Y-108337645D01*
X158043780Y-108337645D02*
X158072352Y-108366217D01*
X158072352Y-108366217D02*
X158100923Y-108423359D01*
X158100923Y-108423359D02*
X158100923Y-108623359D01*
X158415209Y-107709074D02*
X158415209Y-108051931D01*
X158415209Y-107880502D02*
X157815209Y-107880502D01*
X157815209Y-107880502D02*
X157900923Y-107937645D01*
X157900923Y-107937645D02*
X157958066Y-107994788D01*
X157958066Y-107994788D02*
X157986638Y-108051931D01*
X165759758Y-111136315D02*
X165759758Y-110936315D01*
X166074044Y-110850601D02*
X166074044Y-111136315D01*
X166074044Y-111136315D02*
X165474044Y-111136315D01*
X165474044Y-111136315D02*
X165474044Y-110850601D01*
X165474044Y-110336316D02*
X165474044Y-110450601D01*
X165474044Y-110450601D02*
X165502615Y-110507744D01*
X165502615Y-110507744D02*
X165531187Y-110536316D01*
X165531187Y-110536316D02*
X165616901Y-110593458D01*
X165616901Y-110593458D02*
X165731187Y-110622030D01*
X165731187Y-110622030D02*
X165959758Y-110622030D01*
X165959758Y-110622030D02*
X166016901Y-110593458D01*
X166016901Y-110593458D02*
X166045473Y-110564887D01*
X166045473Y-110564887D02*
X166074044Y-110507744D01*
X166074044Y-110507744D02*
X166074044Y-110393458D01*
X166074044Y-110393458D02*
X166045473Y-110336316D01*
X166045473Y-110336316D02*
X166016901Y-110307744D01*
X166016901Y-110307744D02*
X165959758Y-110279173D01*
X165959758Y-110279173D02*
X165816901Y-110279173D01*
X165816901Y-110279173D02*
X165759758Y-110307744D01*
X165759758Y-110307744D02*
X165731187Y-110336316D01*
X165731187Y-110336316D02*
X165702615Y-110393458D01*
X165702615Y-110393458D02*
X165702615Y-110507744D01*
X165702615Y-110507744D02*
X165731187Y-110564887D01*
X165731187Y-110564887D02*
X165759758Y-110593458D01*
X165759758Y-110593458D02*
X165816901Y-110622030D01*
X158094129Y-113498254D02*
X158122701Y-113412540D01*
X158122701Y-113412540D02*
X158151272Y-113383969D01*
X158151272Y-113383969D02*
X158208415Y-113355397D01*
X158208415Y-113355397D02*
X158294129Y-113355397D01*
X158294129Y-113355397D02*
X158351272Y-113383969D01*
X158351272Y-113383969D02*
X158379844Y-113412540D01*
X158379844Y-113412540D02*
X158408415Y-113469683D01*
X158408415Y-113469683D02*
X158408415Y-113698254D01*
X158408415Y-113698254D02*
X157808415Y-113698254D01*
X157808415Y-113698254D02*
X157808415Y-113498254D01*
X157808415Y-113498254D02*
X157836986Y-113441112D01*
X157836986Y-113441112D02*
X157865558Y-113412540D01*
X157865558Y-113412540D02*
X157922701Y-113383969D01*
X157922701Y-113383969D02*
X157979844Y-113383969D01*
X157979844Y-113383969D02*
X158036986Y-113412540D01*
X158036986Y-113412540D02*
X158065558Y-113441112D01*
X158065558Y-113441112D02*
X158094129Y-113498254D01*
X158094129Y-113498254D02*
X158094129Y-113698254D01*
X157865558Y-113126826D02*
X157836986Y-113098254D01*
X157836986Y-113098254D02*
X157808415Y-113041112D01*
X157808415Y-113041112D02*
X157808415Y-112898254D01*
X157808415Y-112898254D02*
X157836986Y-112841112D01*
X157836986Y-112841112D02*
X157865558Y-112812540D01*
X157865558Y-112812540D02*
X157922701Y-112783969D01*
X157922701Y-112783969D02*
X157979844Y-112783969D01*
X157979844Y-112783969D02*
X158065558Y-112812540D01*
X158065558Y-112812540D02*
X158408415Y-113155397D01*
X158408415Y-113155397D02*
X158408415Y-112783969D01*
X165498145Y-88840280D02*
X165498145Y-88497423D01*
X166098145Y-88668851D02*
X165498145Y-88668851D01*
X165498145Y-88354565D02*
X166098145Y-87954565D01*
X165498145Y-87954565D02*
X166098145Y-88354565D01*
X166042666Y-101275222D02*
X166071237Y-101189508D01*
X166071237Y-101189508D02*
X166071237Y-101046650D01*
X166071237Y-101046650D02*
X166042666Y-100989508D01*
X166042666Y-100989508D02*
X166014094Y-100960936D01*
X166014094Y-100960936D02*
X165956951Y-100932365D01*
X165956951Y-100932365D02*
X165899808Y-100932365D01*
X165899808Y-100932365D02*
X165842666Y-100960936D01*
X165842666Y-100960936D02*
X165814094Y-100989508D01*
X165814094Y-100989508D02*
X165785523Y-101046650D01*
X165785523Y-101046650D02*
X165756951Y-101160936D01*
X165756951Y-101160936D02*
X165728380Y-101218079D01*
X165728380Y-101218079D02*
X165699808Y-101246650D01*
X165699808Y-101246650D02*
X165642666Y-101275222D01*
X165642666Y-101275222D02*
X165585523Y-101275222D01*
X165585523Y-101275222D02*
X165528380Y-101246650D01*
X165528380Y-101246650D02*
X165499808Y-101218079D01*
X165499808Y-101218079D02*
X165471237Y-101160936D01*
X165471237Y-101160936D02*
X165471237Y-101018079D01*
X165471237Y-101018079D02*
X165499808Y-100932365D01*
X166014094Y-100332364D02*
X166042666Y-100360936D01*
X166042666Y-100360936D02*
X166071237Y-100446650D01*
X166071237Y-100446650D02*
X166071237Y-100503793D01*
X166071237Y-100503793D02*
X166042666Y-100589507D01*
X166042666Y-100589507D02*
X165985523Y-100646650D01*
X165985523Y-100646650D02*
X165928380Y-100675221D01*
X165928380Y-100675221D02*
X165814094Y-100703793D01*
X165814094Y-100703793D02*
X165728380Y-100703793D01*
X165728380Y-100703793D02*
X165614094Y-100675221D01*
X165614094Y-100675221D02*
X165556951Y-100646650D01*
X165556951Y-100646650D02*
X165499808Y-100589507D01*
X165499808Y-100589507D02*
X165471237Y-100503793D01*
X165471237Y-100503793D02*
X165471237Y-100446650D01*
X165471237Y-100446650D02*
X165499808Y-100360936D01*
X165499808Y-100360936D02*
X165528380Y-100332364D01*
X166071237Y-99789507D02*
X166071237Y-100075221D01*
X166071237Y-100075221D02*
X165471237Y-100075221D01*
D10*
X161219498Y-125384930D02*
X161676641Y-125384930D01*
X161448069Y-126184930D02*
X161448069Y-125384930D01*
X162400451Y-126184930D02*
X162133784Y-125803977D01*
X161943308Y-126184930D02*
X161943308Y-125384930D01*
X161943308Y-125384930D02*
X162248070Y-125384930D01*
X162248070Y-125384930D02*
X162324260Y-125423025D01*
X162324260Y-125423025D02*
X162362355Y-125461120D01*
X162362355Y-125461120D02*
X162400451Y-125537311D01*
X162400451Y-125537311D02*
X162400451Y-125651596D01*
X162400451Y-125651596D02*
X162362355Y-125727787D01*
X162362355Y-125727787D02*
X162324260Y-125765882D01*
X162324260Y-125765882D02*
X162248070Y-125803977D01*
X162248070Y-125803977D02*
X161943308Y-125803977D01*
X163200451Y-126184930D02*
X162933784Y-125803977D01*
X162743308Y-126184930D02*
X162743308Y-125384930D01*
X162743308Y-125384930D02*
X163048070Y-125384930D01*
X163048070Y-125384930D02*
X163124260Y-125423025D01*
X163124260Y-125423025D02*
X163162355Y-125461120D01*
X163162355Y-125461120D02*
X163200451Y-125537311D01*
X163200451Y-125537311D02*
X163200451Y-125651596D01*
X163200451Y-125651596D02*
X163162355Y-125727787D01*
X163162355Y-125727787D02*
X163124260Y-125765882D01*
X163124260Y-125765882D02*
X163048070Y-125803977D01*
X163048070Y-125803977D02*
X162743308Y-125803977D01*
X163505212Y-126146835D02*
X163619498Y-126184930D01*
X163619498Y-126184930D02*
X163809974Y-126184930D01*
X163809974Y-126184930D02*
X163886165Y-126146835D01*
X163886165Y-126146835D02*
X163924260Y-126108739D01*
X163924260Y-126108739D02*
X163962355Y-126032549D01*
X163962355Y-126032549D02*
X163962355Y-125956358D01*
X163962355Y-125956358D02*
X163924260Y-125880168D01*
X163924260Y-125880168D02*
X163886165Y-125842073D01*
X163886165Y-125842073D02*
X163809974Y-125803977D01*
X163809974Y-125803977D02*
X163657593Y-125765882D01*
X163657593Y-125765882D02*
X163581403Y-125727787D01*
X163581403Y-125727787D02*
X163543308Y-125689692D01*
X163543308Y-125689692D02*
X163505212Y-125613501D01*
X163505212Y-125613501D02*
X163505212Y-125537311D01*
X163505212Y-125537311D02*
X163543308Y-125461120D01*
X163543308Y-125461120D02*
X163581403Y-125423025D01*
X163581403Y-125423025D02*
X163657593Y-125384930D01*
X163657593Y-125384930D02*
X163848070Y-125384930D01*
X163848070Y-125384930D02*
X163962355Y-125423025D01*
X160842848Y-116352921D02*
X160995229Y-116352921D01*
X160995229Y-116352921D02*
X161071419Y-116391016D01*
X161071419Y-116391016D02*
X161147610Y-116467206D01*
X161147610Y-116467206D02*
X161185705Y-116619587D01*
X161185705Y-116619587D02*
X161185705Y-116886254D01*
X161185705Y-116886254D02*
X161147610Y-117038635D01*
X161147610Y-117038635D02*
X161071419Y-117114826D01*
X161071419Y-117114826D02*
X160995229Y-117152921D01*
X160995229Y-117152921D02*
X160842848Y-117152921D01*
X160842848Y-117152921D02*
X160766657Y-117114826D01*
X160766657Y-117114826D02*
X160690467Y-117038635D01*
X160690467Y-117038635D02*
X160652371Y-116886254D01*
X160652371Y-116886254D02*
X160652371Y-116619587D01*
X160652371Y-116619587D02*
X160690467Y-116467206D01*
X160690467Y-116467206D02*
X160766657Y-116391016D01*
X160766657Y-116391016D02*
X160842848Y-116352921D01*
X161909514Y-117152921D02*
X161528562Y-117152921D01*
X161528562Y-117152921D02*
X161528562Y-116352921D01*
X162176181Y-116733873D02*
X162442847Y-116733873D01*
X162557133Y-117152921D02*
X162176181Y-117152921D01*
X162176181Y-117152921D02*
X162176181Y-116352921D01*
X162176181Y-116352921D02*
X162557133Y-116352921D01*
X162899991Y-117152921D02*
X162899991Y-116352921D01*
X162899991Y-116352921D02*
X163090467Y-116352921D01*
X163090467Y-116352921D02*
X163204753Y-116391016D01*
X163204753Y-116391016D02*
X163280943Y-116467206D01*
X163280943Y-116467206D02*
X163319038Y-116543397D01*
X163319038Y-116543397D02*
X163357134Y-116695778D01*
X163357134Y-116695778D02*
X163357134Y-116810064D01*
X163357134Y-116810064D02*
X163319038Y-116962445D01*
X163319038Y-116962445D02*
X163280943Y-117038635D01*
X163280943Y-117038635D02*
X163204753Y-117114826D01*
X163204753Y-117114826D02*
X163090467Y-117152921D01*
X163090467Y-117152921D02*
X162899991Y-117152921D01*
X151912793Y-121698464D02*
X151950888Y-121584178D01*
X151950888Y-121584178D02*
X151988984Y-121546083D01*
X151988984Y-121546083D02*
X152065174Y-121507987D01*
X152065174Y-121507987D02*
X152179460Y-121507987D01*
X152179460Y-121507987D02*
X152255650Y-121546083D01*
X152255650Y-121546083D02*
X152293746Y-121584178D01*
X152293746Y-121584178D02*
X152331841Y-121660368D01*
X152331841Y-121660368D02*
X152331841Y-121965130D01*
X152331841Y-121965130D02*
X151531841Y-121965130D01*
X151531841Y-121965130D02*
X151531841Y-121698464D01*
X151531841Y-121698464D02*
X151569936Y-121622273D01*
X151569936Y-121622273D02*
X151608031Y-121584178D01*
X151608031Y-121584178D02*
X151684222Y-121546083D01*
X151684222Y-121546083D02*
X151760412Y-121546083D01*
X151760412Y-121546083D02*
X151836603Y-121584178D01*
X151836603Y-121584178D02*
X151874698Y-121622273D01*
X151874698Y-121622273D02*
X151912793Y-121698464D01*
X151912793Y-121698464D02*
X151912793Y-121965130D01*
X152331841Y-120822273D02*
X151912793Y-120822273D01*
X151912793Y-120822273D02*
X151836603Y-120860368D01*
X151836603Y-120860368D02*
X151798507Y-120936559D01*
X151798507Y-120936559D02*
X151798507Y-121088940D01*
X151798507Y-121088940D02*
X151836603Y-121165130D01*
X152293746Y-120822273D02*
X152331841Y-120898464D01*
X152331841Y-120898464D02*
X152331841Y-121088940D01*
X152331841Y-121088940D02*
X152293746Y-121165130D01*
X152293746Y-121165130D02*
X152217555Y-121203226D01*
X152217555Y-121203226D02*
X152141365Y-121203226D01*
X152141365Y-121203226D02*
X152065174Y-121165130D01*
X152065174Y-121165130D02*
X152027079Y-121088940D01*
X152027079Y-121088940D02*
X152027079Y-120898464D01*
X152027079Y-120898464D02*
X151988984Y-120822273D01*
X151798507Y-120555606D02*
X151798507Y-120250844D01*
X151531841Y-120441320D02*
X152217555Y-120441320D01*
X152217555Y-120441320D02*
X152293746Y-120403225D01*
X152293746Y-120403225D02*
X152331841Y-120327035D01*
X152331841Y-120327035D02*
X152331841Y-120250844D01*
X151798507Y-120098463D02*
X151798507Y-119793701D01*
X151531841Y-119984177D02*
X152217555Y-119984177D01*
X152217555Y-119984177D02*
X152293746Y-119946082D01*
X152293746Y-119946082D02*
X152331841Y-119869892D01*
X152331841Y-119869892D02*
X152331841Y-119793701D01*
X152293746Y-119222272D02*
X152331841Y-119298463D01*
X152331841Y-119298463D02*
X152331841Y-119450844D01*
X152331841Y-119450844D02*
X152293746Y-119527034D01*
X152293746Y-119527034D02*
X152217555Y-119565130D01*
X152217555Y-119565130D02*
X151912793Y-119565130D01*
X151912793Y-119565130D02*
X151836603Y-119527034D01*
X151836603Y-119527034D02*
X151798507Y-119450844D01*
X151798507Y-119450844D02*
X151798507Y-119298463D01*
X151798507Y-119298463D02*
X151836603Y-119222272D01*
X151836603Y-119222272D02*
X151912793Y-119184177D01*
X151912793Y-119184177D02*
X151988984Y-119184177D01*
X151988984Y-119184177D02*
X152065174Y-119565130D01*
X152331841Y-118841320D02*
X151798507Y-118841320D01*
X151950888Y-118841320D02*
X151874698Y-118803225D01*
X151874698Y-118803225D02*
X151836603Y-118765130D01*
X151836603Y-118765130D02*
X151798507Y-118688939D01*
X151798507Y-118688939D02*
X151798507Y-118612749D01*
X151798507Y-118422273D02*
X152331841Y-118231797D01*
X151798507Y-118041320D02*
X152331841Y-118231797D01*
X152331841Y-118231797D02*
X152522317Y-118307987D01*
X152522317Y-118307987D02*
X152560412Y-118346082D01*
X152560412Y-118346082D02*
X152598507Y-118422273D01*
D11*
X153253746Y-121855606D02*
X153253746Y-121398464D01*
X153082317Y-121169892D02*
X153482317Y-121027035D01*
X153482317Y-121027035D02*
X153082317Y-120884178D01*
X153453746Y-120427035D02*
X153482317Y-120484178D01*
X153482317Y-120484178D02*
X153482317Y-120598464D01*
X153482317Y-120598464D02*
X153453746Y-120655606D01*
X153453746Y-120655606D02*
X153396603Y-120684178D01*
X153396603Y-120684178D02*
X153168031Y-120684178D01*
X153168031Y-120684178D02*
X153110888Y-120655606D01*
X153110888Y-120655606D02*
X153082317Y-120598464D01*
X153082317Y-120598464D02*
X153082317Y-120484178D01*
X153082317Y-120484178D02*
X153110888Y-120427035D01*
X153110888Y-120427035D02*
X153168031Y-120398464D01*
X153168031Y-120398464D02*
X153225174Y-120398464D01*
X153225174Y-120398464D02*
X153282317Y-120684178D01*
X153253746Y-119655606D02*
X153253746Y-119198464D01*
X153482317Y-119427035D02*
X153025174Y-119427035D01*
X153082317Y-118969892D02*
X153482317Y-118827035D01*
X153482317Y-118827035D02*
X153082317Y-118684178D01*
X153453746Y-118227035D02*
X153482317Y-118284178D01*
X153482317Y-118284178D02*
X153482317Y-118398464D01*
X153482317Y-118398464D02*
X153453746Y-118455606D01*
X153453746Y-118455606D02*
X153396603Y-118484178D01*
X153396603Y-118484178D02*
X153168031Y-118484178D01*
X153168031Y-118484178D02*
X153110888Y-118455606D01*
X153110888Y-118455606D02*
X153082317Y-118398464D01*
X153082317Y-118398464D02*
X153082317Y-118284178D01*
X153082317Y-118284178D02*
X153110888Y-118227035D01*
X153110888Y-118227035D02*
X153168031Y-118198464D01*
X153168031Y-118198464D02*
X153225174Y-118198464D01*
X153225174Y-118198464D02*
X153282317Y-118484178D01*
D12*
X115979545Y-68539476D02*
X114479545Y-68539476D01*
X114479545Y-68539476D02*
X114479545Y-70389476D01*
X115979545Y-70389476D02*
X115979545Y-68539476D01*
X115979545Y-70389476D02*
X114479545Y-70389476D01*
X115729545Y-70739476D02*
X114729545Y-70739476D01*
X115229545Y-70839476D02*
X115729545Y-71739476D01*
X115729545Y-71739476D02*
X114729545Y-71739476D01*
X114729545Y-71739476D02*
X115229545Y-70839476D01*
D13*
X67779541Y-83890173D02*
X69529541Y-83890173D01*
X67779541Y-82740173D02*
X69529541Y-82740173D01*
X67779541Y-82740173D02*
X67779541Y-83890173D01*
X139779547Y-74889669D02*
X141529547Y-74889669D01*
X139779547Y-73739669D02*
X141529547Y-73739669D01*
X139779547Y-73739669D02*
X139779547Y-74889669D01*
D12*
X79979545Y-103539969D02*
X78479545Y-103539969D01*
X78479545Y-103539969D02*
X78479545Y-105389969D01*
X79979545Y-105389969D02*
X79979545Y-103539969D01*
X79979545Y-105389969D02*
X78479545Y-105389969D01*
X79729545Y-105739969D02*
X78729545Y-105739969D01*
X79229545Y-105839969D02*
X79729545Y-106739969D01*
X79729545Y-106739969D02*
X78729545Y-106739969D01*
X78729545Y-106739969D02*
X79229545Y-105839969D01*
D13*
X85779543Y-71890172D02*
X87529543Y-71890172D01*
X85779543Y-70740172D02*
X87529543Y-70740172D01*
X85779543Y-70740172D02*
X85779543Y-71890172D01*
X103779547Y-99889671D02*
X105529547Y-99889671D01*
X103779547Y-98739671D02*
X105529547Y-98739671D01*
X103779547Y-98739671D02*
X103779547Y-99889671D01*
X168084349Y-121892734D02*
X168084349Y-118592734D01*
X168384349Y-121892734D02*
X168084349Y-121892734D01*
X170584349Y-121892734D02*
X170884349Y-121892734D01*
X170884349Y-121892734D02*
X170884349Y-118592734D01*
X168084349Y-118592734D02*
X168384349Y-118592734D01*
X170884349Y-118592734D02*
X170584349Y-118592734D01*
D12*
X79979544Y-86539965D02*
X78479544Y-86539965D01*
X78479544Y-86539965D02*
X78479544Y-88389965D01*
X79979544Y-88389965D02*
X79979544Y-86539965D01*
X79979544Y-88389965D02*
X78479544Y-88389965D01*
X79729544Y-88739965D02*
X78729544Y-88739965D01*
X79229544Y-88839965D02*
X79729544Y-89739965D01*
X79729544Y-89739965D02*
X78729544Y-89739965D01*
X78729544Y-89739965D02*
X79229544Y-88839965D01*
D13*
X103779543Y-65889673D02*
X105529543Y-65889673D01*
X103779543Y-64739673D02*
X105529543Y-64739673D01*
X103779543Y-64739673D02*
X103779543Y-65889673D01*
X139779547Y-91889675D02*
X141529547Y-91889675D01*
X139779547Y-90739675D02*
X141529547Y-90739675D01*
X139779547Y-90739675D02*
X139779547Y-91889675D01*
X152353622Y-132992080D02*
X153869167Y-133867080D01*
X152928622Y-131996150D02*
X154444167Y-132871150D01*
X152928622Y-131996150D02*
X152353622Y-132992080D01*
D12*
X135979544Y-109039474D02*
X134479544Y-109039474D01*
X134479544Y-109039474D02*
X134479544Y-110889474D01*
X135979544Y-110889474D02*
X135979544Y-109039474D01*
X135979544Y-110889474D02*
X134479544Y-110889474D01*
X135729544Y-111239474D02*
X134729544Y-111239474D01*
X135229544Y-111339474D02*
X135729544Y-112239474D01*
X135729544Y-112239474D02*
X134729544Y-112239474D01*
X134729544Y-112239474D02*
X135229544Y-111339474D01*
X133978549Y-75039472D02*
X132478549Y-75039472D01*
X132478549Y-75039472D02*
X132478549Y-76889472D01*
X133978549Y-76889472D02*
X133978549Y-75039472D01*
X133978549Y-76889472D02*
X132478549Y-76889472D01*
X133728549Y-77239472D02*
X132728549Y-77239472D01*
X133228549Y-77339472D02*
X133728549Y-78239472D01*
X133728549Y-78239472D02*
X132728549Y-78239472D01*
X132728549Y-78239472D02*
X133228549Y-77339472D01*
X115979549Y-85539466D02*
X114479549Y-85539466D01*
X114479549Y-85539466D02*
X114479549Y-87389466D01*
X115979549Y-87389466D02*
X115979549Y-85539466D01*
X115979549Y-87389466D02*
X114479549Y-87389466D01*
X115729549Y-87739466D02*
X114729549Y-87739466D01*
X115229549Y-87839466D02*
X115729549Y-88739466D01*
X115729549Y-88739466D02*
X114729549Y-88739466D01*
X114729549Y-88739466D02*
X115229549Y-87839466D01*
X133978550Y-92039471D02*
X132478550Y-92039471D01*
X132478550Y-92039471D02*
X132478550Y-93889471D01*
X133978550Y-93889471D02*
X133978550Y-92039471D01*
X133978550Y-93889471D02*
X132478550Y-93889471D01*
X133728550Y-94239471D02*
X132728550Y-94239471D01*
X133228550Y-94339471D02*
X133728550Y-95239471D01*
X133728550Y-95239471D02*
X132728550Y-95239471D01*
X132728550Y-95239471D02*
X133228550Y-94339471D01*
X135979551Y-75039473D02*
X134479551Y-75039473D01*
X134479551Y-75039473D02*
X134479551Y-76889473D01*
X135979551Y-76889473D02*
X135979551Y-75039473D01*
X135979551Y-76889473D02*
X134479551Y-76889473D01*
X135729551Y-77239473D02*
X134729551Y-77239473D01*
X135229551Y-77339473D02*
X135729551Y-78239473D01*
X135729551Y-78239473D02*
X134729551Y-78239473D01*
X134729551Y-78239473D02*
X135229551Y-77339473D01*
X153104574Y-86613137D02*
X153104574Y-117093137D01*
X153104574Y-86613137D02*
X155644574Y-86613137D01*
X155644574Y-86613137D02*
X155644574Y-117093137D01*
X155644574Y-117093137D02*
X153104574Y-117093137D01*
X168344574Y-86613137D02*
X168344574Y-117093137D01*
X168344574Y-86613137D02*
X170884574Y-86613137D01*
X168344574Y-117093137D02*
X170884574Y-117093137D01*
X170884574Y-86613137D02*
X170884574Y-117093137D01*
X79979546Y-120539971D02*
X78479546Y-120539971D01*
X78479546Y-120539971D02*
X78479546Y-122389971D01*
X79979546Y-122389971D02*
X79979546Y-120539971D01*
X79979546Y-122389971D02*
X78479546Y-122389971D01*
X79729546Y-122739971D02*
X78729546Y-122739971D01*
X79229546Y-122839971D02*
X79729546Y-123739971D01*
X79729546Y-123739971D02*
X78729546Y-123739971D01*
X78729546Y-123739971D02*
X79229546Y-122839971D01*
X167559022Y-122914835D02*
X167559022Y-123114835D01*
X165677022Y-122914835D02*
X167559022Y-122914835D01*
X163391022Y-122914835D02*
X162629022Y-122914835D01*
X160343022Y-122914835D02*
X158565022Y-122914835D01*
X167559022Y-123114835D02*
X169309022Y-123114835D01*
X155809022Y-127084835D02*
X155809022Y-124544835D01*
X169309022Y-128514835D02*
X169309022Y-123114835D01*
X167559022Y-128514835D02*
X169309022Y-128514835D01*
X167559022Y-128514835D02*
X167559022Y-128714835D01*
X165677022Y-128714835D02*
X167559022Y-128714835D01*
X163391022Y-128714835D02*
X162629022Y-128714835D01*
X160343022Y-128714835D02*
X158565022Y-128714835D01*
D13*
X103779545Y-82889669D02*
X105529545Y-82889669D01*
X103779545Y-81739669D02*
X105529545Y-81739669D01*
X103779545Y-81739669D02*
X103779545Y-82889669D01*
D12*
X156914753Y-119592826D02*
X167074753Y-119592826D01*
X156914753Y-121892826D02*
X156914753Y-119592826D01*
X156914753Y-121892826D02*
X167074753Y-121892826D01*
X167074753Y-119592826D02*
X167074753Y-121892826D01*
X133978546Y-109039475D02*
X132478546Y-109039475D01*
X132478546Y-109039475D02*
X132478546Y-110889475D01*
X133978546Y-110889475D02*
X133978546Y-109039475D01*
X133978546Y-110889475D02*
X132478546Y-110889475D01*
X133728546Y-111239475D02*
X132728546Y-111239475D01*
X133228546Y-111339475D02*
X133728546Y-112239475D01*
X133728546Y-112239475D02*
X132728546Y-112239475D01*
X132728546Y-112239475D02*
X133228546Y-111339475D01*
X128306804Y-127386584D02*
X126857915Y-126998355D01*
X126857915Y-126998355D02*
X126379100Y-128785318D01*
X127827989Y-129173546D02*
X128306804Y-127386584D01*
X127827989Y-129173546D02*
X126379100Y-128785318D01*
X127495920Y-129446916D02*
X126529995Y-129188097D01*
X126987076Y-129414099D02*
X127237101Y-130412841D01*
X127237101Y-130412841D02*
X126271176Y-130154022D01*
X126271176Y-130154022D02*
X126987076Y-129414099D01*
X97979541Y-91539973D02*
X96479541Y-91539973D01*
X96479541Y-91539973D02*
X96479541Y-93389973D01*
X97979541Y-93389973D02*
X97979541Y-91539973D01*
X97979541Y-93389973D02*
X96479541Y-93389973D01*
X97729541Y-93739973D02*
X96729541Y-93739973D01*
X97229541Y-93839973D02*
X97729541Y-94739973D01*
X97729541Y-94739973D02*
X96729541Y-94739973D01*
X96729541Y-94739973D02*
X97229541Y-93839973D01*
D13*
X67779545Y-117890172D02*
X69529545Y-117890172D01*
X67779545Y-116740172D02*
X69529545Y-116740172D01*
X67779545Y-116740172D02*
X67779545Y-117890172D01*
D12*
X97979544Y-108539972D02*
X96479544Y-108539972D01*
X96479544Y-108539972D02*
X96479544Y-110389972D01*
X97979544Y-110389972D02*
X97979544Y-108539972D01*
X97979544Y-110389972D02*
X96479544Y-110389972D01*
X97729544Y-110739972D02*
X96729544Y-110739972D01*
X97229544Y-110839972D02*
X97729544Y-111739972D01*
X97729544Y-111739972D02*
X96729544Y-111739972D01*
X96729544Y-111739972D02*
X97229544Y-110839972D01*
D13*
X132663134Y-125810588D02*
X134353505Y-126263522D01*
X132960776Y-124699774D02*
X134651147Y-125152707D01*
X132960776Y-124699774D02*
X132663134Y-125810588D01*
X121778545Y-106389671D02*
X123528545Y-106389671D01*
X121778545Y-105239671D02*
X123528545Y-105239671D01*
X121778545Y-105239671D02*
X121778545Y-106389671D01*
D12*
X115979547Y-102539472D02*
X114479547Y-102539472D01*
X114479547Y-102539472D02*
X114479547Y-104389472D01*
X115979547Y-104389472D02*
X115979547Y-102539472D01*
X115979547Y-104389472D02*
X114479547Y-104389472D01*
X115729547Y-104739472D02*
X114729547Y-104739472D01*
X115229547Y-104839472D02*
X115729547Y-105739472D01*
X115729547Y-105739472D02*
X114729547Y-105739472D01*
X114729547Y-105739472D02*
X115229547Y-104839472D01*
D13*
X139779550Y-108889670D02*
X141529550Y-108889670D01*
X139779550Y-107739670D02*
X141529550Y-107739670D01*
X139779550Y-107739670D02*
X139779550Y-108889670D01*
X121778546Y-89389670D02*
X123528546Y-89389670D01*
X121778546Y-88239670D02*
X123528546Y-88239670D01*
X121778546Y-88239670D02*
X121778546Y-89389670D01*
X121778546Y-72389675D02*
X123528546Y-72389675D01*
X121778546Y-71239675D02*
X123528546Y-71239675D01*
X121778546Y-71239675D02*
X121778546Y-72389675D01*
X85779546Y-88890168D02*
X87529546Y-88890168D01*
X85779546Y-87740168D02*
X87529546Y-87740168D01*
X85779546Y-87740168D02*
X85779546Y-88890168D01*
D12*
X97979544Y-74539974D02*
X96479544Y-74539974D01*
X96479544Y-74539974D02*
X96479544Y-76389974D01*
X97979544Y-76389974D02*
X97979544Y-74539974D01*
X97979544Y-76389974D02*
X96479544Y-76389974D01*
X97729544Y-76739974D02*
X96729544Y-76739974D01*
X97229544Y-76839974D02*
X97729544Y-77739974D01*
X97729544Y-77739974D02*
X96729544Y-77739974D01*
X96729544Y-77739974D02*
X97229544Y-76839974D01*
X147756740Y-133394710D02*
X146457702Y-132644710D01*
X146457702Y-132644710D02*
X145532702Y-134246857D01*
X146831740Y-134996857D02*
X147756740Y-133394710D01*
X146831740Y-134996857D02*
X145532702Y-134246857D01*
X146440234Y-135174966D02*
X145574208Y-134674966D01*
X145957221Y-135011569D02*
X145940234Y-136040992D01*
X145940234Y-136040992D02*
X145074208Y-135540992D01*
X145074208Y-135540992D02*
X145957221Y-135011569D01*
X143761612Y-131527691D02*
X142312723Y-131139462D01*
X142312723Y-131139462D02*
X141833908Y-132926425D01*
X143282797Y-133314653D02*
X143761612Y-131527691D01*
X143282797Y-133314653D02*
X141833908Y-132926425D01*
X142950728Y-133588023D02*
X141984803Y-133329204D01*
X142441884Y-133555206D02*
X142691909Y-134553948D01*
X142691909Y-134553948D02*
X141725984Y-134295129D01*
X141725984Y-134295129D02*
X142441884Y-133555206D01*
X135979545Y-92039474D02*
X134479545Y-92039474D01*
X134479545Y-92039474D02*
X134479545Y-93889474D01*
X135979545Y-93889474D02*
X135979545Y-92039474D01*
X135979545Y-93889474D02*
X134479545Y-93889474D01*
X135729545Y-94239474D02*
X134729545Y-94239474D01*
X135229545Y-94339474D02*
X135729545Y-95239474D01*
X135729545Y-95239474D02*
X134729545Y-95239474D01*
X134729545Y-95239474D02*
X135229545Y-94339474D01*
D13*
X67779543Y-100890167D02*
X69529543Y-100890167D01*
X67779543Y-99740167D02*
X69529543Y-99740167D01*
X67779543Y-99740167D02*
X67779543Y-100890167D01*
X85779549Y-105890174D02*
X87529549Y-105890174D01*
X85779549Y-104740174D02*
X87529549Y-104740174D01*
X85779549Y-104740174D02*
X85779549Y-105890174D01*
M02*
