G04 #@! TF.GenerationSoftware,KiCad,Pcbnew,7.0.2-0*
G04 #@! TF.CreationDate,2023-06-12T23:21:01+02:00*
G04 #@! TF.ProjectId,arkenswoop,61726b65-6e73-4776-9f6f-702e6b696361,0.5.0*
G04 #@! TF.SameCoordinates,Original*
G04 #@! TF.FileFunction,Profile,NP*
%FSLAX46Y46*%
G04 Gerber Fmt 4.6, Leading zero omitted, Abs format (unit mm)*
G04 Created by KiCad (PCBNEW 7.0.2-0) date 2023-06-12 23:21:01*
%MOMM*%
%LPD*%
G01*
G04 APERTURE LIST*
G04 #@! TA.AperFunction,Profile*
%ADD10C,0.050000*%
G04 #@! TD*
G04 APERTURE END LIST*
D10*
X63279167Y-81044010D02*
X63269824Y-127424999D01*
X151150000Y-78125000D02*
X151150000Y-72125000D01*
X171385630Y-81989604D02*
X171385883Y-121456747D01*
X171385638Y-81989604D02*
G75*
G03*
X169385641Y-79989462I-2000138J4D01*
G01*
X131950000Y-67825000D02*
X117800000Y-67825000D01*
X116054889Y-63057298D02*
X116054889Y-66030865D01*
X114309778Y-61263163D02*
X101025000Y-61275000D01*
X133200000Y-69075000D02*
G75*
G03*
X131950000Y-67825000I-1250000J0D01*
G01*
X133200000Y-69075000D02*
G75*
G03*
X134450000Y-70325000I1250000J0D01*
G01*
X80677686Y-69000074D02*
X80673519Y-77531064D01*
X101025000Y-61274978D02*
G75*
G03*
X99230866Y-63020111I0J-1794822D01*
G01*
X166885323Y-83739429D02*
G75*
G03*
X167385329Y-83239378I-23J500029D01*
G01*
X115235769Y-136194832D02*
X103554156Y-136294630D01*
X78875000Y-79288834D02*
X65083651Y-79288834D01*
X167385329Y-83239378D02*
X167385505Y-81989453D01*
X82096860Y-129229483D02*
X65025000Y-129229483D01*
X156698895Y-149616311D02*
X149229607Y-145303912D01*
X116054924Y-63057298D02*
G75*
G03*
X114309778Y-61263164I-1794824J-2D01*
G01*
X152887029Y-80012186D02*
X154604315Y-79989915D01*
X156604285Y-81990048D02*
G75*
G03*
X154604315Y-79989915I-2000085J48D01*
G01*
X151150022Y-72125000D02*
G75*
G03*
X149404889Y-70330866I-1794822J0D01*
G01*
X169275518Y-129333217D02*
G75*
G03*
X171385883Y-121456747I-13641718J7876017D01*
G01*
X149404889Y-70330865D02*
X134450000Y-70325000D01*
X78875000Y-79288891D02*
G75*
G03*
X80673519Y-77531064I-8700J1807891D01*
G01*
X149229606Y-145303913D02*
G75*
G03*
X115235769Y-136194832I-33993836J-58875617D01*
G01*
X156604299Y-81990048D02*
X156604480Y-83239980D01*
X156698897Y-149616307D02*
G75*
G03*
X157723413Y-149341792I375003J649507D01*
G01*
X156604517Y-83239980D02*
G75*
G03*
X157104479Y-83739983I499983J-20D01*
G01*
X65083651Y-79288875D02*
G75*
G03*
X63279167Y-81044010I-51J-1805125D01*
G01*
X169385641Y-79989405D02*
G75*
G03*
X167385505Y-81989453I-41J-2000095D01*
G01*
X97441349Y-67244772D02*
G75*
G03*
X99235483Y-65499713I51J1794772D01*
G01*
X99230865Y-63020111D02*
X99235484Y-65499713D01*
X157723414Y-149341792D02*
X169275507Y-129333211D01*
X116054912Y-66030865D02*
G75*
G03*
X117800000Y-67825000I1794788J-35D01*
G01*
X97441349Y-67244824D02*
X82482170Y-67244898D01*
X151150047Y-78125003D02*
G75*
G03*
X152887029Y-80012185I1786553J-98597D01*
G01*
X63269825Y-127424999D02*
G75*
G03*
X65025000Y-129229482I1805175J-1D01*
G01*
X157104479Y-83739983D02*
X166885323Y-83739379D01*
X103554156Y-136294630D02*
G75*
G03*
X82096860Y-129229483I-21829156J-30180370D01*
G01*
X82482170Y-67244893D02*
G75*
G03*
X80677686Y-69000074I30J-1805207D01*
G01*
X107987509Y-119900624D02*
X107987509Y-118100624D01*
X108283509Y-120200624D02*
X122383509Y-120200624D01*
X122383509Y-117800624D02*
X108287509Y-117800624D01*
X122683509Y-119900624D02*
X122683509Y-118100624D01*
X108287509Y-117800624D02*
G75*
G03*
X107987509Y-118100624I0J-300000D01*
G01*
X107987509Y-119900624D02*
G75*
G03*
X108287509Y-120200624I300000J0D01*
G01*
X122683509Y-118100624D02*
G75*
G03*
X122383509Y-117800624I-300000J0D01*
G01*
X122383509Y-120200624D02*
G75*
G03*
X122683509Y-119900624I0J300000D01*
G01*
M02*
