G04 #@! TF.GenerationSoftware,KiCad,Pcbnew,7.0.2-0*
G04 #@! TF.CreationDate,2023-06-12T23:21:01+02:00*
G04 #@! TF.ProjectId,arkenswoop,61726b65-6e73-4776-9f6f-702e6b696361,0.5.0*
G04 #@! TF.SameCoordinates,Original*
G04 #@! TF.FileFunction,Copper,L1,Top*
G04 #@! TF.FilePolarity,Positive*
%FSLAX46Y46*%
G04 Gerber Fmt 4.6, Leading zero omitted, Abs format (unit mm)*
G04 Created by KiCad (PCBNEW 7.0.2-0) date 2023-06-12 23:21:01*
%MOMM*%
%LPD*%
G01*
G04 APERTURE LIST*
G04 Aperture macros list*
%AMHorizOval*
0 Thick line with rounded ends*
0 $1 width*
0 $2 $3 position (X,Y) of the first rounded end (center of the circle)*
0 $4 $5 position (X,Y) of the second rounded end (center of the circle)*
0 Add line between two ends*
20,1,$1,$2,$3,$4,$5,0*
0 Add two circle primitives to create the rounded ends*
1,1,$1,$2,$3*
1,1,$1,$4,$5*%
%AMFreePoly0*
4,1,13,0.650000,0.228200,1.094200,0.228200,1.129555,0.213555,1.144200,0.178200,1.144200,-0.177400,1.129555,-0.212755,1.094200,-0.227400,0.650000,-0.227400,0.650000,-0.475000,-0.650000,-0.475000,-0.650000,0.475000,0.650000,0.475000,0.650000,0.228200,0.650000,0.228200,$1*%
%AMFreePoly1*
4,1,13,0.650000,-0.475000,-0.650000,-0.475000,-0.650000,-0.228600,-1.094200,-0.228600,-1.129555,-0.213955,-1.144200,-0.178600,-1.144200,0.177000,-1.129555,0.212355,-1.094200,0.227000,-0.650000,0.227000,-0.650000,0.475000,0.650000,0.475000,0.650000,-0.475000,0.650000,-0.475000,$1*%
%AMFreePoly2*
4,1,6,0.600000,0.200000,0.000000,-0.400000,-0.600000,0.200000,-0.600000,0.400000,0.600000,0.400000,0.600000,0.200000,0.600000,0.200000,$1*%
%AMFreePoly3*
4,1,5,0.125000,-0.500000,-0.125000,-0.500000,-0.125000,0.500000,0.125000,0.500000,0.125000,-0.500000,0.125000,-0.500000,$1*%
%AMFreePoly4*
4,1,6,0.600000,-0.250000,-0.600000,-0.250000,-0.600000,1.000000,0.000000,0.400000,0.600000,1.000000,0.600000,-0.250000,0.600000,-0.250000,$1*%
%AMFreePoly5*
4,1,13,0.450000,0.228600,0.723200,0.228600,0.758555,0.213955,0.773200,0.178600,0.773200,-0.177000,0.758555,-0.212355,0.723200,-0.227000,0.450000,-0.227000,0.450000,-0.850000,-0.450000,-0.850000,-0.450000,0.850000,0.450000,0.850000,0.450000,0.228600,0.450000,0.228600,$1*%
%AMFreePoly6*
4,1,13,0.750000,-1.050000,0.229000,-1.050000,0.229000,-1.335200,0.214355,-1.370555,0.179000,-1.385200,-0.176600,-1.385200,-0.211955,-1.370555,-0.226600,-1.335200,-0.226600,-1.050000,-0.750000,-1.050000,-0.750000,1.050000,0.750000,1.050000,0.750000,-1.050000,0.750000,-1.050000,$1*%
%AMFreePoly7*
4,1,13,0.750000,-1.050000,0.228600,-1.050000,0.228600,-1.335200,0.213955,-1.370555,0.178600,-1.385200,-0.177000,-1.385200,-0.212355,-1.370555,-0.227000,-1.335200,-0.227000,-1.050000,-0.750000,-1.050000,-0.750000,1.050000,0.750000,1.050000,0.750000,-1.050000,0.750000,-1.050000,$1*%
G04 Aperture macros list end*
G04 #@! TA.AperFunction,ComponentPad*
%ADD10C,4.200000*%
G04 #@! TD*
G04 #@! TA.AperFunction,SMDPad,CuDef*
%ADD11FreePoly0,270.000000*%
G04 #@! TD*
G04 #@! TA.AperFunction,ComponentPad*
%ADD12C,0.457200*%
G04 #@! TD*
G04 #@! TA.AperFunction,SMDPad,CuDef*
%ADD13FreePoly1,270.000000*%
G04 #@! TD*
G04 #@! TA.AperFunction,ComponentPad*
%ADD14O,2.500000X2.000000*%
G04 #@! TD*
G04 #@! TA.AperFunction,ComponentPad*
%ADD15O,1.600000X2.100000*%
G04 #@! TD*
G04 #@! TA.AperFunction,SMDPad,CuDef*
%ADD16FreePoly2,180.000000*%
G04 #@! TD*
G04 #@! TA.AperFunction,SMDPad,CuDef*
%ADD17FreePoly3,180.000000*%
G04 #@! TD*
G04 #@! TA.AperFunction,SMDPad,CuDef*
%ADD18FreePoly4,180.000000*%
G04 #@! TD*
G04 #@! TA.AperFunction,ComponentPad*
%ADD19C,1.600000*%
G04 #@! TD*
G04 #@! TA.AperFunction,ComponentPad*
%ADD20HorizOval,2.000000X0.216506X-0.125000X-0.216506X0.125000X0*%
G04 #@! TD*
G04 #@! TA.AperFunction,SMDPad,CuDef*
%ADD21FreePoly5,90.000000*%
G04 #@! TD*
G04 #@! TA.AperFunction,SMDPad,CuDef*
%ADD22FreePoly5,270.000000*%
G04 #@! TD*
G04 #@! TA.AperFunction,SMDPad,CuDef*
%ADD23R,1.000000X0.800000*%
G04 #@! TD*
G04 #@! TA.AperFunction,SMDPad,CuDef*
%ADD24R,0.700000X1.500000*%
G04 #@! TD*
G04 #@! TA.AperFunction,ComponentPad*
%ADD25R,1.600000X1.600000*%
G04 #@! TD*
G04 #@! TA.AperFunction,ComponentPad*
%ADD26C,3.500000*%
G04 #@! TD*
G04 #@! TA.AperFunction,SMDPad,CuDef*
%ADD27FreePoly3,90.000000*%
G04 #@! TD*
G04 #@! TA.AperFunction,SMDPad,CuDef*
%ADD28FreePoly2,90.000000*%
G04 #@! TD*
G04 #@! TA.AperFunction,SMDPad,CuDef*
%ADD29FreePoly2,270.000000*%
G04 #@! TD*
G04 #@! TA.AperFunction,SMDPad,CuDef*
%ADD30FreePoly3,270.000000*%
G04 #@! TD*
G04 #@! TA.AperFunction,SMDPad,CuDef*
%ADD31FreePoly4,270.000000*%
G04 #@! TD*
G04 #@! TA.AperFunction,SMDPad,CuDef*
%ADD32FreePoly4,90.000000*%
G04 #@! TD*
G04 #@! TA.AperFunction,ComponentPad*
%ADD33O,2.200000X1.700000*%
G04 #@! TD*
G04 #@! TA.AperFunction,SMDPad,CuDef*
%ADD34FreePoly0,255.000000*%
G04 #@! TD*
G04 #@! TA.AperFunction,SMDPad,CuDef*
%ADD35FreePoly1,255.000000*%
G04 #@! TD*
G04 #@! TA.AperFunction,ComponentPad*
%ADD36HorizOval,2.000000X0.241481X-0.064705X-0.241481X0.064705X0*%
G04 #@! TD*
G04 #@! TA.AperFunction,SMDPad,CuDef*
%ADD37FreePoly6,90.000000*%
G04 #@! TD*
G04 #@! TA.AperFunction,SMDPad,CuDef*
%ADD38FreePoly7,90.000000*%
G04 #@! TD*
G04 #@! TA.AperFunction,SMDPad,CuDef*
%ADD39FreePoly0,240.000000*%
G04 #@! TD*
G04 #@! TA.AperFunction,SMDPad,CuDef*
%ADD40FreePoly1,240.000000*%
G04 #@! TD*
G04 #@! TA.AperFunction,ViaPad*
%ADD41C,0.600000*%
G04 #@! TD*
G04 #@! TA.AperFunction,Conductor*
%ADD42C,0.400000*%
G04 #@! TD*
G04 #@! TA.AperFunction,Conductor*
%ADD43C,0.250000*%
G04 #@! TD*
G04 APERTURE END LIST*
D10*
X134228545Y-84239474D03*
D11*
X115229545Y-69464476D03*
D12*
X115229545Y-70564876D03*
X115229145Y-71914076D03*
D13*
X115229545Y-73014476D03*
D14*
X102129546Y-107139471D03*
X112329546Y-107139471D03*
X107229546Y-109139471D03*
D15*
X111163509Y-132975624D03*
X111687509Y-132975624D03*
X113703509Y-132975624D03*
D16*
X113965509Y-131100624D03*
D17*
X113965509Y-131608624D03*
D15*
X114227509Y-132975624D03*
X116243509Y-132975624D03*
D16*
X116505509Y-131100624D03*
D17*
X116505509Y-131608624D03*
D15*
X116767509Y-132975624D03*
X118783509Y-132975624D03*
D16*
X119045509Y-131100624D03*
D17*
X119045509Y-131608624D03*
D15*
X119307509Y-132975624D03*
D18*
X119045509Y-130084624D03*
X116505509Y-130084624D03*
X113965509Y-130084624D03*
D19*
X108687509Y-134450624D03*
X121783509Y-134450624D03*
D15*
X108687509Y-132350624D03*
X121783509Y-132350624D03*
D10*
X80229545Y-83739972D03*
D11*
X79229545Y-104464969D03*
D12*
X79229545Y-105565369D03*
X79229145Y-106914569D03*
D13*
X79229545Y-108014969D03*
D20*
X147299780Y-138445591D03*
X156133240Y-143545591D03*
X150716510Y-142727642D03*
D21*
X169484349Y-121942734D03*
D12*
X169484349Y-121213134D03*
X169484349Y-119273134D03*
D22*
X169484349Y-118542734D03*
D11*
X79229544Y-87464965D03*
D12*
X79229544Y-88565365D03*
X79229144Y-89914565D03*
D13*
X79229544Y-91014965D03*
D23*
X165644573Y-87090134D03*
X165644573Y-84890134D03*
X158344573Y-87090134D03*
X158344573Y-84890134D03*
D24*
X164244573Y-87740134D03*
X161244573Y-87740134D03*
X159744573Y-87740134D03*
D11*
X135229544Y-109964474D03*
D12*
X135229544Y-111064874D03*
X135229144Y-112414074D03*
D13*
X135229544Y-113514474D03*
D25*
X107735549Y-125100000D03*
D19*
X107735549Y-130100000D03*
X107735549Y-127600000D03*
X122235549Y-130100000D03*
X122235549Y-125100000D03*
D26*
X169385693Y-81989640D03*
D14*
X120128544Y-96639470D03*
X130328544Y-96639470D03*
X125228544Y-98639470D03*
X66129546Y-125139972D03*
X76329546Y-125139972D03*
X71229546Y-127139972D03*
D11*
X133228549Y-75964472D03*
D12*
X133228549Y-77064872D03*
X133228149Y-78414072D03*
D13*
X133228549Y-79514472D03*
D11*
X115229549Y-86464466D03*
D12*
X115229549Y-87564866D03*
X115229149Y-88914066D03*
D13*
X115229549Y-90014466D03*
D11*
X133228550Y-92964471D03*
D12*
X133228550Y-94064871D03*
X133228150Y-95414071D03*
D13*
X133228550Y-96514471D03*
D26*
X154604371Y-81990097D03*
D11*
X135229551Y-75964473D03*
D12*
X135229551Y-77064873D03*
X135229151Y-78414073D03*
D13*
X135229551Y-79514473D03*
D14*
X138129546Y-99139475D03*
X148329546Y-99139475D03*
X143229546Y-101139475D03*
X66129544Y-108139969D03*
X76329544Y-108139969D03*
X71229544Y-110139969D03*
D19*
X154374574Y-87883137D03*
X154374574Y-90423137D03*
X154374574Y-92963137D03*
X154374574Y-95503137D03*
X154374574Y-98043137D03*
X154374574Y-100583137D03*
X154374574Y-103123137D03*
X154374574Y-105663137D03*
X154374574Y-108203137D03*
X154374574Y-110743137D03*
X154374574Y-113283137D03*
X154374574Y-115823137D03*
D27*
X155644574Y-87883137D03*
X155644574Y-90423137D03*
X155644574Y-92963137D03*
X155644574Y-95503137D03*
X155644574Y-98043137D03*
X155644574Y-100583137D03*
X155644574Y-103123137D03*
X155644574Y-105663137D03*
X155644574Y-108203137D03*
X155644574Y-110743137D03*
X155644574Y-113283137D03*
X155644574Y-115823137D03*
D28*
X156152574Y-87883137D03*
X156152574Y-90423137D03*
X156152574Y-92963137D03*
X156152574Y-95503137D03*
X156152574Y-98043137D03*
X156152574Y-100583137D03*
X156152574Y-103123137D03*
X156152574Y-105663137D03*
X156152574Y-108203137D03*
X156152574Y-110743137D03*
X156152574Y-113283137D03*
X156152574Y-115823137D03*
D29*
X167836574Y-87883137D03*
X167836574Y-90423137D03*
X167836574Y-92963137D03*
X167836574Y-95503137D03*
X167836574Y-98043137D03*
X167836574Y-100583137D03*
X167836574Y-103123137D03*
X167836574Y-105663137D03*
X167836574Y-108203137D03*
X167836574Y-110743137D03*
X167836574Y-113283137D03*
X167836574Y-115823137D03*
D30*
X168344574Y-87883137D03*
X168344574Y-90423137D03*
X168344574Y-92963137D03*
X168344574Y-95503137D03*
X168344574Y-98043137D03*
X168344574Y-100583137D03*
X168344574Y-103123137D03*
X168344574Y-105663137D03*
X168344574Y-108203137D03*
X168344574Y-110743137D03*
X168344574Y-113283137D03*
X168344574Y-115823137D03*
D19*
X169614574Y-87883137D03*
X169614574Y-90423137D03*
X169614574Y-92963137D03*
X169614574Y-95503137D03*
X169614574Y-98043137D03*
X169614574Y-100583137D03*
X169614574Y-103123137D03*
X169614574Y-105663137D03*
X169614574Y-108203137D03*
X169614574Y-110743137D03*
X169614574Y-113283137D03*
X169614574Y-115823137D03*
D31*
X166820574Y-87883137D03*
X166820574Y-90423137D03*
X166820574Y-92963137D03*
X166820574Y-95503137D03*
X166820574Y-98043137D03*
X166820574Y-100583137D03*
X166820574Y-103123137D03*
X166820574Y-105663137D03*
X166820574Y-108203137D03*
X166820574Y-110743137D03*
X166820574Y-113283137D03*
X166820574Y-115823137D03*
D32*
X157168574Y-115823137D03*
X157168574Y-113283137D03*
X157168574Y-110743137D03*
X157168574Y-108203137D03*
X157168574Y-105663137D03*
X157168574Y-103123137D03*
X157168574Y-100583137D03*
X157168574Y-98043137D03*
X157168574Y-95503137D03*
X157168574Y-92963137D03*
X157168574Y-90423137D03*
X157168574Y-87883137D03*
D11*
X79229546Y-121464971D03*
D12*
X79229546Y-122565371D03*
X79229146Y-123914571D03*
D13*
X79229546Y-125014971D03*
D14*
X84129547Y-113139974D03*
X94329547Y-113139974D03*
X89229547Y-115139974D03*
D33*
X156609022Y-123614835D03*
X156609022Y-128014835D03*
X164509022Y-123614835D03*
X164509022Y-128014835D03*
X161509022Y-123614835D03*
X161509022Y-128014835D03*
X157509022Y-123614835D03*
X157509022Y-128014835D03*
D14*
X102129543Y-73139473D03*
X112329543Y-73139473D03*
X107229543Y-75139473D03*
X138129546Y-82139472D03*
X148329546Y-82139472D03*
X143229546Y-84139472D03*
D26*
X165490722Y-131887874D03*
D16*
X158184753Y-119084826D03*
D17*
X158184753Y-119592826D03*
D19*
X158184753Y-120742826D03*
D16*
X160724753Y-119084826D03*
D17*
X160724753Y-119592826D03*
D19*
X160724753Y-120742826D03*
D16*
X163264753Y-119084826D03*
D17*
X163264753Y-119592826D03*
D19*
X163264753Y-120742826D03*
D16*
X165804753Y-119084826D03*
D17*
X165804753Y-119592826D03*
D19*
X165804753Y-120742826D03*
D18*
X165804753Y-118068826D03*
X163264753Y-118068826D03*
X160724753Y-118068826D03*
X158184753Y-118068826D03*
D14*
X66129542Y-91139972D03*
X76329542Y-91139972D03*
X71229542Y-93139972D03*
X120128544Y-113639471D03*
X130328544Y-113639471D03*
X125228544Y-115639471D03*
D11*
X133228546Y-109964475D03*
D12*
X133228546Y-111064875D03*
X133228146Y-112414075D03*
D13*
X133228546Y-113514475D03*
D34*
X127342952Y-128085951D03*
D12*
X127058147Y-129148855D03*
X126708562Y-130451979D03*
D35*
X126424144Y-131514987D03*
D14*
X84129547Y-96139968D03*
X94329547Y-96139968D03*
X89229547Y-98139968D03*
X120128547Y-79639475D03*
X130328547Y-79639475D03*
X125228547Y-81639475D03*
D11*
X97229541Y-92464973D03*
D12*
X97229541Y-93565373D03*
X97229141Y-94914573D03*
D13*
X97229541Y-96014973D03*
D11*
X97229544Y-109464972D03*
D12*
X97229544Y-110565372D03*
X97229144Y-111914572D03*
D13*
X97229544Y-113014972D03*
D10*
X80229546Y-112739970D03*
D36*
X129192971Y-132386306D03*
X139045414Y-135026260D03*
X133601555Y-135638134D03*
D14*
X107229546Y-92139470D03*
X112329546Y-90139470D03*
X102129546Y-90139470D03*
D10*
X116229546Y-112739469D03*
D11*
X115229547Y-103464472D03*
D12*
X115229547Y-104564872D03*
X115229147Y-105914072D03*
D13*
X115229547Y-107014472D03*
D12*
X156303346Y-118940921D03*
D37*
X154961746Y-118941321D03*
D12*
X156303346Y-121141321D03*
D38*
X154961746Y-121141321D03*
D10*
X148510701Y-123849903D03*
D11*
X97229544Y-75464974D03*
D12*
X97229544Y-76565374D03*
X97229144Y-77914574D03*
D13*
X97229544Y-79014974D03*
D39*
X146644721Y-133820784D03*
D12*
X146094521Y-134773758D03*
X145419575Y-135942000D03*
D40*
X144869721Y-136895174D03*
D34*
X142797760Y-132227058D03*
D12*
X142512955Y-133289962D03*
X142163370Y-134593086D03*
D35*
X141878952Y-135656094D03*
D14*
X138129549Y-116139469D03*
X148329549Y-116139469D03*
X143229549Y-118139469D03*
D11*
X135229545Y-92964474D03*
D12*
X135229545Y-94064874D03*
X135229145Y-95414074D03*
D13*
X135229545Y-96514474D03*
D14*
X84129545Y-79139973D03*
X94329545Y-79139973D03*
X89229545Y-81139973D03*
D41*
X159168575Y-91058139D03*
X161255256Y-91222659D03*
X163274745Y-89412992D03*
X165820580Y-102488135D03*
X159168587Y-102488138D03*
X165820578Y-94233148D03*
X162003067Y-86589955D03*
X135270000Y-118960000D03*
X115235511Y-128534091D03*
X161017105Y-93608400D03*
X138850000Y-122590000D03*
X158668580Y-92963138D03*
X161675287Y-96608625D03*
X161998988Y-119334587D03*
X158168581Y-96773141D03*
X159168586Y-105028144D03*
X165820582Y-105028142D03*
X162495284Y-92238629D03*
X165320583Y-92328140D03*
X158168579Y-94868133D03*
X164198985Y-94994924D03*
X159168587Y-107177322D03*
X165820577Y-106933144D03*
X146481162Y-121401865D03*
X165820582Y-108838146D03*
X148351882Y-103829844D03*
X158168575Y-103758136D03*
X112341002Y-128179582D03*
X164820577Y-112648147D03*
X115235509Y-129804096D03*
X148074079Y-120934070D03*
X165320582Y-110743144D03*
X111425513Y-128804094D03*
X147266909Y-121105520D03*
X164820582Y-90423140D03*
X163122049Y-97793143D03*
X165386763Y-117217157D03*
X165820578Y-97408141D03*
X162223005Y-99758618D03*
X165820584Y-99948141D03*
X161994741Y-118068827D03*
X147024857Y-104727332D03*
X158168585Y-108203139D03*
X147687795Y-104277812D03*
X158168579Y-106298141D03*
X158168575Y-101218140D03*
X148854667Y-103208224D03*
X158168576Y-98678140D03*
X161994575Y-85190136D03*
X159168578Y-113918132D03*
X158668579Y-112013136D03*
X158168580Y-110108136D03*
D42*
X159868087Y-114538629D02*
X157584057Y-116822655D01*
X161255256Y-91224300D02*
X159868088Y-92611471D01*
X161255256Y-91222659D02*
X161255256Y-91224300D01*
X157584057Y-116822655D02*
X157377402Y-116822660D01*
X157168583Y-88878583D02*
X157168583Y-87883137D01*
X159168575Y-90878575D02*
X157168583Y-88878583D01*
X161255256Y-91224306D02*
X161255256Y-91222659D01*
X159868088Y-92611471D02*
X159868087Y-114538629D01*
X157377402Y-116822660D02*
X156303345Y-117896715D01*
X156303345Y-117896715D02*
X156303347Y-118940922D01*
X159168575Y-91058139D02*
X159168575Y-90878575D01*
D43*
X157015832Y-119336258D02*
X156303347Y-120048744D01*
X157597457Y-117347184D02*
X157594663Y-117347184D01*
X160392606Y-92981307D02*
X160392607Y-114755890D01*
X163274745Y-89412992D02*
X163274745Y-90099167D01*
X157594663Y-117347184D02*
X157015832Y-117926015D01*
X157597457Y-117347175D02*
X157597457Y-117347184D01*
X157015832Y-117926015D02*
X157015832Y-119336258D01*
X163274745Y-90099167D02*
X160392606Y-92981307D01*
X157801325Y-117347176D02*
X157597457Y-117347175D01*
X156303347Y-120048744D02*
X156303345Y-121141321D01*
X164253061Y-88434672D02*
X163274745Y-89412992D01*
X160392607Y-114755890D02*
X157801325Y-117347176D01*
X164253059Y-87739946D02*
X164253061Y-88434672D01*
X115229544Y-69464476D02*
X112944020Y-71750000D01*
X158548674Y-101868225D02*
X153761223Y-101868225D01*
X133228552Y-75964469D02*
X130993021Y-78200000D01*
X116029064Y-70263995D02*
X115229544Y-69464476D01*
X119234595Y-78200000D02*
X116029065Y-74994470D01*
X116029065Y-74994470D02*
X116029064Y-70263995D01*
X166455581Y-103123142D02*
X165820580Y-102488135D01*
X153034375Y-92289714D02*
X150094667Y-89350008D01*
X150094667Y-89350008D02*
X150094667Y-81488225D01*
X159168587Y-102488138D02*
X158548674Y-101868225D01*
X130993021Y-78200000D02*
X119234595Y-78200000D01*
X112944020Y-71750000D02*
X100944520Y-71750000D01*
X153761223Y-101868225D02*
X153034374Y-101141376D01*
X98029063Y-79799396D02*
X95361590Y-82466872D01*
X98029066Y-76264495D02*
X98029063Y-79799396D01*
X97229545Y-75464975D02*
X98029066Y-76264495D01*
X84983128Y-82466872D02*
X79985035Y-87464965D01*
X100944520Y-71750000D02*
X97229545Y-75464975D01*
X95361590Y-82466872D02*
X84983128Y-82466872D01*
X149214666Y-80608224D02*
X142354668Y-80608223D01*
X137710916Y-75964471D02*
X133228552Y-75964469D01*
X166820581Y-103123144D02*
X166455581Y-103123142D01*
X150094667Y-81488225D02*
X149214666Y-80608224D01*
X79985035Y-87464965D02*
X79229544Y-87464965D01*
X153034374Y-101141376D02*
X153034375Y-92289714D01*
X142354668Y-80608223D02*
X137710916Y-75964471D01*
X77104544Y-93139972D02*
X79229543Y-91014967D01*
X71229546Y-93139971D02*
X77104544Y-93139972D01*
D42*
X166820583Y-92963135D02*
X166820576Y-95503135D01*
X161253064Y-88244670D02*
X160039745Y-89457981D01*
X107735549Y-127600000D02*
X106290000Y-126154451D01*
X161253059Y-87339956D02*
X162003067Y-86589955D01*
X157168580Y-91463139D02*
X158668580Y-92963138D01*
X107700000Y-121060000D02*
X127430000Y-121060000D01*
X161253051Y-87739950D02*
X161253064Y-88244670D01*
X135260000Y-118980000D02*
X135240000Y-118980000D01*
X106290000Y-126154451D02*
X106290000Y-122470000D01*
X160039735Y-91591968D02*
X158668580Y-92963138D01*
X160039745Y-89457981D02*
X160039735Y-91591968D01*
X110466080Y-130050000D02*
X113719602Y-130050000D01*
X127430000Y-121060000D02*
X129530000Y-118960000D01*
X158184747Y-118068827D02*
X159468985Y-119353064D01*
X106290000Y-122470000D02*
X107700000Y-121060000D01*
X138850000Y-122590000D02*
X146550000Y-130290000D01*
X158184745Y-117705539D02*
X160917129Y-114973155D01*
X135270000Y-118960000D02*
X135260000Y-118980000D01*
X158184752Y-118068827D02*
X158184745Y-117705539D01*
X159233857Y-130290000D02*
X161509022Y-128014835D01*
X113719602Y-130050000D02*
X115235511Y-128534091D01*
X129530000Y-118960000D02*
X135270000Y-118960000D01*
X166820586Y-93233138D02*
X165820578Y-94233148D01*
X160917129Y-114973155D02*
X160917130Y-93708377D01*
X107735550Y-127319470D02*
X110466080Y-130050000D01*
X159468985Y-119353064D02*
X159468990Y-121574803D01*
X166820583Y-92963135D02*
X166820586Y-93233138D01*
X146550000Y-130290000D02*
X159233857Y-130290000D01*
X161253065Y-87739946D02*
X161253059Y-87339956D01*
X160917130Y-93708377D02*
X161017105Y-93608400D01*
X159468990Y-121574803D02*
X161509022Y-123614834D01*
X157168585Y-90423146D02*
X157168580Y-91463139D01*
X161516649Y-96767267D02*
X161675287Y-96608625D01*
X157168588Y-95503150D02*
X157168580Y-95773140D01*
X161516647Y-115221489D02*
X161516649Y-96767267D01*
X160724749Y-116013389D02*
X161516647Y-115221489D01*
X160733226Y-118068824D02*
X161998988Y-119334587D01*
X157168580Y-95773140D02*
X158168581Y-96773141D01*
X160724747Y-118068828D02*
X160724749Y-116013389D01*
D43*
X95104551Y-81139972D02*
X97229548Y-79014975D01*
X89229542Y-81139973D02*
X95104551Y-81139972D01*
X107229542Y-75139472D02*
X113104547Y-75139474D01*
X113104547Y-75139474D02*
X115229543Y-73014476D01*
X125228546Y-81639474D02*
X131103549Y-81639476D01*
X131103549Y-81639476D02*
X133228550Y-79514473D01*
X137779260Y-84139468D02*
X143229547Y-84139465D01*
X135229549Y-79514469D02*
X135229549Y-81589757D01*
X135229549Y-81589757D02*
X137779260Y-84139468D01*
X166820574Y-105663137D02*
X166455585Y-105663142D01*
X82416696Y-94786782D02*
X94907732Y-94786783D01*
X150074668Y-98488224D02*
X150074668Y-101068223D01*
X149204668Y-97618225D02*
X150074668Y-98488224D01*
X116029069Y-93284468D02*
X117934601Y-95190000D01*
X150074668Y-101068223D02*
X153394669Y-104388224D01*
X117934601Y-95190000D02*
X131003020Y-95190000D01*
X116029068Y-87263987D02*
X116029069Y-93284468D01*
X137750917Y-92964473D02*
X142404666Y-97618224D01*
X133228549Y-92964471D02*
X137750917Y-92964473D01*
X79229543Y-97973934D02*
X82416696Y-94786782D01*
X79229546Y-104464971D02*
X79229543Y-97973934D01*
X158528668Y-104388225D02*
X159168586Y-105028144D01*
X112937146Y-88756871D02*
X115229549Y-86464467D01*
X100937644Y-88756872D02*
X112937146Y-88756871D01*
X153394669Y-104388224D02*
X158528668Y-104388225D01*
X94907732Y-94786783D02*
X100937644Y-88756872D01*
X115229549Y-86464467D02*
X116029068Y-87263987D01*
X142404666Y-97618224D02*
X149204668Y-97618225D01*
X131003020Y-95190000D02*
X133228549Y-92964471D01*
X166455585Y-105663142D02*
X165820582Y-105028142D01*
X71229543Y-110139969D02*
X76662922Y-110139970D01*
X78787922Y-108014973D02*
X79229546Y-108014971D01*
X76662922Y-110139970D02*
X78787922Y-108014973D01*
X95104549Y-98139967D02*
X97229541Y-96014974D01*
X89229548Y-98139966D02*
X95104549Y-98139967D01*
X165320583Y-92328140D02*
X166820584Y-90828138D01*
X162497536Y-92240878D02*
X162497536Y-98051822D01*
X164538990Y-116757641D02*
X164538990Y-123584866D01*
X162497536Y-98051822D02*
X162847506Y-98401798D01*
X162847505Y-115066161D02*
X164538990Y-116757641D01*
X162847506Y-98401798D02*
X162847505Y-115066161D01*
X164538990Y-123584866D02*
X164509022Y-123614834D01*
X166820584Y-90828138D02*
X166820578Y-90423143D01*
X162495284Y-92238629D02*
X162497536Y-92240878D01*
X169484348Y-121942738D02*
X168096983Y-120555381D01*
X164196066Y-114586066D02*
X164196066Y-94997847D01*
X157168588Y-92963139D02*
X157168576Y-93868147D01*
X164196066Y-94997847D02*
X164198985Y-94994924D01*
X168096983Y-120555381D02*
X168096983Y-118486983D01*
X168096983Y-118486983D02*
X164196066Y-114586066D01*
X157168576Y-93868147D02*
X158168579Y-94868133D01*
X113104547Y-92139470D02*
X115229548Y-90014468D01*
X107229545Y-92139470D02*
X113104547Y-92139470D01*
X131103551Y-98639469D02*
X133228549Y-96514473D01*
X125228547Y-98639472D02*
X131103551Y-98639469D01*
X137739268Y-101139474D02*
X143229547Y-101139472D01*
X135229546Y-98629752D02*
X137739268Y-101139474D01*
X135229544Y-96514475D02*
X135229546Y-98629752D01*
X116029063Y-104263994D02*
X116029063Y-108999063D01*
X119310000Y-112280000D02*
X130913019Y-112280000D01*
X130913019Y-112280000D02*
X133228542Y-109964477D01*
X116029063Y-108999063D02*
X119310000Y-112280000D01*
X133228542Y-109964477D02*
X135229541Y-109964478D01*
X166820581Y-108203137D02*
X166820579Y-107933142D01*
X95268461Y-116560000D02*
X84134513Y-116560000D01*
X135229546Y-109964472D02*
X135229544Y-109964474D01*
X115229544Y-103464474D02*
X116029063Y-104263994D01*
X135229541Y-109964478D02*
X135229546Y-109964473D01*
X150378417Y-109964472D02*
X153420241Y-106922650D01*
X150378417Y-109964472D02*
X135229546Y-109964472D01*
X112894018Y-105800000D02*
X115229544Y-103464474D01*
X97229546Y-109464973D02*
X98029064Y-110264494D01*
X166820579Y-107933142D02*
X165820577Y-106933144D01*
X153420241Y-106922650D02*
X158913917Y-106922650D01*
X97229544Y-109464974D02*
X100894518Y-105800000D01*
X98029064Y-110264494D02*
X98029067Y-113799394D01*
X84134513Y-116560000D02*
X79229544Y-121464969D01*
X158913917Y-106922650D02*
X159168587Y-107177322D01*
X100894518Y-105800000D02*
X112894018Y-105800000D01*
X98029067Y-113799394D02*
X95268461Y-116560000D01*
X71229547Y-127139970D02*
X77104548Y-127139970D01*
X77104548Y-127139970D02*
X79229544Y-125014971D01*
X89229547Y-115139975D02*
X95104554Y-115139972D01*
X95104554Y-115139972D02*
X97229549Y-113014974D01*
X113104550Y-109139469D02*
X115229546Y-107014472D01*
X107229545Y-109139472D02*
X113104550Y-109139469D01*
X125228545Y-115639474D02*
X131103546Y-115639472D01*
X131103546Y-115639472D02*
X133228543Y-113514474D01*
X135229549Y-113514474D02*
X135229548Y-115639753D01*
X137729264Y-118139473D02*
X143229550Y-118139473D01*
X135229548Y-115639753D02*
X137729264Y-118139473D01*
X139276369Y-137158697D02*
X141878952Y-135656095D01*
X133601556Y-135638138D02*
X139276369Y-137158697D01*
X139460000Y-133700000D02*
X142797758Y-132227059D01*
X166820578Y-110743143D02*
X166820586Y-109838144D01*
X129004995Y-130964693D02*
X139460000Y-133700000D01*
X146306183Y-121226884D02*
X134202019Y-121226884D01*
X127342953Y-128085952D02*
X129004995Y-130964693D01*
X166820586Y-109838144D02*
X165820582Y-108838146D01*
X142797758Y-132227059D02*
X146644594Y-133820468D01*
X134202019Y-121226884D02*
X127342953Y-128085952D01*
X146481162Y-121401865D02*
X146306183Y-121226884D01*
X145648506Y-139801628D02*
X144869724Y-136895172D01*
X150716512Y-142727644D02*
X145648506Y-139801628D01*
X110630000Y-134550000D02*
X119820000Y-134550000D01*
X108687509Y-132350624D02*
X108687509Y-132607509D01*
X119820000Y-134550000D02*
X122240000Y-132130000D01*
X125809134Y-132130000D02*
X126424144Y-131514990D01*
X122240000Y-132130000D02*
X125809134Y-132130000D01*
X108687509Y-132607509D02*
X110630000Y-134550000D01*
X157533581Y-103123135D02*
X158168575Y-103758136D01*
X111206425Y-94653310D02*
X112063296Y-95510182D01*
X117734310Y-101181196D02*
X127874678Y-101181197D01*
X130309393Y-103615911D02*
X148137946Y-103615911D01*
X106643383Y-94653309D02*
X109633761Y-94653312D01*
X120943608Y-135010000D02*
X121783513Y-134170095D01*
X112063296Y-95510182D02*
X117734310Y-101181196D01*
X112329543Y-90139468D02*
X102129545Y-90139473D01*
X108687509Y-134170096D02*
X109527413Y-135010000D01*
X102129546Y-90139471D02*
X106643383Y-94653309D01*
X127874678Y-101181197D02*
X130309393Y-103615911D01*
X102129543Y-107139471D02*
X112329545Y-107139467D01*
X109633761Y-94653312D02*
X111206425Y-94653310D01*
X109527413Y-135010000D02*
X120943608Y-135010000D01*
X148137946Y-103615911D02*
X148351882Y-103829844D01*
X157168578Y-103123142D02*
X157533581Y-103123135D01*
X102129543Y-73139469D02*
X112329545Y-73139474D01*
X166085399Y-113912959D02*
X164820577Y-112648147D01*
X166085402Y-115087961D02*
X166085399Y-113912959D01*
X133670000Y-120210000D02*
X147350009Y-120210000D01*
X112341002Y-128179582D02*
X114071111Y-128179583D01*
X166820581Y-115823142D02*
X166085402Y-115087961D01*
X114071111Y-128179583D02*
X114526829Y-127723868D01*
X147350009Y-120210000D02*
X148074079Y-120934070D01*
X114526829Y-127723868D02*
X114526829Y-127713604D01*
X116500000Y-129800000D02*
X116505509Y-129805509D01*
X114526829Y-127713604D02*
X115850433Y-126390000D01*
X116495904Y-129804096D02*
X116500000Y-129800000D01*
X116505509Y-129805509D02*
X116505509Y-130084624D01*
X127490000Y-126390000D02*
X133670000Y-120210000D01*
X115235509Y-129804096D02*
X116495904Y-129804096D01*
X115850433Y-126390000D02*
X127490000Y-126390000D01*
X166121746Y-112584310D02*
X166121748Y-111544304D01*
X166820579Y-113283139D02*
X166121746Y-112584310D01*
X119650000Y-129199606D02*
X119650000Y-130000000D01*
X133900000Y-120700000D02*
X127720000Y-126880000D01*
X118450000Y-129208584D02*
X117150999Y-127909583D01*
X118684624Y-130084624D02*
X118450000Y-129850000D01*
X117150999Y-127900000D02*
X114976829Y-127900000D01*
X147266909Y-121105520D02*
X146861389Y-120700000D01*
X127720000Y-126880000D02*
X121969606Y-126880000D01*
X119650000Y-130000000D02*
X119565376Y-130084624D01*
X166121748Y-111544304D02*
X165320582Y-110743144D01*
X119045509Y-130084624D02*
X118684624Y-130084624D01*
X114976829Y-127909583D02*
X114082316Y-128804093D01*
X114082316Y-128804093D02*
X111425513Y-128804094D01*
X146861389Y-120700000D02*
X133900000Y-120700000D01*
X107735549Y-125114130D02*
X111425513Y-128804094D01*
X107735548Y-124819470D02*
X107735549Y-125114130D01*
X119565376Y-130084624D02*
X119045509Y-130084624D01*
X118450000Y-129850000D02*
X118450000Y-129208584D01*
X121969606Y-126880000D02*
X119650000Y-129199606D01*
X166820580Y-88423140D02*
X166820584Y-87883135D01*
X164820582Y-90423140D02*
X166820580Y-88423140D01*
X166455578Y-98043142D02*
X165820578Y-97408141D01*
X165804748Y-117635145D02*
X165386763Y-117217157D01*
X165386763Y-117217157D02*
X165386758Y-116969693D01*
X163297029Y-114879963D02*
X163297027Y-97968123D01*
X166820585Y-98043143D02*
X166455578Y-98043142D01*
X163297027Y-97968123D02*
X163122049Y-97793143D01*
X165804753Y-118068824D02*
X165804748Y-117635145D01*
X165386758Y-116969693D02*
X163297029Y-114879963D01*
X163264747Y-118068828D02*
X163264751Y-116119122D01*
X161994741Y-118068827D02*
X163264747Y-118068828D01*
X166820580Y-100583140D02*
X166455582Y-100583145D01*
X166455582Y-100583145D02*
X165820584Y-99948141D01*
X162397987Y-115252361D02*
X162397989Y-99933598D01*
X162397989Y-99933598D02*
X162223005Y-99758618D01*
X163264751Y-116119122D02*
X162397987Y-115252361D01*
X66129544Y-108139970D02*
X69469574Y-111480000D01*
X86012331Y-101609363D02*
X98102391Y-101609363D01*
X80227426Y-109116419D02*
X84748243Y-104595602D01*
X98102391Y-101609363D02*
X104159402Y-95552350D01*
X76329546Y-125139971D02*
X66129546Y-125139970D01*
X117390538Y-102108860D02*
X127530907Y-102108860D01*
X84748243Y-104595602D02*
X84748242Y-102873452D01*
X78728621Y-109116417D02*
X80227426Y-109116419D01*
X69469574Y-111480000D02*
X76365038Y-111480000D01*
X66129543Y-108139972D02*
X76329545Y-108139970D01*
X129936997Y-104514951D02*
X146812478Y-104514951D01*
X110834029Y-95552350D02*
X117390538Y-102108860D01*
X84748242Y-102873452D02*
X86012331Y-101609363D01*
X104159402Y-95552350D02*
X110834029Y-95552350D01*
X76365038Y-111480000D02*
X78728621Y-109116417D01*
X146812478Y-104514951D02*
X147024857Y-104727332D01*
X127530907Y-102108860D02*
X129936997Y-104514951D01*
X157168588Y-108203137D02*
X158168585Y-108203139D01*
X66129543Y-91139972D02*
X76329542Y-91139972D01*
X157168579Y-105663140D02*
X157533583Y-105663140D01*
X84129548Y-113139972D02*
X94329547Y-113139974D01*
X147475412Y-104065431D02*
X147687795Y-104277812D01*
X111020228Y-95102830D02*
X117548112Y-101630716D01*
X94329546Y-96139968D02*
X84129546Y-96139971D01*
X117548112Y-101630716D02*
X127688481Y-101630716D01*
X103973205Y-95102832D02*
X111020228Y-95102830D01*
X97916195Y-101159841D02*
X103973205Y-95102832D01*
X127688481Y-101630716D02*
X130123195Y-104065432D01*
X89149422Y-101159843D02*
X97916195Y-101159841D01*
X130123195Y-104065432D02*
X147475412Y-104065431D01*
X157533583Y-105663140D02*
X158168579Y-106298141D01*
X94329543Y-79139971D02*
X84129542Y-79139972D01*
X84129547Y-96139968D02*
X89149422Y-101159843D01*
X124220750Y-100731676D02*
X128060876Y-100731674D01*
X157168584Y-100583143D02*
X157533579Y-100583140D01*
X130495591Y-103166391D02*
X148812836Y-103166390D01*
X128060876Y-100731674D02*
X130495591Y-103166391D01*
X148850236Y-103203793D02*
X148854667Y-103208224D01*
X130328547Y-96639469D02*
X120128545Y-96639469D01*
X157533579Y-100583140D02*
X158168575Y-101218140D01*
X120128545Y-96639469D02*
X124220750Y-100731676D01*
X120128548Y-79639471D02*
X130328549Y-79639475D01*
X129192973Y-132386307D02*
X139045418Y-135026260D01*
X148812836Y-103166390D02*
X148854667Y-103208224D01*
X120128545Y-113639476D02*
X130328545Y-113639474D01*
X138129545Y-99139477D02*
X148329547Y-99139473D01*
X147299779Y-138445594D02*
X156133242Y-143545594D01*
X138129549Y-116139472D02*
X148329546Y-116139473D01*
X157168576Y-98043138D02*
X157533586Y-98043141D01*
X138129547Y-82139472D02*
X148329549Y-82139469D01*
X157533586Y-98043141D02*
X158168576Y-98678140D01*
X148329546Y-99139474D02*
X148488294Y-99298223D01*
X159666052Y-85646950D02*
X159666053Y-87661615D01*
X160161028Y-85151970D02*
X159666052Y-85646950D01*
X160161028Y-85151970D02*
X161956408Y-85151972D01*
X161956408Y-85151972D02*
X161994575Y-85190136D01*
X159666053Y-87661615D02*
X159744572Y-87740133D01*
X157263579Y-115823141D02*
X157168578Y-115823144D01*
X159168578Y-113918132D02*
X157263579Y-115823141D01*
X157168578Y-113283141D02*
X157398585Y-113283135D01*
X157398585Y-113283135D02*
X158668579Y-112013136D01*
X157533573Y-110743136D02*
X158168580Y-110108136D01*
X157168577Y-110743133D02*
X157533573Y-110743136D01*
M02*
