G04 #@! TF.GenerationSoftware,KiCad,Pcbnew,7.0.2-0*
G04 #@! TF.CreationDate,2023-05-28T19:55:49+02:00*
G04 #@! TF.ProjectId,arkenswoop,61726b65-6e73-4776-9f6f-702e6b696361,0.4.2*
G04 #@! TF.SameCoordinates,Original*
G04 #@! TF.FileFunction,Soldermask,Top*
G04 #@! TF.FilePolarity,Negative*
%FSLAX46Y46*%
G04 Gerber Fmt 4.6, Leading zero omitted, Abs format (unit mm)*
G04 Created by KiCad (PCBNEW 7.0.2-0) date 2023-05-28 19:55:49*
%MOMM*%
%LPD*%
G01*
G04 APERTURE LIST*
G04 Aperture macros list*
%AMRoundRect*
0 Rectangle with rounded corners*
0 $1 Rounding radius*
0 $2 $3 $4 $5 $6 $7 $8 $9 X,Y pos of 4 corners*
0 Add a 4 corners polygon primitive as box body*
4,1,4,$2,$3,$4,$5,$6,$7,$8,$9,$2,$3,0*
0 Add four circle primitives for the rounded corners*
1,1,$1+$1,$2,$3*
1,1,$1+$1,$4,$5*
1,1,$1+$1,$6,$7*
1,1,$1+$1,$8,$9*
0 Add four rect primitives between the rounded corners*
20,1,$1+$1,$2,$3,$4,$5,0*
20,1,$1+$1,$4,$5,$6,$7,0*
20,1,$1+$1,$6,$7,$8,$9,0*
20,1,$1+$1,$8,$9,$2,$3,0*%
%AMHorizOval*
0 Thick line with rounded ends*
0 $1 width*
0 $2 $3 position (X,Y) of the first rounded end (center of the circle)*
0 $4 $5 position (X,Y) of the second rounded end (center of the circle)*
0 Add line between two ends*
20,1,$1,$2,$3,$4,$5,0*
0 Add two circle primitives to create the rounded ends*
1,1,$1,$2,$3*
1,1,$1,$4,$5*%
%AMFreePoly0*
4,1,22,0.686777,0.580194,0.756366,0.524698,0.794986,0.444504,0.800000,0.400000,0.800000,0.200000,0.780194,0.113223,0.741421,0.058579,0.141421,-0.541421,0.066056,-0.588777,-0.022393,-0.598742,-0.106406,-0.569345,-0.141421,-0.541421,-0.741421,0.058579,-0.788777,0.133944,-0.800000,0.200000,-0.800000,0.400000,-0.780194,0.486777,-0.724698,0.556366,-0.644504,0.594986,-0.600000,0.600000,
0.600000,0.600000,0.686777,0.580194,0.686777,0.580194,$1*%
%AMFreePoly1*
4,1,26,0.706406,1.169345,0.769345,1.106406,0.798742,1.022393,0.800000,1.000000,0.800000,-0.250000,0.780194,-0.336777,0.724698,-0.406366,0.644504,-0.444986,0.600000,-0.450000,-0.600000,-0.450000,-0.686777,-0.430194,-0.756366,-0.374698,-0.794986,-0.294504,-0.800000,-0.250000,-0.800000,1.000000,-0.780194,1.086777,-0.724698,1.156366,-0.644504,1.194986,-0.555496,1.194986,-0.475302,1.156366,
-0.458579,1.141421,0.000000,0.682842,0.458579,1.141421,0.533944,1.188777,0.622393,1.198742,0.706406,1.169345,0.706406,1.169345,$1*%
G04 Aperture macros list end*
%ADD10C,0.100000*%
%ADD11C,4.600000*%
%ADD12C,1.701800*%
%ADD13C,3.429000*%
%ADD14O,2.900000X2.400000*%
%ADD15O,2.000000X2.500000*%
%ADD16FreePoly0,180.000000*%
%ADD17FreePoly1,180.000000*%
%ADD18C,2.000000*%
%ADD19HorizOval,2.400000X0.216506X-0.125000X-0.216506X0.125000X0*%
%ADD20C,0.900000*%
%ADD21RoundRect,0.200000X-0.800000X-0.800000X0.800000X-0.800000X0.800000X0.800000X-0.800000X0.800000X0*%
%ADD22C,3.900000*%
%ADD23FreePoly0,90.000000*%
%ADD24FreePoly0,270.000000*%
%ADD25FreePoly1,270.000000*%
%ADD26FreePoly1,90.000000*%
%ADD27C,0.800000*%
%ADD28O,2.600000X2.100000*%
%ADD29HorizOval,2.400000X0.241481X-0.064705X-0.241481X0.064705X0*%
G04 APERTURE END LIST*
D10*
X115654545Y-70064476D02*
X114804545Y-70064476D01*
X114804545Y-68864476D01*
X115654545Y-68864476D01*
X115654545Y-70064476D01*
G36*
X115654545Y-70064476D02*
G01*
X114804545Y-70064476D01*
X114804545Y-68864476D01*
X115654545Y-68864476D01*
X115654545Y-70064476D01*
G37*
X115654545Y-73614476D02*
X114804545Y-73614476D01*
X114804545Y-72414476D01*
X115654545Y-72414476D01*
X115654545Y-73614476D01*
G36*
X115654545Y-73614476D02*
G01*
X114804545Y-73614476D01*
X114804545Y-72414476D01*
X115654545Y-72414476D01*
X115654545Y-73614476D01*
G37*
X74479541Y-83689973D02*
X72979541Y-83689973D01*
X72979541Y-82939973D01*
X74479541Y-82939973D01*
X74479541Y-83689973D01*
G36*
X74479541Y-83689973D02*
G01*
X72979541Y-83689973D01*
X72979541Y-82939973D01*
X74479541Y-82939973D01*
X74479541Y-83689973D01*
G37*
X74479541Y-81939973D02*
X72979541Y-81939973D01*
X72979541Y-81189973D01*
X74479541Y-81189973D01*
X74479541Y-81939973D01*
G36*
X74479541Y-81939973D02*
G01*
X72979541Y-81939973D01*
X72979541Y-81189973D01*
X74479541Y-81189973D01*
X74479541Y-81939973D01*
G37*
X69479541Y-81939973D02*
X67979541Y-81939973D01*
X67979541Y-81189973D01*
X69479541Y-81189973D01*
X69479541Y-81939973D01*
G36*
X69479541Y-81939973D02*
G01*
X67979541Y-81939973D01*
X67979541Y-81189973D01*
X69479541Y-81189973D01*
X69479541Y-81939973D01*
G37*
X69479541Y-83689973D02*
X68229541Y-83689973D01*
X67979541Y-83439973D01*
X67979541Y-82939973D01*
X69479541Y-82939973D01*
X69479541Y-83689973D01*
G36*
X69479541Y-83689973D02*
G01*
X68229541Y-83689973D01*
X67979541Y-83439973D01*
X67979541Y-82939973D01*
X69479541Y-82939973D01*
X69479541Y-83689973D01*
G37*
X114473509Y-131074094D02*
X113457509Y-131074094D01*
X113457509Y-130058094D01*
X114473509Y-130058094D01*
X114473509Y-131074094D01*
G36*
X114473509Y-131074094D02*
G01*
X113457509Y-131074094D01*
X113457509Y-130058094D01*
X114473509Y-130058094D01*
X114473509Y-131074094D01*
G37*
X117013509Y-131074094D02*
X115997509Y-131074094D01*
X115997509Y-130058094D01*
X117013509Y-130058094D01*
X117013509Y-131074094D01*
G36*
X117013509Y-131074094D02*
G01*
X115997509Y-131074094D01*
X115997509Y-130058094D01*
X117013509Y-130058094D01*
X117013509Y-131074094D01*
G37*
X119553509Y-131074094D02*
X118537509Y-131074094D01*
X118537509Y-130058094D01*
X119553509Y-130058094D01*
X119553509Y-131074094D01*
G36*
X119553509Y-131074094D02*
G01*
X118537509Y-131074094D01*
X118537509Y-130058094D01*
X119553509Y-130058094D01*
X119553509Y-131074094D01*
G37*
X146479547Y-74689469D02*
X144979547Y-74689469D01*
X144979547Y-73939469D01*
X146479547Y-73939469D01*
X146479547Y-74689469D01*
G36*
X146479547Y-74689469D02*
G01*
X144979547Y-74689469D01*
X144979547Y-73939469D01*
X146479547Y-73939469D01*
X146479547Y-74689469D01*
G37*
X146479547Y-72939469D02*
X144979547Y-72939469D01*
X144979547Y-72189469D01*
X146479547Y-72189469D01*
X146479547Y-72939469D01*
G36*
X146479547Y-72939469D02*
G01*
X144979547Y-72939469D01*
X144979547Y-72189469D01*
X146479547Y-72189469D01*
X146479547Y-72939469D01*
G37*
X141479547Y-72939469D02*
X139979547Y-72939469D01*
X139979547Y-72189469D01*
X141479547Y-72189469D01*
X141479547Y-72939469D01*
G36*
X141479547Y-72939469D02*
G01*
X139979547Y-72939469D01*
X139979547Y-72189469D01*
X141479547Y-72189469D01*
X141479547Y-72939469D01*
G37*
X141479547Y-74689469D02*
X140229547Y-74689469D01*
X139979547Y-74439469D01*
X139979547Y-73939469D01*
X141479547Y-73939469D01*
X141479547Y-74689469D01*
G36*
X141479547Y-74689469D02*
G01*
X140229547Y-74689469D01*
X139979547Y-74439469D01*
X139979547Y-73939469D01*
X141479547Y-73939469D01*
X141479547Y-74689469D01*
G37*
X79654545Y-105064969D02*
X78804545Y-105064969D01*
X78804545Y-103864969D01*
X79654545Y-103864969D01*
X79654545Y-105064969D01*
G36*
X79654545Y-105064969D02*
G01*
X78804545Y-105064969D01*
X78804545Y-103864969D01*
X79654545Y-103864969D01*
X79654545Y-105064969D01*
G37*
X79654545Y-108614969D02*
X78804545Y-108614969D01*
X78804545Y-107414969D01*
X79654545Y-107414969D01*
X79654545Y-108614969D01*
G36*
X79654545Y-108614969D02*
G01*
X78804545Y-108614969D01*
X78804545Y-107414969D01*
X79654545Y-107414969D01*
X79654545Y-108614969D01*
G37*
X92479543Y-71689972D02*
X90979543Y-71689972D01*
X90979543Y-70939972D01*
X92479543Y-70939972D01*
X92479543Y-71689972D01*
G36*
X92479543Y-71689972D02*
G01*
X90979543Y-71689972D01*
X90979543Y-70939972D01*
X92479543Y-70939972D01*
X92479543Y-71689972D01*
G37*
X92479543Y-69939972D02*
X90979543Y-69939972D01*
X90979543Y-69189972D01*
X92479543Y-69189972D01*
X92479543Y-69939972D01*
G36*
X92479543Y-69939972D02*
G01*
X90979543Y-69939972D01*
X90979543Y-69189972D01*
X92479543Y-69189972D01*
X92479543Y-69939972D01*
G37*
X87479543Y-69939972D02*
X85979543Y-69939972D01*
X85979543Y-69189972D01*
X87479543Y-69189972D01*
X87479543Y-69939972D01*
G36*
X87479543Y-69939972D02*
G01*
X85979543Y-69939972D01*
X85979543Y-69189972D01*
X87479543Y-69189972D01*
X87479543Y-69939972D01*
G37*
X87479543Y-71689972D02*
X86229543Y-71689972D01*
X85979543Y-71439972D01*
X85979543Y-70939972D01*
X87479543Y-70939972D01*
X87479543Y-71689972D01*
G36*
X87479543Y-71689972D02*
G01*
X86229543Y-71689972D01*
X85979543Y-71439972D01*
X85979543Y-70939972D01*
X87479543Y-70939972D01*
X87479543Y-71689972D01*
G37*
X110479547Y-99689471D02*
X108979547Y-99689471D01*
X108979547Y-98939471D01*
X110479547Y-98939471D01*
X110479547Y-99689471D01*
G36*
X110479547Y-99689471D02*
G01*
X108979547Y-99689471D01*
X108979547Y-98939471D01*
X110479547Y-98939471D01*
X110479547Y-99689471D01*
G37*
X110479547Y-97939471D02*
X108979547Y-97939471D01*
X108979547Y-97189471D01*
X110479547Y-97189471D01*
X110479547Y-97939471D01*
G36*
X110479547Y-97939471D02*
G01*
X108979547Y-97939471D01*
X108979547Y-97189471D01*
X110479547Y-97189471D01*
X110479547Y-97939471D01*
G37*
X105479547Y-97939471D02*
X103979547Y-97939471D01*
X103979547Y-97189471D01*
X105479547Y-97189471D01*
X105479547Y-97939471D01*
G36*
X105479547Y-97939471D02*
G01*
X103979547Y-97939471D01*
X103979547Y-97189471D01*
X105479547Y-97189471D01*
X105479547Y-97939471D01*
G37*
X105479547Y-99689471D02*
X104229547Y-99689471D01*
X103979547Y-99439471D01*
X103979547Y-98939471D01*
X105479547Y-98939471D01*
X105479547Y-99689471D01*
G36*
X105479547Y-99689471D02*
G01*
X104229547Y-99689471D01*
X103979547Y-99439471D01*
X103979547Y-98939471D01*
X105479547Y-98939471D01*
X105479547Y-99689471D01*
G37*
X170284349Y-122342734D02*
X168684349Y-122342734D01*
X168684349Y-121542734D01*
X170284349Y-121542734D01*
X170284349Y-122342734D01*
G36*
X170284349Y-122342734D02*
G01*
X168684349Y-122342734D01*
X168684349Y-121542734D01*
X170284349Y-121542734D01*
X170284349Y-122342734D01*
G37*
X170284349Y-118942734D02*
X168684349Y-118942734D01*
X168684349Y-118142734D01*
X170284349Y-118142734D01*
X170284349Y-118942734D01*
G36*
X170284349Y-118942734D02*
G01*
X168684349Y-118942734D01*
X168684349Y-118142734D01*
X170284349Y-118142734D01*
X170284349Y-118942734D01*
G37*
X79654544Y-88064965D02*
X78804544Y-88064965D01*
X78804544Y-86864965D01*
X79654544Y-86864965D01*
X79654544Y-88064965D01*
G36*
X79654544Y-88064965D02*
G01*
X78804544Y-88064965D01*
X78804544Y-86864965D01*
X79654544Y-86864965D01*
X79654544Y-88064965D01*
G37*
X79654544Y-91614965D02*
X78804544Y-91614965D01*
X78804544Y-90414965D01*
X79654544Y-90414965D01*
X79654544Y-91614965D01*
G36*
X79654544Y-91614965D02*
G01*
X78804544Y-91614965D01*
X78804544Y-90414965D01*
X79654544Y-90414965D01*
X79654544Y-91614965D01*
G37*
X110479543Y-65689473D02*
X108979543Y-65689473D01*
X108979543Y-64939473D01*
X110479543Y-64939473D01*
X110479543Y-65689473D01*
G36*
X110479543Y-65689473D02*
G01*
X108979543Y-65689473D01*
X108979543Y-64939473D01*
X110479543Y-64939473D01*
X110479543Y-65689473D01*
G37*
X110479543Y-63939473D02*
X108979543Y-63939473D01*
X108979543Y-63189473D01*
X110479543Y-63189473D01*
X110479543Y-63939473D01*
G36*
X110479543Y-63939473D02*
G01*
X108979543Y-63939473D01*
X108979543Y-63189473D01*
X110479543Y-63189473D01*
X110479543Y-63939473D01*
G37*
X105479543Y-63939473D02*
X103979543Y-63939473D01*
X103979543Y-63189473D01*
X105479543Y-63189473D01*
X105479543Y-63939473D01*
G36*
X105479543Y-63939473D02*
G01*
X103979543Y-63939473D01*
X103979543Y-63189473D01*
X105479543Y-63189473D01*
X105479543Y-63939473D01*
G37*
X105479543Y-65689473D02*
X104229543Y-65689473D01*
X103979543Y-65439473D01*
X103979543Y-64939473D01*
X105479543Y-64939473D01*
X105479543Y-65689473D01*
G36*
X105479543Y-65689473D02*
G01*
X104229543Y-65689473D01*
X103979543Y-65439473D01*
X103979543Y-64939473D01*
X105479543Y-64939473D01*
X105479543Y-65689473D01*
G37*
X146479547Y-91689475D02*
X144979547Y-91689475D01*
X144979547Y-90939475D01*
X146479547Y-90939475D01*
X146479547Y-91689475D01*
G36*
X146479547Y-91689475D02*
G01*
X144979547Y-91689475D01*
X144979547Y-90939475D01*
X146479547Y-90939475D01*
X146479547Y-91689475D01*
G37*
X146479547Y-89939475D02*
X144979547Y-89939475D01*
X144979547Y-89189475D01*
X146479547Y-89189475D01*
X146479547Y-89939475D01*
G36*
X146479547Y-89939475D02*
G01*
X144979547Y-89939475D01*
X144979547Y-89189475D01*
X146479547Y-89189475D01*
X146479547Y-89939475D01*
G37*
X141479547Y-89939475D02*
X139979547Y-89939475D01*
X139979547Y-89189475D01*
X141479547Y-89189475D01*
X141479547Y-89939475D01*
G36*
X141479547Y-89939475D02*
G01*
X139979547Y-89939475D01*
X139979547Y-89189475D01*
X141479547Y-89189475D01*
X141479547Y-89939475D01*
G37*
X141479547Y-91689475D02*
X140229547Y-91689475D01*
X139979547Y-91439475D01*
X139979547Y-90939475D01*
X141479547Y-90939475D01*
X141479547Y-91689475D01*
G36*
X141479547Y-91689475D02*
G01*
X140229547Y-91689475D01*
X139979547Y-91439475D01*
X139979547Y-90939475D01*
X141479547Y-90939475D01*
X141479547Y-91689475D01*
G37*
X166094573Y-87440134D02*
X165194573Y-87440134D01*
X165194573Y-86740134D01*
X166094573Y-86740134D01*
X166094573Y-87440134D01*
G36*
X166094573Y-87440134D02*
G01*
X165194573Y-87440134D01*
X165194573Y-86740134D01*
X166094573Y-86740134D01*
X166094573Y-87440134D01*
G37*
X166094573Y-85240134D02*
X165194573Y-85240134D01*
X165194573Y-84540134D01*
X166094573Y-84540134D01*
X166094573Y-85240134D01*
G36*
X166094573Y-85240134D02*
G01*
X165194573Y-85240134D01*
X165194573Y-84540134D01*
X166094573Y-84540134D01*
X166094573Y-85240134D01*
G37*
X164544573Y-88440134D02*
X163944573Y-88440134D01*
X163944573Y-87040134D01*
X164544573Y-87040134D01*
X164544573Y-88440134D01*
G36*
X164544573Y-88440134D02*
G01*
X163944573Y-88440134D01*
X163944573Y-87040134D01*
X164544573Y-87040134D01*
X164544573Y-88440134D01*
G37*
X161544573Y-88440134D02*
X160944573Y-88440134D01*
X160944573Y-87040134D01*
X161544573Y-87040134D01*
X161544573Y-88440134D01*
G36*
X161544573Y-88440134D02*
G01*
X160944573Y-88440134D01*
X160944573Y-87040134D01*
X161544573Y-87040134D01*
X161544573Y-88440134D01*
G37*
X160044573Y-88440134D02*
X159444573Y-88440134D01*
X159444573Y-87040134D01*
X160044573Y-87040134D01*
X160044573Y-88440134D01*
G36*
X160044573Y-88440134D02*
G01*
X159444573Y-88440134D01*
X159444573Y-87040134D01*
X160044573Y-87040134D01*
X160044573Y-88440134D01*
G37*
X158794573Y-87440134D02*
X157894573Y-87440134D01*
X157894573Y-86740134D01*
X158794573Y-86740134D01*
X158794573Y-87440134D01*
G36*
X158794573Y-87440134D02*
G01*
X157894573Y-87440134D01*
X157894573Y-86740134D01*
X158794573Y-86740134D01*
X158794573Y-87440134D01*
G37*
X158794573Y-85240134D02*
X157894573Y-85240134D01*
X157894573Y-84540134D01*
X158794573Y-84540134D01*
X158794573Y-85240134D01*
G36*
X158794573Y-85240134D02*
G01*
X157894573Y-85240134D01*
X157894573Y-84540134D01*
X158794573Y-84540134D01*
X158794573Y-85240134D01*
G37*
X158631093Y-135519182D02*
X158256093Y-136168701D01*
X156957054Y-135418701D01*
X157332054Y-134769182D01*
X158631093Y-135519182D01*
G36*
X158631093Y-135519182D02*
G01*
X158256093Y-136168701D01*
X156957054Y-135418701D01*
X157332054Y-134769182D01*
X158631093Y-135519182D01*
G37*
X159506093Y-134003638D02*
X159131093Y-134653157D01*
X157832054Y-133903157D01*
X158207054Y-133253638D01*
X159506093Y-134003638D01*
G36*
X159506093Y-134003638D02*
G01*
X159131093Y-134653157D01*
X157832054Y-133903157D01*
X158207054Y-133253638D01*
X159506093Y-134003638D01*
G37*
X155175966Y-131503638D02*
X154800966Y-132153157D01*
X153501927Y-131403157D01*
X153876927Y-130753638D01*
X155175966Y-131503638D01*
G36*
X155175966Y-131503638D02*
G01*
X154800966Y-132153157D01*
X153501927Y-131403157D01*
X153876927Y-130753638D01*
X155175966Y-131503638D01*
G37*
X154300966Y-133019182D02*
X153925966Y-133668701D01*
X152843434Y-133043701D01*
X152751927Y-132702195D01*
X153001927Y-132269182D01*
X154300966Y-133019182D01*
G36*
X154300966Y-133019182D02*
G01*
X153925966Y-133668701D01*
X152843434Y-133043701D01*
X152751927Y-132702195D01*
X153001927Y-132269182D01*
X154300966Y-133019182D01*
G37*
X135654544Y-110564474D02*
X134804544Y-110564474D01*
X134804544Y-109364474D01*
X135654544Y-109364474D01*
X135654544Y-110564474D01*
G36*
X135654544Y-110564474D02*
G01*
X134804544Y-110564474D01*
X134804544Y-109364474D01*
X135654544Y-109364474D01*
X135654544Y-110564474D01*
G37*
X135654544Y-114114474D02*
X134804544Y-114114474D01*
X134804544Y-112914474D01*
X135654544Y-112914474D01*
X135654544Y-114114474D01*
G36*
X135654544Y-114114474D02*
G01*
X134804544Y-114114474D01*
X134804544Y-112914474D01*
X135654544Y-112914474D01*
X135654544Y-114114474D01*
G37*
X133653549Y-76564472D02*
X132803549Y-76564472D01*
X132803549Y-75364472D01*
X133653549Y-75364472D01*
X133653549Y-76564472D01*
G36*
X133653549Y-76564472D02*
G01*
X132803549Y-76564472D01*
X132803549Y-75364472D01*
X133653549Y-75364472D01*
X133653549Y-76564472D01*
G37*
X133653549Y-80114472D02*
X132803549Y-80114472D01*
X132803549Y-78914472D01*
X133653549Y-78914472D01*
X133653549Y-80114472D01*
G36*
X133653549Y-80114472D02*
G01*
X132803549Y-80114472D01*
X132803549Y-78914472D01*
X133653549Y-78914472D01*
X133653549Y-80114472D01*
G37*
X115654549Y-87064466D02*
X114804549Y-87064466D01*
X114804549Y-85864466D01*
X115654549Y-85864466D01*
X115654549Y-87064466D01*
G36*
X115654549Y-87064466D02*
G01*
X114804549Y-87064466D01*
X114804549Y-85864466D01*
X115654549Y-85864466D01*
X115654549Y-87064466D01*
G37*
X115654549Y-90614466D02*
X114804549Y-90614466D01*
X114804549Y-89414466D01*
X115654549Y-89414466D01*
X115654549Y-90614466D01*
G36*
X115654549Y-90614466D02*
G01*
X114804549Y-90614466D01*
X114804549Y-89414466D01*
X115654549Y-89414466D01*
X115654549Y-90614466D01*
G37*
X133653550Y-93564471D02*
X132803550Y-93564471D01*
X132803550Y-92364471D01*
X133653550Y-92364471D01*
X133653550Y-93564471D01*
G36*
X133653550Y-93564471D02*
G01*
X132803550Y-93564471D01*
X132803550Y-92364471D01*
X133653550Y-92364471D01*
X133653550Y-93564471D01*
G37*
X133653550Y-97114471D02*
X132803550Y-97114471D01*
X132803550Y-95914471D01*
X133653550Y-95914471D01*
X133653550Y-97114471D01*
G36*
X133653550Y-97114471D02*
G01*
X132803550Y-97114471D01*
X132803550Y-95914471D01*
X133653550Y-95914471D01*
X133653550Y-97114471D01*
G37*
X135654551Y-76564473D02*
X134804551Y-76564473D01*
X134804551Y-75364473D01*
X135654551Y-75364473D01*
X135654551Y-76564473D01*
G36*
X135654551Y-76564473D02*
G01*
X134804551Y-76564473D01*
X134804551Y-75364473D01*
X135654551Y-75364473D01*
X135654551Y-76564473D01*
G37*
X135654551Y-80114473D02*
X134804551Y-80114473D01*
X134804551Y-78914473D01*
X135654551Y-78914473D01*
X135654551Y-80114473D01*
G36*
X135654551Y-80114473D02*
G01*
X134804551Y-80114473D01*
X134804551Y-78914473D01*
X135654551Y-78914473D01*
X135654551Y-80114473D01*
G37*
X156914574Y-88391137D02*
X155898574Y-88391137D01*
X155898574Y-87375137D01*
X156914574Y-87375137D01*
X156914574Y-88391137D01*
G36*
X156914574Y-88391137D02*
G01*
X155898574Y-88391137D01*
X155898574Y-87375137D01*
X156914574Y-87375137D01*
X156914574Y-88391137D01*
G37*
X156914574Y-90931137D02*
X155898574Y-90931137D01*
X155898574Y-89915137D01*
X156914574Y-89915137D01*
X156914574Y-90931137D01*
G36*
X156914574Y-90931137D02*
G01*
X155898574Y-90931137D01*
X155898574Y-89915137D01*
X156914574Y-89915137D01*
X156914574Y-90931137D01*
G37*
X156914574Y-93471137D02*
X155898574Y-93471137D01*
X155898574Y-92455137D01*
X156914574Y-92455137D01*
X156914574Y-93471137D01*
G36*
X156914574Y-93471137D02*
G01*
X155898574Y-93471137D01*
X155898574Y-92455137D01*
X156914574Y-92455137D01*
X156914574Y-93471137D01*
G37*
X156914574Y-96011137D02*
X155898574Y-96011137D01*
X155898574Y-94995137D01*
X156914574Y-94995137D01*
X156914574Y-96011137D01*
G36*
X156914574Y-96011137D02*
G01*
X155898574Y-96011137D01*
X155898574Y-94995137D01*
X156914574Y-94995137D01*
X156914574Y-96011137D01*
G37*
X156914574Y-98551137D02*
X155898574Y-98551137D01*
X155898574Y-97535137D01*
X156914574Y-97535137D01*
X156914574Y-98551137D01*
G36*
X156914574Y-98551137D02*
G01*
X155898574Y-98551137D01*
X155898574Y-97535137D01*
X156914574Y-97535137D01*
X156914574Y-98551137D01*
G37*
X156914574Y-101091137D02*
X155898574Y-101091137D01*
X155898574Y-100075137D01*
X156914574Y-100075137D01*
X156914574Y-101091137D01*
G36*
X156914574Y-101091137D02*
G01*
X155898574Y-101091137D01*
X155898574Y-100075137D01*
X156914574Y-100075137D01*
X156914574Y-101091137D01*
G37*
X156914574Y-103631137D02*
X155898574Y-103631137D01*
X155898574Y-102615137D01*
X156914574Y-102615137D01*
X156914574Y-103631137D01*
G36*
X156914574Y-103631137D02*
G01*
X155898574Y-103631137D01*
X155898574Y-102615137D01*
X156914574Y-102615137D01*
X156914574Y-103631137D01*
G37*
X156914574Y-106171137D02*
X155898574Y-106171137D01*
X155898574Y-105155137D01*
X156914574Y-105155137D01*
X156914574Y-106171137D01*
G36*
X156914574Y-106171137D02*
G01*
X155898574Y-106171137D01*
X155898574Y-105155137D01*
X156914574Y-105155137D01*
X156914574Y-106171137D01*
G37*
X156914574Y-108711137D02*
X155898574Y-108711137D01*
X155898574Y-107695137D01*
X156914574Y-107695137D01*
X156914574Y-108711137D01*
G36*
X156914574Y-108711137D02*
G01*
X155898574Y-108711137D01*
X155898574Y-107695137D01*
X156914574Y-107695137D01*
X156914574Y-108711137D01*
G37*
X156914574Y-111251137D02*
X155898574Y-111251137D01*
X155898574Y-110235137D01*
X156914574Y-110235137D01*
X156914574Y-111251137D01*
G36*
X156914574Y-111251137D02*
G01*
X155898574Y-111251137D01*
X155898574Y-110235137D01*
X156914574Y-110235137D01*
X156914574Y-111251137D01*
G37*
X156914574Y-113791137D02*
X155898574Y-113791137D01*
X155898574Y-112775137D01*
X156914574Y-112775137D01*
X156914574Y-113791137D01*
G36*
X156914574Y-113791137D02*
G01*
X155898574Y-113791137D01*
X155898574Y-112775137D01*
X156914574Y-112775137D01*
X156914574Y-113791137D01*
G37*
X156914574Y-116331137D02*
X155898574Y-116331137D01*
X155898574Y-115315137D01*
X156914574Y-115315137D01*
X156914574Y-116331137D01*
G36*
X156914574Y-116331137D02*
G01*
X155898574Y-116331137D01*
X155898574Y-115315137D01*
X156914574Y-115315137D01*
X156914574Y-116331137D01*
G37*
X168090574Y-88391137D02*
X167074574Y-88391137D01*
X167074574Y-87375137D01*
X168090574Y-87375137D01*
X168090574Y-88391137D01*
G36*
X168090574Y-88391137D02*
G01*
X167074574Y-88391137D01*
X167074574Y-87375137D01*
X168090574Y-87375137D01*
X168090574Y-88391137D01*
G37*
X168090574Y-90931137D02*
X167074574Y-90931137D01*
X167074574Y-89915137D01*
X168090574Y-89915137D01*
X168090574Y-90931137D01*
G36*
X168090574Y-90931137D02*
G01*
X167074574Y-90931137D01*
X167074574Y-89915137D01*
X168090574Y-89915137D01*
X168090574Y-90931137D01*
G37*
X168090574Y-93471137D02*
X167074574Y-93471137D01*
X167074574Y-92455137D01*
X168090574Y-92455137D01*
X168090574Y-93471137D01*
G36*
X168090574Y-93471137D02*
G01*
X167074574Y-93471137D01*
X167074574Y-92455137D01*
X168090574Y-92455137D01*
X168090574Y-93471137D01*
G37*
X168090574Y-96011137D02*
X167074574Y-96011137D01*
X167074574Y-94995137D01*
X168090574Y-94995137D01*
X168090574Y-96011137D01*
G36*
X168090574Y-96011137D02*
G01*
X167074574Y-96011137D01*
X167074574Y-94995137D01*
X168090574Y-94995137D01*
X168090574Y-96011137D01*
G37*
X168090574Y-98551137D02*
X167074574Y-98551137D01*
X167074574Y-97535137D01*
X168090574Y-97535137D01*
X168090574Y-98551137D01*
G36*
X168090574Y-98551137D02*
G01*
X167074574Y-98551137D01*
X167074574Y-97535137D01*
X168090574Y-97535137D01*
X168090574Y-98551137D01*
G37*
X168090574Y-101091137D02*
X167074574Y-101091137D01*
X167074574Y-100075137D01*
X168090574Y-100075137D01*
X168090574Y-101091137D01*
G36*
X168090574Y-101091137D02*
G01*
X167074574Y-101091137D01*
X167074574Y-100075137D01*
X168090574Y-100075137D01*
X168090574Y-101091137D01*
G37*
X168090574Y-103631137D02*
X167074574Y-103631137D01*
X167074574Y-102615137D01*
X168090574Y-102615137D01*
X168090574Y-103631137D01*
G36*
X168090574Y-103631137D02*
G01*
X167074574Y-103631137D01*
X167074574Y-102615137D01*
X168090574Y-102615137D01*
X168090574Y-103631137D01*
G37*
X168090574Y-106171137D02*
X167074574Y-106171137D01*
X167074574Y-105155137D01*
X168090574Y-105155137D01*
X168090574Y-106171137D01*
G36*
X168090574Y-106171137D02*
G01*
X167074574Y-106171137D01*
X167074574Y-105155137D01*
X168090574Y-105155137D01*
X168090574Y-106171137D01*
G37*
X168090574Y-108711137D02*
X167074574Y-108711137D01*
X167074574Y-107695137D01*
X168090574Y-107695137D01*
X168090574Y-108711137D01*
G36*
X168090574Y-108711137D02*
G01*
X167074574Y-108711137D01*
X167074574Y-107695137D01*
X168090574Y-107695137D01*
X168090574Y-108711137D01*
G37*
X168090574Y-111251137D02*
X167074574Y-111251137D01*
X167074574Y-110235137D01*
X168090574Y-110235137D01*
X168090574Y-111251137D01*
G36*
X168090574Y-111251137D02*
G01*
X167074574Y-111251137D01*
X167074574Y-110235137D01*
X168090574Y-110235137D01*
X168090574Y-111251137D01*
G37*
X168090574Y-113791137D02*
X167074574Y-113791137D01*
X167074574Y-112775137D01*
X168090574Y-112775137D01*
X168090574Y-113791137D01*
G36*
X168090574Y-113791137D02*
G01*
X167074574Y-113791137D01*
X167074574Y-112775137D01*
X168090574Y-112775137D01*
X168090574Y-113791137D01*
G37*
X168090574Y-116331137D02*
X167074574Y-116331137D01*
X167074574Y-115315137D01*
X168090574Y-115315137D01*
X168090574Y-116331137D01*
G36*
X168090574Y-116331137D02*
G01*
X167074574Y-116331137D01*
X167074574Y-115315137D01*
X168090574Y-115315137D01*
X168090574Y-116331137D01*
G37*
X79654546Y-122064971D02*
X78804546Y-122064971D01*
X78804546Y-120864971D01*
X79654546Y-120864971D01*
X79654546Y-122064971D01*
G36*
X79654546Y-122064971D02*
G01*
X78804546Y-122064971D01*
X78804546Y-120864971D01*
X79654546Y-120864971D01*
X79654546Y-122064971D01*
G37*
X79654546Y-125614971D02*
X78804546Y-125614971D01*
X78804546Y-124414971D01*
X79654546Y-124414971D01*
X79654546Y-125614971D01*
G36*
X79654546Y-125614971D02*
G01*
X78804546Y-125614971D01*
X78804546Y-124414971D01*
X79654546Y-124414971D01*
X79654546Y-125614971D01*
G37*
X110479545Y-82689469D02*
X108979545Y-82689469D01*
X108979545Y-81939469D01*
X110479545Y-81939469D01*
X110479545Y-82689469D01*
G36*
X110479545Y-82689469D02*
G01*
X108979545Y-82689469D01*
X108979545Y-81939469D01*
X110479545Y-81939469D01*
X110479545Y-82689469D01*
G37*
X110479545Y-80939469D02*
X108979545Y-80939469D01*
X108979545Y-80189469D01*
X110479545Y-80189469D01*
X110479545Y-80939469D01*
G36*
X110479545Y-80939469D02*
G01*
X108979545Y-80939469D01*
X108979545Y-80189469D01*
X110479545Y-80189469D01*
X110479545Y-80939469D01*
G37*
X105479545Y-80939469D02*
X103979545Y-80939469D01*
X103979545Y-80189469D01*
X105479545Y-80189469D01*
X105479545Y-80939469D01*
G36*
X105479545Y-80939469D02*
G01*
X103979545Y-80939469D01*
X103979545Y-80189469D01*
X105479545Y-80189469D01*
X105479545Y-80939469D01*
G37*
X105479545Y-82689469D02*
X104229545Y-82689469D01*
X103979545Y-82439469D01*
X103979545Y-81939469D01*
X105479545Y-81939469D01*
X105479545Y-82689469D01*
G36*
X105479545Y-82689469D02*
G01*
X104229545Y-82689469D01*
X103979545Y-82439469D01*
X103979545Y-81939469D01*
X105479545Y-81939469D01*
X105479545Y-82689469D01*
G37*
X158692753Y-119338826D02*
X157676753Y-119338826D01*
X157676753Y-118322826D01*
X158692753Y-118322826D01*
X158692753Y-119338826D01*
G36*
X158692753Y-119338826D02*
G01*
X157676753Y-119338826D01*
X157676753Y-118322826D01*
X158692753Y-118322826D01*
X158692753Y-119338826D01*
G37*
X161232753Y-119338826D02*
X160216753Y-119338826D01*
X160216753Y-118322826D01*
X161232753Y-118322826D01*
X161232753Y-119338826D01*
G36*
X161232753Y-119338826D02*
G01*
X160216753Y-119338826D01*
X160216753Y-118322826D01*
X161232753Y-118322826D01*
X161232753Y-119338826D01*
G37*
X163772753Y-119338826D02*
X162756753Y-119338826D01*
X162756753Y-118322826D01*
X163772753Y-118322826D01*
X163772753Y-119338826D01*
G36*
X163772753Y-119338826D02*
G01*
X162756753Y-119338826D01*
X162756753Y-118322826D01*
X163772753Y-118322826D01*
X163772753Y-119338826D01*
G37*
X166312753Y-119338826D02*
X165296753Y-119338826D01*
X165296753Y-118322826D01*
X166312753Y-118322826D01*
X166312753Y-119338826D01*
G36*
X166312753Y-119338826D02*
G01*
X165296753Y-119338826D01*
X165296753Y-118322826D01*
X166312753Y-118322826D01*
X166312753Y-119338826D01*
G37*
X133653546Y-110564475D02*
X132803546Y-110564475D01*
X132803546Y-109364475D01*
X133653546Y-109364475D01*
X133653546Y-110564475D01*
G36*
X133653546Y-110564475D02*
G01*
X132803546Y-110564475D01*
X132803546Y-109364475D01*
X133653546Y-109364475D01*
X133653546Y-110564475D01*
G37*
X133653546Y-114114475D02*
X132803546Y-114114475D01*
X132803546Y-112914475D01*
X133653546Y-112914475D01*
X133653546Y-114114475D01*
G36*
X133653546Y-114114475D02*
G01*
X132803546Y-114114475D01*
X132803546Y-112914475D01*
X133653546Y-112914475D01*
X133653546Y-114114475D01*
G37*
X127908762Y-127616393D02*
X127598179Y-128775504D01*
X126777142Y-128555508D01*
X127087725Y-127396397D01*
X127908762Y-127616393D01*
G36*
X127908762Y-127616393D02*
G01*
X127598179Y-128775504D01*
X126777142Y-128555508D01*
X127087725Y-127396397D01*
X127908762Y-127616393D01*
G37*
X126989954Y-131045430D02*
X126679371Y-132204541D01*
X125858334Y-131984545D01*
X126168917Y-130825434D01*
X126989954Y-131045430D01*
G36*
X126989954Y-131045430D02*
G01*
X126679371Y-132204541D01*
X125858334Y-131984545D01*
X126168917Y-130825434D01*
X126989954Y-131045430D01*
G37*
X97654541Y-93064973D02*
X96804541Y-93064973D01*
X96804541Y-91864973D01*
X97654541Y-91864973D01*
X97654541Y-93064973D01*
G36*
X97654541Y-93064973D02*
G01*
X96804541Y-93064973D01*
X96804541Y-91864973D01*
X97654541Y-91864973D01*
X97654541Y-93064973D01*
G37*
X97654541Y-96614973D02*
X96804541Y-96614973D01*
X96804541Y-95414973D01*
X97654541Y-95414973D01*
X97654541Y-96614973D01*
G36*
X97654541Y-96614973D02*
G01*
X96804541Y-96614973D01*
X96804541Y-95414973D01*
X97654541Y-95414973D01*
X97654541Y-96614973D01*
G37*
X74479545Y-117689972D02*
X72979545Y-117689972D01*
X72979545Y-116939972D01*
X74479545Y-116939972D01*
X74479545Y-117689972D01*
G36*
X74479545Y-117689972D02*
G01*
X72979545Y-117689972D01*
X72979545Y-116939972D01*
X74479545Y-116939972D01*
X74479545Y-117689972D01*
G37*
X74479545Y-115939972D02*
X72979545Y-115939972D01*
X72979545Y-115189972D01*
X74479545Y-115189972D01*
X74479545Y-115939972D01*
G36*
X74479545Y-115939972D02*
G01*
X72979545Y-115939972D01*
X72979545Y-115189972D01*
X74479545Y-115189972D01*
X74479545Y-115939972D01*
G37*
X69479545Y-115939972D02*
X67979545Y-115939972D01*
X67979545Y-115189972D01*
X69479545Y-115189972D01*
X69479545Y-115939972D01*
G36*
X69479545Y-115939972D02*
G01*
X67979545Y-115939972D01*
X67979545Y-115189972D01*
X69479545Y-115189972D01*
X69479545Y-115939972D01*
G37*
X69479545Y-117689972D02*
X68229545Y-117689972D01*
X67979545Y-117439972D01*
X67979545Y-116939972D01*
X69479545Y-116939972D01*
X69479545Y-117689972D01*
G36*
X69479545Y-117689972D02*
G01*
X68229545Y-117689972D01*
X67979545Y-117439972D01*
X67979545Y-116939972D01*
X69479545Y-116939972D01*
X69479545Y-117689972D01*
G37*
X97654544Y-110064972D02*
X96804544Y-110064972D01*
X96804544Y-108864972D01*
X97654544Y-108864972D01*
X97654544Y-110064972D01*
G36*
X97654544Y-110064972D02*
G01*
X96804544Y-110064972D01*
X96804544Y-108864972D01*
X97654544Y-108864972D01*
X97654544Y-110064972D01*
G37*
X97654544Y-113614972D02*
X96804544Y-113614972D01*
X96804544Y-112414972D01*
X97654544Y-112414972D01*
X97654544Y-113614972D01*
G36*
X97654544Y-113614972D02*
G01*
X96804544Y-113614972D01*
X96804544Y-112414972D01*
X97654544Y-112414972D01*
X97654544Y-113614972D01*
G37*
X139380767Y-126626853D02*
X139186653Y-127351298D01*
X137737764Y-126963069D01*
X137931879Y-126238625D01*
X139380767Y-126626853D01*
G36*
X139380767Y-126626853D02*
G01*
X139186653Y-127351298D01*
X137737764Y-126963069D01*
X137931879Y-126238625D01*
X139380767Y-126626853D01*
G37*
X139833701Y-124936483D02*
X139639586Y-125660927D01*
X138190698Y-125272699D01*
X138384812Y-124548254D01*
X139833701Y-124936483D01*
G36*
X139833701Y-124936483D02*
G01*
X139639586Y-125660927D01*
X138190698Y-125272699D01*
X138384812Y-124548254D01*
X139833701Y-124936483D01*
G37*
X135004072Y-123642388D02*
X134809957Y-124366832D01*
X133361068Y-123978604D01*
X133555183Y-123254159D01*
X135004072Y-123642388D01*
G36*
X135004072Y-123642388D02*
G01*
X134809957Y-124366832D01*
X133361068Y-123978604D01*
X133555183Y-123254159D01*
X135004072Y-123642388D01*
G37*
X134551138Y-125332758D02*
X134357024Y-126057202D01*
X133149617Y-125733679D01*
X132972840Y-125427492D01*
X133102249Y-124944529D01*
X134551138Y-125332758D01*
G36*
X134551138Y-125332758D02*
G01*
X134357024Y-126057202D01*
X133149617Y-125733679D01*
X132972840Y-125427492D01*
X133102249Y-124944529D01*
X134551138Y-125332758D01*
G37*
X128478545Y-106189471D02*
X126978545Y-106189471D01*
X126978545Y-105439471D01*
X128478545Y-105439471D01*
X128478545Y-106189471D01*
G36*
X128478545Y-106189471D02*
G01*
X126978545Y-106189471D01*
X126978545Y-105439471D01*
X128478545Y-105439471D01*
X128478545Y-106189471D01*
G37*
X128478545Y-104439471D02*
X126978545Y-104439471D01*
X126978545Y-103689471D01*
X128478545Y-103689471D01*
X128478545Y-104439471D01*
G36*
X128478545Y-104439471D02*
G01*
X126978545Y-104439471D01*
X126978545Y-103689471D01*
X128478545Y-103689471D01*
X128478545Y-104439471D01*
G37*
X123478545Y-104439471D02*
X121978545Y-104439471D01*
X121978545Y-103689471D01*
X123478545Y-103689471D01*
X123478545Y-104439471D01*
G36*
X123478545Y-104439471D02*
G01*
X121978545Y-104439471D01*
X121978545Y-103689471D01*
X123478545Y-103689471D01*
X123478545Y-104439471D01*
G37*
X123478545Y-106189471D02*
X122228545Y-106189471D01*
X121978545Y-105939471D01*
X121978545Y-105439471D01*
X123478545Y-105439471D01*
X123478545Y-106189471D01*
G36*
X123478545Y-106189471D02*
G01*
X122228545Y-106189471D01*
X121978545Y-105939471D01*
X121978545Y-105439471D01*
X123478545Y-105439471D01*
X123478545Y-106189471D01*
G37*
X115654547Y-104064472D02*
X114804547Y-104064472D01*
X114804547Y-102864472D01*
X115654547Y-102864472D01*
X115654547Y-104064472D01*
G36*
X115654547Y-104064472D02*
G01*
X114804547Y-104064472D01*
X114804547Y-102864472D01*
X115654547Y-102864472D01*
X115654547Y-104064472D01*
G37*
X115654547Y-107614472D02*
X114804547Y-107614472D01*
X114804547Y-106414472D01*
X115654547Y-106414472D01*
X115654547Y-107614472D01*
G36*
X115654547Y-107614472D02*
G01*
X114804547Y-107614472D01*
X114804547Y-106414472D01*
X115654547Y-106414472D01*
X115654547Y-107614472D01*
G37*
X155961746Y-119639879D02*
X153961746Y-119639879D01*
X153961746Y-118239879D01*
X155961746Y-118239879D01*
X155961746Y-119639879D01*
G36*
X155961746Y-119639879D02*
G01*
X153961746Y-119639879D01*
X153961746Y-118239879D01*
X155961746Y-118239879D01*
X155961746Y-119639879D01*
G37*
X155961746Y-121841321D02*
X153961746Y-121841321D01*
X153961746Y-120441321D01*
X155961746Y-120441321D01*
X155961746Y-121841321D01*
G36*
X155961746Y-121841321D02*
G01*
X153961746Y-121841321D01*
X153961746Y-120441321D01*
X155961746Y-120441321D01*
X155961746Y-121841321D01*
G37*
X146479550Y-108689470D02*
X144979550Y-108689470D01*
X144979550Y-107939470D01*
X146479550Y-107939470D01*
X146479550Y-108689470D01*
G36*
X146479550Y-108689470D02*
G01*
X144979550Y-108689470D01*
X144979550Y-107939470D01*
X146479550Y-107939470D01*
X146479550Y-108689470D01*
G37*
X146479550Y-106939470D02*
X144979550Y-106939470D01*
X144979550Y-106189470D01*
X146479550Y-106189470D01*
X146479550Y-106939470D01*
G36*
X146479550Y-106939470D02*
G01*
X144979550Y-106939470D01*
X144979550Y-106189470D01*
X146479550Y-106189470D01*
X146479550Y-106939470D01*
G37*
X141479550Y-106939470D02*
X139979550Y-106939470D01*
X139979550Y-106189470D01*
X141479550Y-106189470D01*
X141479550Y-106939470D01*
G36*
X141479550Y-106939470D02*
G01*
X139979550Y-106939470D01*
X139979550Y-106189470D01*
X141479550Y-106189470D01*
X141479550Y-106939470D01*
G37*
X141479550Y-108689470D02*
X140229550Y-108689470D01*
X139979550Y-108439470D01*
X139979550Y-107939470D01*
X141479550Y-107939470D01*
X141479550Y-108689470D01*
G36*
X141479550Y-108689470D02*
G01*
X140229550Y-108689470D01*
X139979550Y-108439470D01*
X139979550Y-107939470D01*
X141479550Y-107939470D01*
X141479550Y-108689470D01*
G37*
X128478546Y-89189470D02*
X126978546Y-89189470D01*
X126978546Y-88439470D01*
X128478546Y-88439470D01*
X128478546Y-89189470D01*
G36*
X128478546Y-89189470D02*
G01*
X126978546Y-89189470D01*
X126978546Y-88439470D01*
X128478546Y-88439470D01*
X128478546Y-89189470D01*
G37*
X128478546Y-87439470D02*
X126978546Y-87439470D01*
X126978546Y-86689470D01*
X128478546Y-86689470D01*
X128478546Y-87439470D01*
G36*
X128478546Y-87439470D02*
G01*
X126978546Y-87439470D01*
X126978546Y-86689470D01*
X128478546Y-86689470D01*
X128478546Y-87439470D01*
G37*
X123478546Y-87439470D02*
X121978546Y-87439470D01*
X121978546Y-86689470D01*
X123478546Y-86689470D01*
X123478546Y-87439470D01*
G36*
X123478546Y-87439470D02*
G01*
X121978546Y-87439470D01*
X121978546Y-86689470D01*
X123478546Y-86689470D01*
X123478546Y-87439470D01*
G37*
X123478546Y-89189470D02*
X122228546Y-89189470D01*
X121978546Y-88939470D01*
X121978546Y-88439470D01*
X123478546Y-88439470D01*
X123478546Y-89189470D01*
G36*
X123478546Y-89189470D02*
G01*
X122228546Y-89189470D01*
X121978546Y-88939470D01*
X121978546Y-88439470D01*
X123478546Y-88439470D01*
X123478546Y-89189470D01*
G37*
X128478546Y-72189475D02*
X126978546Y-72189475D01*
X126978546Y-71439475D01*
X128478546Y-71439475D01*
X128478546Y-72189475D01*
G36*
X128478546Y-72189475D02*
G01*
X126978546Y-72189475D01*
X126978546Y-71439475D01*
X128478546Y-71439475D01*
X128478546Y-72189475D01*
G37*
X128478546Y-70439475D02*
X126978546Y-70439475D01*
X126978546Y-69689475D01*
X128478546Y-69689475D01*
X128478546Y-70439475D01*
G36*
X128478546Y-70439475D02*
G01*
X126978546Y-70439475D01*
X126978546Y-69689475D01*
X128478546Y-69689475D01*
X128478546Y-70439475D01*
G37*
X123478546Y-70439475D02*
X121978546Y-70439475D01*
X121978546Y-69689475D01*
X123478546Y-69689475D01*
X123478546Y-70439475D01*
G36*
X123478546Y-70439475D02*
G01*
X121978546Y-70439475D01*
X121978546Y-69689475D01*
X123478546Y-69689475D01*
X123478546Y-70439475D01*
G37*
X123478546Y-72189475D02*
X122228546Y-72189475D01*
X121978546Y-71939475D01*
X121978546Y-71439475D01*
X123478546Y-71439475D01*
X123478546Y-72189475D01*
G36*
X123478546Y-72189475D02*
G01*
X122228546Y-72189475D01*
X121978546Y-71939475D01*
X121978546Y-71439475D01*
X123478546Y-71439475D01*
X123478546Y-72189475D01*
G37*
X92479546Y-88689968D02*
X90979546Y-88689968D01*
X90979546Y-87939968D01*
X92479546Y-87939968D01*
X92479546Y-88689968D01*
G36*
X92479546Y-88689968D02*
G01*
X90979546Y-88689968D01*
X90979546Y-87939968D01*
X92479546Y-87939968D01*
X92479546Y-88689968D01*
G37*
X92479546Y-86939968D02*
X90979546Y-86939968D01*
X90979546Y-86189968D01*
X92479546Y-86189968D01*
X92479546Y-86939968D01*
G36*
X92479546Y-86939968D02*
G01*
X90979546Y-86939968D01*
X90979546Y-86189968D01*
X92479546Y-86189968D01*
X92479546Y-86939968D01*
G37*
X87479546Y-86939968D02*
X85979546Y-86939968D01*
X85979546Y-86189968D01*
X87479546Y-86189968D01*
X87479546Y-86939968D01*
G36*
X87479546Y-86939968D02*
G01*
X85979546Y-86939968D01*
X85979546Y-86189968D01*
X87479546Y-86189968D01*
X87479546Y-86939968D01*
G37*
X87479546Y-88689968D02*
X86229546Y-88689968D01*
X85979546Y-88439968D01*
X85979546Y-87939968D01*
X87479546Y-87939968D01*
X87479546Y-88689968D01*
G36*
X87479546Y-88689968D02*
G01*
X86229546Y-88689968D01*
X85979546Y-88439968D01*
X85979546Y-87939968D01*
X87479546Y-87939968D01*
X87479546Y-88689968D01*
G37*
X97654544Y-76064974D02*
X96804544Y-76064974D01*
X96804544Y-74864974D01*
X97654544Y-74864974D01*
X97654544Y-76064974D01*
G36*
X97654544Y-76064974D02*
G01*
X96804544Y-76064974D01*
X96804544Y-74864974D01*
X97654544Y-74864974D01*
X97654544Y-76064974D01*
G37*
X97654544Y-79614974D02*
X96804544Y-79614974D01*
X96804544Y-78414974D01*
X97654544Y-78414974D01*
X97654544Y-79614974D01*
G36*
X97654544Y-79614974D02*
G01*
X96804544Y-79614974D01*
X96804544Y-78414974D01*
X97654544Y-78414974D01*
X97654544Y-79614974D01*
G37*
X147312782Y-133513669D02*
X146712782Y-134552899D01*
X145976660Y-134127899D01*
X146576660Y-133088669D01*
X147312782Y-133513669D01*
G36*
X147312782Y-133513669D02*
G01*
X146712782Y-134552899D01*
X145976660Y-134127899D01*
X146576660Y-133088669D01*
X147312782Y-133513669D01*
G37*
X145537782Y-136588059D02*
X144937782Y-137627289D01*
X144201660Y-137202289D01*
X144801660Y-136163059D01*
X145537782Y-136588059D01*
G36*
X145537782Y-136588059D02*
G01*
X144937782Y-137627289D01*
X144201660Y-137202289D01*
X144801660Y-136163059D01*
X145537782Y-136588059D01*
G37*
X143363570Y-131757500D02*
X143052987Y-132916611D01*
X142231950Y-132696615D01*
X142542533Y-131537504D01*
X143363570Y-131757500D01*
G36*
X143363570Y-131757500D02*
G01*
X143052987Y-132916611D01*
X142231950Y-132696615D01*
X142542533Y-131537504D01*
X143363570Y-131757500D01*
G37*
X142444762Y-135186537D02*
X142134179Y-136345648D01*
X141313142Y-136125652D01*
X141623725Y-134966541D01*
X142444762Y-135186537D01*
G36*
X142444762Y-135186537D02*
G01*
X142134179Y-136345648D01*
X141313142Y-136125652D01*
X141623725Y-134966541D01*
X142444762Y-135186537D01*
G37*
X135654545Y-93564474D02*
X134804545Y-93564474D01*
X134804545Y-92364474D01*
X135654545Y-92364474D01*
X135654545Y-93564474D01*
G36*
X135654545Y-93564474D02*
G01*
X134804545Y-93564474D01*
X134804545Y-92364474D01*
X135654545Y-92364474D01*
X135654545Y-93564474D01*
G37*
X135654545Y-97114474D02*
X134804545Y-97114474D01*
X134804545Y-95914474D01*
X135654545Y-95914474D01*
X135654545Y-97114474D01*
G36*
X135654545Y-97114474D02*
G01*
X134804545Y-97114474D01*
X134804545Y-95914474D01*
X135654545Y-95914474D01*
X135654545Y-97114474D01*
G37*
X74479543Y-100689967D02*
X72979543Y-100689967D01*
X72979543Y-99939967D01*
X74479543Y-99939967D01*
X74479543Y-100689967D01*
G36*
X74479543Y-100689967D02*
G01*
X72979543Y-100689967D01*
X72979543Y-99939967D01*
X74479543Y-99939967D01*
X74479543Y-100689967D01*
G37*
X74479543Y-98939967D02*
X72979543Y-98939967D01*
X72979543Y-98189967D01*
X74479543Y-98189967D01*
X74479543Y-98939967D01*
G36*
X74479543Y-98939967D02*
G01*
X72979543Y-98939967D01*
X72979543Y-98189967D01*
X74479543Y-98189967D01*
X74479543Y-98939967D01*
G37*
X69479543Y-98939967D02*
X67979543Y-98939967D01*
X67979543Y-98189967D01*
X69479543Y-98189967D01*
X69479543Y-98939967D01*
G36*
X69479543Y-98939967D02*
G01*
X67979543Y-98939967D01*
X67979543Y-98189967D01*
X69479543Y-98189967D01*
X69479543Y-98939967D01*
G37*
X69479543Y-100689967D02*
X68229543Y-100689967D01*
X67979543Y-100439967D01*
X67979543Y-99939967D01*
X69479543Y-99939967D01*
X69479543Y-100689967D01*
G36*
X69479543Y-100689967D02*
G01*
X68229543Y-100689967D01*
X67979543Y-100439967D01*
X67979543Y-99939967D01*
X69479543Y-99939967D01*
X69479543Y-100689967D01*
G37*
X92479549Y-105689974D02*
X90979549Y-105689974D01*
X90979549Y-104939974D01*
X92479549Y-104939974D01*
X92479549Y-105689974D01*
G36*
X92479549Y-105689974D02*
G01*
X90979549Y-105689974D01*
X90979549Y-104939974D01*
X92479549Y-104939974D01*
X92479549Y-105689974D01*
G37*
X92479549Y-103939974D02*
X90979549Y-103939974D01*
X90979549Y-103189974D01*
X92479549Y-103189974D01*
X92479549Y-103939974D01*
G36*
X92479549Y-103939974D02*
G01*
X90979549Y-103939974D01*
X90979549Y-103189974D01*
X92479549Y-103189974D01*
X92479549Y-103939974D01*
G37*
X87479549Y-103939974D02*
X85979549Y-103939974D01*
X85979549Y-103189974D01*
X87479549Y-103189974D01*
X87479549Y-103939974D01*
G36*
X87479549Y-103939974D02*
G01*
X85979549Y-103939974D01*
X85979549Y-103189974D01*
X87479549Y-103189974D01*
X87479549Y-103939974D01*
G37*
X87479549Y-105689974D02*
X86229549Y-105689974D01*
X85979549Y-105439974D01*
X85979549Y-104939974D01*
X87479549Y-104939974D01*
X87479549Y-105689974D01*
G36*
X87479549Y-105689974D02*
G01*
X86229549Y-105689974D01*
X85979549Y-105439974D01*
X85979549Y-104939974D01*
X87479549Y-104939974D01*
X87479549Y-105689974D01*
G37*
D11*
X134228545Y-84239474D03*
D12*
X101729546Y-103239471D03*
D13*
X107229546Y-103239471D03*
D12*
X112729546Y-103239471D03*
D14*
X112329546Y-107139471D03*
X107229546Y-109139471D03*
D15*
X111163509Y-132695094D03*
X111687509Y-132695094D03*
X113703509Y-132695094D03*
D16*
X113965509Y-130820094D03*
D15*
X114227509Y-132695094D03*
X116243509Y-132695094D03*
D16*
X116505509Y-130820094D03*
D15*
X116767509Y-132695094D03*
X118783509Y-132695094D03*
D16*
X119045509Y-130820094D03*
D15*
X119307509Y-132695094D03*
D17*
X119045509Y-129804094D03*
X116505509Y-129804094D03*
X113965509Y-129804094D03*
D18*
X108687509Y-134170094D03*
X121783509Y-134170094D03*
D15*
X108687509Y-132070094D03*
X121783509Y-132070094D03*
D11*
X80229545Y-83739972D03*
D12*
X148903370Y-134868092D03*
D13*
X153666510Y-137618092D03*
D12*
X158429650Y-140368092D03*
D19*
X156133240Y-143545591D03*
X150716510Y-142727642D03*
D20*
X163494573Y-85990134D03*
X163494573Y-85990134D03*
X160494573Y-85990134D03*
X160494573Y-85990134D03*
D21*
X107735549Y-124819470D03*
D18*
X107735549Y-129819470D03*
X107735549Y-127319470D03*
X122235549Y-129819470D03*
X122235549Y-124819470D03*
D22*
X169385693Y-81989640D03*
D12*
X119728544Y-92739470D03*
D13*
X125228544Y-92739470D03*
D12*
X130728544Y-92739470D03*
D14*
X130328544Y-96639470D03*
X125228544Y-98639470D03*
D12*
X65729546Y-121239972D03*
D13*
X71229546Y-121239972D03*
D12*
X76729546Y-121239972D03*
D14*
X76329546Y-125139972D03*
X71229546Y-127139972D03*
D22*
X154604371Y-81990097D03*
D12*
X137729546Y-95239475D03*
D13*
X143229546Y-95239475D03*
D12*
X148729546Y-95239475D03*
D14*
X148329546Y-99139475D03*
X143229546Y-101139475D03*
D12*
X65729544Y-104239969D03*
D13*
X71229544Y-104239969D03*
D12*
X76729544Y-104239969D03*
D14*
X76329544Y-108139969D03*
X71229544Y-110139969D03*
D18*
X154374574Y-87883137D03*
X154374574Y-90423137D03*
X154374574Y-92963137D03*
X154374574Y-95503137D03*
X154374574Y-98043137D03*
X154374574Y-100583137D03*
X154374574Y-103123137D03*
X154374574Y-105663137D03*
X154374574Y-108203137D03*
X154374574Y-110743137D03*
X154374574Y-113283137D03*
X154374574Y-115823137D03*
D23*
X156152574Y-87883137D03*
X156152574Y-90423137D03*
X156152574Y-92963137D03*
X156152574Y-95503137D03*
X156152574Y-98043137D03*
X156152574Y-100583137D03*
X156152574Y-103123137D03*
X156152574Y-105663137D03*
X156152574Y-108203137D03*
X156152574Y-110743137D03*
X156152574Y-113283137D03*
X156152574Y-115823137D03*
D24*
X167836574Y-87883137D03*
X167836574Y-90423137D03*
X167836574Y-92963137D03*
X167836574Y-95503137D03*
X167836574Y-98043137D03*
X167836574Y-100583137D03*
X167836574Y-103123137D03*
X167836574Y-105663137D03*
X167836574Y-108203137D03*
X167836574Y-110743137D03*
X167836574Y-113283137D03*
X167836574Y-115823137D03*
D18*
X169614574Y-87883137D03*
X169614574Y-90423137D03*
X169614574Y-92963137D03*
X169614574Y-95503137D03*
X169614574Y-98043137D03*
X169614574Y-100583137D03*
X169614574Y-103123137D03*
X169614574Y-105663137D03*
X169614574Y-108203137D03*
X169614574Y-110743137D03*
X169614574Y-113283137D03*
X169614574Y-115823137D03*
D25*
X166820574Y-87883137D03*
X166820574Y-90423137D03*
X166820574Y-92963137D03*
X166820574Y-95503137D03*
X166820574Y-98043137D03*
X166820574Y-100583137D03*
X166820574Y-103123137D03*
X166820574Y-105663137D03*
X166820574Y-108203137D03*
X166820574Y-110743137D03*
X166820574Y-113283137D03*
X166820574Y-115823137D03*
D26*
X157168574Y-115823137D03*
X157168574Y-113283137D03*
X157168574Y-110743137D03*
X157168574Y-108203137D03*
X157168574Y-105663137D03*
X157168574Y-103123137D03*
X157168574Y-100583137D03*
X157168574Y-98043137D03*
X157168574Y-95503137D03*
X157168574Y-92963137D03*
X157168574Y-90423137D03*
X157168574Y-87883137D03*
D12*
X83729547Y-109239974D03*
D13*
X89229547Y-109239974D03*
D12*
X94729547Y-109239974D03*
D14*
X94329547Y-113139974D03*
X89229547Y-115139974D03*
D27*
X166209022Y-125814835D03*
X159209022Y-125814835D03*
D28*
X156609022Y-123614835D03*
X156609022Y-128014835D03*
X164509022Y-123614835D03*
X164509022Y-128014835D03*
X161509022Y-123614835D03*
X161509022Y-128014835D03*
X157509022Y-123614835D03*
X157509022Y-128014835D03*
D12*
X101729543Y-69239473D03*
D13*
X107229543Y-69239473D03*
D12*
X112729543Y-69239473D03*
D14*
X112329543Y-73139473D03*
X107229543Y-75139473D03*
D12*
X137729546Y-78239472D03*
D13*
X143229546Y-78239472D03*
D12*
X148729546Y-78239472D03*
D14*
X148329546Y-82139472D03*
X143229546Y-84139472D03*
D22*
X165490722Y-131887874D03*
D16*
X158184753Y-119084826D03*
D18*
X158184753Y-120742826D03*
D16*
X160724753Y-119084826D03*
D18*
X160724753Y-120742826D03*
D16*
X163264753Y-119084826D03*
D18*
X163264753Y-120742826D03*
D16*
X165804753Y-119084826D03*
D18*
X165804753Y-120742826D03*
D17*
X165804753Y-118068826D03*
X163264753Y-118068826D03*
X160724753Y-118068826D03*
X158184753Y-118068826D03*
D12*
X65729542Y-87239972D03*
D13*
X71229542Y-87239972D03*
D12*
X76729542Y-87239972D03*
D14*
X76329542Y-91139972D03*
X71229542Y-93139972D03*
D12*
X119728544Y-109739471D03*
D13*
X125228544Y-109739471D03*
D12*
X130728544Y-109739471D03*
D14*
X130328544Y-113639471D03*
X125228544Y-115639471D03*
D12*
X83729547Y-92239968D03*
D13*
X89229547Y-92239968D03*
D12*
X94729547Y-92239968D03*
D14*
X94329547Y-96139968D03*
X89229547Y-98139968D03*
D12*
X119728547Y-75739475D03*
D13*
X125228547Y-75739475D03*
D12*
X130728547Y-75739475D03*
D14*
X130328547Y-79639475D03*
X125228547Y-81639475D03*
D11*
X80229546Y-112739970D03*
D12*
X129815995Y-128515667D03*
D13*
X135128587Y-129939172D03*
D12*
X140441179Y-131362677D03*
D29*
X139045414Y-135026260D03*
X133601555Y-135638134D03*
D12*
X101729546Y-86239470D03*
D13*
X107229546Y-86239470D03*
D12*
X112729546Y-86239470D03*
D14*
X112329546Y-90139470D03*
X107229546Y-92139470D03*
D11*
X116229546Y-112739469D03*
X148510701Y-123849903D03*
D12*
X137729549Y-112239469D03*
D13*
X143229549Y-112239469D03*
D12*
X148729549Y-112239469D03*
D14*
X148329549Y-116139469D03*
X143229549Y-118139469D03*
D12*
X83729545Y-75239973D03*
D13*
X89229545Y-75239973D03*
D12*
X94729545Y-75239973D03*
D14*
X94329545Y-79139973D03*
X89229545Y-81139973D03*
M02*
