M48
; DRILL file {KiCad 7.0.2-0} date 2023 June 12, Monday 23:20:56
; FORMAT={-:-/ absolute / inch / decimal}
; #@! TF.CreationDate,2023-06-12T23:20:56+02:00
; #@! TF.GenerationSoftware,Kicad,Pcbnew,7.0.2-0
; #@! TF.FileFunction,Plated,1,2,PTH
FMAT,2
INCH
; #@! TA.AperFunction,Plated,PTH,ComponentDrill
T1C0.0120
; #@! TA.AperFunction,Plated,PTH,ViaDrill
T2C0.0157
; #@! TA.AperFunction,Plated,PTH,ComponentDrill
T3C0.0394
; #@! TA.AperFunction,Plated,PTH,ComponentDrill
T4C0.0433
; #@! TA.AperFunction,Plated,PTH,ComponentDrill
T5C0.0866
; #@! TA.AperFunction,Plated,PTH,ComponentDrill
T6C0.1496
%
G90
G05
T1
X3.1193Y-3.5399
X3.1193Y-4.2092
X3.1193Y-4.8785
X3.1193Y-3.4868
X3.1193Y-4.1561
X3.1193Y-4.8254
X3.8279Y-3.7368
X3.8279Y-3.0675
X3.8279Y-4.4061
X3.8279Y-3.6837
X3.8279Y-3.0144
X3.8279Y-4.353
X4.5366Y-2.8313
X4.5366Y-4.1698
X4.5366Y-3.5006
X4.5366Y-2.7781
X4.5366Y-4.1167
X4.5366Y-3.4474
X4.9885Y-5.1359
X5.0023Y-5.0846
X5.2452Y-4.4258
X5.2452Y-3.0872
X5.2452Y-3.7565
X5.2452Y-4.3726
X5.2452Y-3.0341
X5.2452Y-3.7033
X5.324Y-4.4258
X5.324Y-3.7565
X5.324Y-3.0872
X5.324Y-4.3726
X5.324Y-3.7033
X5.324Y-3.0341
X5.597Y-5.2989
X5.6107Y-5.2476
X5.7252Y-5.352
X5.7518Y-5.3061
X6.1537Y-4.6827
X6.1537Y-4.7693
X6.6726Y-4.6958
X6.6726Y-4.7722
T2
X4.3868Y-5.071
X4.4229Y-5.0464
X4.5368Y-5.1104
X4.5368Y-5.0604
X5.3256Y-4.6835
X5.4665Y-4.8264
X5.767Y-4.7796
X5.7884Y-4.1231
X5.7979Y-4.7679
X5.8145Y-4.1054
X5.8297Y-4.7612
X5.8406Y-4.0878
X5.8604Y-4.0633
X6.2271Y-3.985
X6.2271Y-4.085
X6.2271Y-3.885
X6.2271Y-3.735
X6.2271Y-4.185
X6.2271Y-4.335
X6.2271Y-3.81
X6.2271Y-4.26
X6.2468Y-4.41
X6.2468Y-3.66
X6.2665Y-3.585
X6.2665Y-4.485
X6.2665Y-4.135
X6.2665Y-4.035
X6.2665Y-4.2196
X6.3393Y-3.6854
X6.3486Y-3.5914
X6.3652Y-3.8035
X6.3777Y-3.3539
X6.3777Y-4.6484
X6.3779Y-4.6982
X6.3781Y-3.4091
X6.3867Y-3.9275
X6.3975Y-3.6314
X6.4221Y-3.8501
X6.4281Y-3.5202
X6.4645Y-3.74
X6.489Y-4.435
X6.489Y-3.56
X6.5087Y-4.36
X6.5087Y-3.635
X6.5113Y-4.6148
X6.5284Y-4.21
X6.5284Y-3.71
X6.5284Y-3.835
X6.5284Y-4.035
X6.5284Y-4.135
X6.5284Y-4.285
X6.5284Y-3.935
T4
X4.2416Y-4.9252
X4.2416Y-5.0236
X4.2416Y-5.122
X4.279Y-5.2933
X4.7946Y-5.2933
X4.8124Y-4.9252
X4.8124Y-5.122
X6.0777Y-3.46
X6.0777Y-3.56
X6.0777Y-3.66
X6.0777Y-3.76
X6.0777Y-3.86
X6.0777Y-3.96
X6.0777Y-4.06
X6.0777Y-4.16
X6.0777Y-4.26
X6.0777Y-4.36
X6.0777Y-4.46
X6.0777Y-4.56
X6.2277Y-4.7537
X6.3277Y-4.7537
X6.4277Y-4.7537
X6.5277Y-4.7537
X6.6777Y-3.46
X6.6777Y-3.56
X6.6777Y-3.66
X6.6777Y-3.76
X6.6777Y-3.86
X6.6777Y-3.96
X6.6777Y-4.06
X6.6777Y-4.16
X6.6777Y-4.26
X6.6777Y-4.36
X6.6777Y-4.46
X6.6777Y-4.56
T5
X6.0868Y-3.228
X6.5154Y-5.1924
X6.6687Y-3.2279
T6
X3.1586Y-3.2968
X3.1586Y-4.4386
X4.576Y-4.4386
X5.2846Y-3.3165
X5.8469Y-4.876
T3
G00X2.5957Y-3.5882
M15
G01X2.6114Y-3.5882
M16
G05
G00X2.5957Y-4.2575
M15
G01X2.6114Y-4.2575
M16
G05
G00X2.5957Y-4.9268
M15
G01X2.6114Y-4.9268
M16
G05
G00X2.7964Y-3.6669
M15
G01X2.8122Y-3.6669
M16
G05
G00X2.7964Y-4.3362
M15
G01X2.8122Y-4.3362
M16
G05
G00X2.7964Y-5.0055
M15
G01X2.8122Y-5.0055
M16
G05
G00X2.9972Y-3.5882
M15
G01X3.013Y-3.5882
M16
G05
G00X2.9972Y-4.2575
M15
G01X3.013Y-4.2575
M16
G05
G00X2.9972Y-4.9268
M15
G01X3.013Y-4.9268
M16
G05
G00X3.3043Y-3.1157
M15
G01X3.3201Y-3.1157
M16
G05
G00X3.3043Y-3.785
M15
G01X3.3201Y-3.785
M16
G05
G00X3.3043Y-4.4543
M15
G01X3.3201Y-4.4543
M16
G05
G00X3.5051Y-3.1945
M15
G01X3.5208Y-3.1945
M16
G05
G00X3.5051Y-3.8638
M15
G01X3.5208Y-3.8638
M16
G05
G00X3.5051Y-4.5331
M15
G01X3.5208Y-4.5331
M16
G05
G00X3.7059Y-3.1157
M15
G01X3.7216Y-3.1157
M16
G05
G00X3.7059Y-3.785
M15
G01X3.7216Y-3.785
M16
G05
G00X3.7059Y-4.4543
M15
G01X3.7216Y-4.4543
M16
G05
G00X4.013Y-2.8795
M15
G01X4.0287Y-2.8795
M16
G05
G00X4.013Y-3.5488
M15
G01X4.0287Y-3.5488
M16
G05
G00X4.013Y-4.2181
M15
G01X4.0287Y-4.2181
M16
G05
G00X4.2138Y-2.9582
M15
G01X4.2295Y-2.9582
M16
G05
G00X4.2138Y-3.6275
M15
G01X4.2295Y-3.6275
M16
G05
G00X4.2138Y-4.2968
M15
G01X4.2295Y-4.2968
M16
G05
G00X4.4145Y-2.8795
M15
G01X4.4303Y-2.8795
M16
G05
G00X4.4145Y-3.5488
M15
G01X4.4303Y-3.5488
M16
G05
G00X4.4145Y-4.2181
M15
G01X4.4303Y-4.2181
M16
G05
G00X4.7216Y-3.8047
M15
G01X4.7373Y-3.8047
M16
G05
G00X4.7216Y-4.474
M15
G01X4.7373Y-4.474
M16
G05
G00X4.7216Y-3.1354
M15
G01X4.7373Y-3.1354
M16
G05
G00X4.9224Y-3.8834
M15
G01X4.9381Y-3.8834
M16
G05
G00X4.9224Y-4.5527
M15
G01X4.9381Y-4.5527
M16
G05
G00X4.9224Y-3.2142
M15
G01X4.9381Y-3.2142
M16
G05
G00X5.0787Y-5.21
M15
G01X5.0939Y-5.2141
M16
G05
G00X5.1232Y-3.8047
M15
G01X5.1389Y-3.8047
M16
G05
G00X5.1232Y-4.474
M15
G01X5.1389Y-4.474
M16
G05
G00X5.1232Y-3.1354
M15
G01X5.1389Y-3.1354
M16
G05
G00X5.2523Y-5.338
M15
G01X5.2675Y-5.3421
M16
G05
G00X5.4303Y-3.2338
M15
G01X5.446Y-3.2338
M16
G05
G00X5.4303Y-3.9031
M15
G01X5.446Y-3.9031
M16
G05
G00X5.4303Y-4.5724
M15
G01X5.446Y-4.5724
M16
G05
G00X5.4666Y-5.314
M15
G01X5.4818Y-5.318
M16
G05
G00X5.6311Y-3.3126
M15
G01X5.6468Y-3.3126
M16
G05
G00X5.6311Y-3.9819
M15
G01X5.6468Y-3.9819
M16
G05
G00X5.6311Y-4.6512
M15
G01X5.6468Y-4.6512
M16
G05
G00X5.7924Y-5.4467
M15
G01X5.806Y-5.4546
M16
G05
G00X5.8319Y-3.2338
M15
G01X5.8476Y-3.2338
M16
G05
G00X5.8319Y-3.9031
M15
G01X5.8476Y-3.9031
M16
G05
G00X5.8319Y-4.5724
M15
G01X5.8476Y-4.5724
M16
G05
G00X5.9269Y-5.6153
M15
G01X5.9405Y-5.6231
M16
G05
G00X6.1402Y-5.6475
M15
G01X6.1538Y-5.6553
M16
G05
G00X6.1559Y-4.8667
M15
G01X6.1756Y-4.8667
M16
G05
G00X6.1559Y-5.04
M15
G01X6.1756Y-5.04
M16
G05
G00X6.1913Y-4.8667
M15
G01X6.211Y-4.8667
M16
G05
G00X6.1913Y-5.04
M15
G01X6.211Y-5.04
M16
G05
G00X6.3488Y-4.8667
M15
G01X6.3685Y-4.8667
M16
G05
G00X6.3685Y-5.04
M15
G01X6.3488Y-5.04
M16
G05
G00X6.4669Y-4.8667
M15
G01X6.4866Y-4.8667
M16
G05
G00X6.4866Y-5.04
M15
G01X6.4669Y-5.04
M16
G05
T4
G00X4.279Y-5.2205
M15
G01X4.279Y-5.2008
M16
G05
G00X4.3765Y-5.2451
M15
G01X4.3765Y-5.2254
M16
G05
G00X4.3971Y-5.2254
M15
G01X4.3971Y-5.2451
M16
G05
G00X4.4765Y-5.2451
M15
G01X4.4765Y-5.2254
M16
G05
G00X4.4971Y-5.2254
M15
G01X4.4971Y-5.2451
M16
G05
G00X4.5765Y-5.2451
M15
G01X4.5765Y-5.2254
M16
G05
G00X4.5971Y-5.2254
M15
G01X4.5971Y-5.2451
M16
G05
G00X4.6765Y-5.2451
M15
G01X4.6765Y-5.2254
M16
G05
G00X4.6971Y-5.2254
M15
G01X4.6971Y-5.2451
M16
G05
G00X4.7946Y-5.2008
M15
G01X4.7946Y-5.2205
M16
G05
T0
M30
